<?xml version="1.0" encoding="UTF-8"?>
<svg width="16px" height="16px" viewBox="0 0 16 16" version="1.1" xmlns="http://www.w3.org/2000/svg" xmlns:xlink="http://www.w3.org/1999/xlink">
    <!-- Generator: Sketch 49.2 (51160) - http://www.bohemiancoding.com/sketch -->
    <title>icon / message preview / pin-on_16px_500</title>
    <desc>Created with Sketch.</desc>
    <defs></defs>
    <g id="icon-/-message-preview-/-pin-on_16px_500" stroke="none" stroke-width="1" fill="none" fill-rule="evenodd">
        <g>
            <rect id="Rectangle-2" x="0" y="0" width="16" height="16"></rect>
            <path d="M3.44671326,10.7548553 C3.44671326,10.5157588 3.44671326,10.1407588 3.44671326,9.62985535 C3.44671326,9.3604423 3.44671326,8.50485535 4.57171326,7.94235535 L6.25921326,7.37985535 L6.25921326,5.12985535 L4.57171326,4.00485535 L4.57171326,1.75485535 L11.3217133,1.75485535 L11.3217133,4.00485535 L9.63421326,5.12985535 L9.63421326,7.37985535 L11.3217133,7.94235535 C12.4467133,8.50485535 12.4467133,9.3604423 12.4467133,9.62985535 L12.4467133,10.7548553 C6.44671326,10.7548553 3.44671326,10.7548553 3.44671326,10.7548553 Z M7.94671326,15.7548553 L7.94671326,10.7548553 L7.94671326,15.7548553 Z" id="icon-/-pin-/-16" stroke="#607D8B" stroke-width="1.5" stroke-linecap="round" stroke-linejoin="round" transform="translate(7.946713, 8.754855) rotate(40.000000) translate(-7.946713, -8.754855) "></path>
        </g>
    </g>
</svg>