<?xml version="1.0" encoding="UTF-8"?>
<svg width="26px" height="26px" viewBox="0 0 26 26" version="1.1" xmlns="http://www.w3.org/2000/svg" xmlns:xlink="http://www.w3.org/1999/xlink">
    <!-- Generator: Sketch 49.2 (51160) - http://www.bohemiancoding.com/sketch -->
    <title>icon / group members / add-new_26px_300</title>
    <desc>Created with Sketch.</desc>
    <defs></defs>
    <g id="icon-/-group-members-/-add-new_26px_300" stroke="none" stroke-width="1" fill="none" fill-rule="evenodd" stroke-linecap="round" stroke-linejoin="round">
        <path d="M14.6712903,13.7001739 C14.8870968,13.2953043 15.0322581,12.8726957 15.0322581,12.4782609 C15.0322581,11.5652174 15.516129,11.4347826 15.516129,11.4347826 C15.516129,11.4347826 16,10.1304348 16,9.34782609 C16,9.34782609 15.8790323,8.82608696 15.516129,8.82608696 L15.516129,5.69565217 C15.516129,3.13078261 14.3064516,3.34782609 14.5483871,3.08695652 C14.5483871,2.4786087 13.8632258,1 11.1612903,1 C8.41,1 6.80645161,3.82573913 6.80645161,5.69565217 L6.80645161,8.82608696 C6.44354839,8.82608696 6.32258065,9.34782609 6.32258065,9.34782609 C6.32258065,10.1304348 6.80645161,11.4347826 6.80645161,11.4347826 C6.80645161,11.4347826 7.29032258,11.5652174 7.29032258,12.4782609 C7.29032258,13.3913043 8.04709677,14.4671304 8.74193548,15.0869565 C8.74193548,15.5763478 8.25806452,18.0869565 6.80645161,18.7391304 L2.51258065,20.2824348 C1.57,20.6215652 1.24096774,21.4553043 1,22.4935652 L1,25 L13.6832258,25 M15,20 C15,17.239 17.239,15 20,15 C22.761,15 25,17.239 25,20 C25,22.761 22.761,25 20,25 C17.239,25 15,22.761 15,20 Z M18,20 L22,20 M20,18 L20,22" stroke="#90A4AE" stroke-width="1.5"></path>
    </g>
</svg>