<?xml version="1.0" encoding="UTF-8"?>
<svg width="24px" height="24px" viewBox="0 0 24 24" version="1.1" xmlns="http://www.w3.org/2000/svg" xmlns:xlink="http://www.w3.org/1999/xlink">
    <!-- Generator: Sketch 51.2 (57519) - http://www.bohemiancoding.com/sketch -->
    <title>Chevron Left</title>
    <desc>Created with Sketch.</desc>
    <defs></defs>
    <g id="Chevron-Left" stroke="none" stroke-width="1" fill="none" fill-rule="evenodd">
        <path d="M16.450635,21.667702 L6.38272385,13.2765909 C6.14015797,13.0736537 6,12.773653 6,12.4573909 C6,12.1411288 6.14015797,11.8411281 6.38272385,11.6381909 L16.450635,3.24707981 C16.7685631,2.98226891 17.2109541,2.92521086 17.585669,3.10068708 C17.9603838,3.2761633 18.1998132,3.65251286 18.1999683,4.06627981 L18.1999683,7.16672426 C18.1998226,7.81465519 17.905221,8.42740563 17.3992572,8.83214648 L12.866635,12.4588131 L17.3992572,16.0854798 C17.905221,16.4902207 18.1998226,17.1029711 18.1999683,17.750902 L18.1999683,20.8499243 C18.1992624,21.2634341 17.9596254,21.6392799 17.585026,21.8143975 C17.2104266,21.9895151 16.7683655,21.9323493 16.450635,21.667702 Z" id="Shape" fill="#1676EA"></path>
    </g>
</svg>