<?xml version="1.0" encoding="UTF-8"?>
<svg width="24px" height="24px" viewBox="0 0 24 24" version="1.1" xmlns="http://www.w3.org/2000/svg" xmlns:xlink="http://www.w3.org/1999/xlink">
    <!-- Generator: Sketch 51.2 (57519) - http://www.bohemiancoding.com/sketch -->
    <title>Close</title>
    <desc>Created with Sketch.</desc>
    <defs>
        <path d="M11.1785113,10 L13.922589,12.7440777 C14.2480259,13.0695146 14.2480259,13.5971521 13.922589,13.922589 C13.5971521,14.2480259 13.0695146,14.2480259 12.7440777,13.922589 L10,11.1785113 L7.25592232,13.922589 C6.93048541,14.2480259 6.40284793,14.2480259 6.07741102,13.922589 C5.75197411,13.5971521 5.75197411,13.0695146 6.07741102,12.7440777 L8.8214887,10 L6.07741102,7.25592232 C5.75197411,6.93048541 5.75197411,6.40284793 6.07741102,6.07741102 C6.40284793,5.75197411 6.93048541,5.75197411 7.25592232,6.07741102 L10,8.8214887 L12.7440777,6.07741102 C13.0695146,5.75197411 13.5971521,5.75197411 13.922589,6.07741102 C14.2480259,6.40284793 14.2480259,6.93048541 13.922589,7.25592232 L11.1785113,10 Z" id="path-1"></path>
    </defs>
    <g id="Close" stroke="none" stroke-width="1" fill="none" fill-rule="evenodd">
        <g id="Icon-/-Line-/-Cross" transform="translate(2.000000, 2.000000)">
            <mask id="mask-2" fill="white">
                <use xlink:href="#path-1"></use>
            </mask>
            <use id="Mask" fill-opacity="0" fill="#051033" fill-rule="nonzero" xlink:href="#path-1"></use>
            <g id="Color-/-Black-/-Black-800" mask="url(#mask-2)" fill="#182C4F" fill-rule="evenodd">
                <polygon id="Black-/-Black-800" points="0 0 20 0 20 20 0 20"></polygon>
            </g>
        </g>
    </g>
</svg>