<svg id="svg" version="1.1" width="400" height="350.87719298245617" viewBox="0 0 400 350.87719298245617" xmlns="http://www.w3.org/2000/svg" xmlns:xlink="http://www.w3.org/1999/xlink" >
	<g id="svgg">
	<path id="path0" d="M182.807 8.750 C 176.388 9.330,174.737 9.557,174.737 9.860 C 174.737 10.034,174.291 10.175,173.747 10.175 C 172.572 10.175,169.474 11.179,169.474 11.560 C 169.474 11.706,168.408 12.111,167.105 12.460 C 165.803 12.809,164.658 13.202,164.561 13.333 C 164.370 13.593,161.292 14.202,158.246 14.581 C 157.184 14.714,156.237 14.927,156.140 15.056 C 156.044 15.185,154.600 15.548,152.931 15.863 C 150.052 16.407,149.270 16.781,147.572 18.426 C 147.170 18.815,146.408 19.354,145.877 19.626 C 145.346 19.897,144.912 20.230,144.912 20.367 C 144.912 20.504,143.807 20.902,142.456 21.253 C 141.105 21.603,140.000 22.017,140.000 22.173 C 140.000 22.329,139.724 22.457,139.386 22.458 C 138.200 22.462,136.234 23.170,135.402 23.893 C 134.940 24.294,134.404 24.727,134.211 24.855 C 134.018 24.983,133.691 25.393,133.485 25.766 C 133.279 26.139,132.806 26.613,132.433 26.819 C 132.060 27.025,131.675 27.294,131.579 27.417 C 131.482 27.540,130.806 27.889,130.075 28.193 C 129.345 28.498,128.505 28.989,128.208 29.285 C 127.912 29.582,127.449 29.825,127.180 29.825 C 126.912 29.825,125.563 30.920,124.183 32.260 C 122.803 33.599,121.140 34.949,120.486 35.259 C 119.833 35.569,119.298 35.951,119.298 36.109 C 119.298 36.267,118.578 36.671,117.698 37.007 C 115.929 37.682,114.908 38.585,113.876 40.384 C 113.114 41.714,111.984 42.778,111.316 42.795 C 111.075 42.802,110.877 42.968,110.877 43.165 C 110.877 43.363,110.443 43.713,109.912 43.945 C 108.641 44.499,107.472 45.740,106.875 47.168 C 106.085 49.059,103.527 51.795,102.001 52.380 C 101.684 52.502,101.324 53.003,101.200 53.494 C 101.077 53.984,100.852 54.386,100.699 54.386 C 100.546 54.386,100.137 55.175,99.790 56.140 C 99.444 57.105,99.035 57.895,98.883 57.895 C 98.730 57.895,98.375 58.447,98.093 59.123 C 97.811 59.798,97.432 60.351,97.252 60.351 C 97.071 60.351,96.838 60.678,96.734 61.079 C 96.629 61.479,96.243 61.885,95.876 61.981 C 95.510 62.077,94.915 62.657,94.554 63.271 C 94.194 63.884,93.709 64.579,93.476 64.815 C 93.243 65.050,92.849 66.037,92.600 67.008 C 92.352 67.978,92.034 68.772,91.894 68.772 C 91.755 68.772,91.531 69.420,91.397 70.213 C 91.263 71.005,90.889 71.918,90.565 72.242 C 90.242 72.565,89.715 73.378,89.394 74.047 C 89.074 74.716,88.495 75.457,88.108 75.694 C 87.720 75.931,87.299 76.681,87.171 77.361 C 87.044 78.040,86.805 78.596,86.641 78.596 C 86.246 78.596,85.709 80.706,85.412 83.421 C 85.280 84.627,85.063 85.614,84.928 85.614 C 84.794 85.614,84.407 87.193,84.069 89.123 C 83.732 91.053,83.342 92.632,83.204 92.632 C 83.066 92.632,82.649 93.539,82.279 94.649 C 81.909 95.759,81.488 96.751,81.345 96.853 C 80.958 97.130,80.000 101.027,80.000 102.325 C 80.000 102.944,79.847 103.503,79.659 103.567 C 79.301 103.690,78.606 114.978,78.600 120.776 C 78.597 123.620,78.490 124.287,77.951 124.811 C 77.596 125.156,77.200 125.730,77.072 126.086 C 76.944 126.442,76.524 126.816,76.139 126.916 C 75.754 127.017,75.439 127.227,75.439 127.382 C 75.439 127.770,73.530 128.347,71.316 128.628 C 70.303 128.757,69.474 128.982,69.474 129.128 C 69.474 129.274,68.798 129.495,67.972 129.619 C 67.147 129.743,66.031 130.223,65.492 130.685 C 64.954 131.148,63.735 131.726,62.783 131.970 C 61.831 132.214,61.053 132.514,61.053 132.638 C 61.053 132.761,59.789 133.163,58.246 133.530 C 56.702 133.898,55.439 134.320,55.439 134.468 C 55.439 134.616,55.010 134.737,54.485 134.737 C 53.320 134.737,50.526 135.767,50.526 136.197 C 50.526 136.368,50.132 136.659,49.649 136.842 C 49.167 137.026,48.772 137.409,48.772 137.694 C 48.772 137.979,48.180 138.488,47.456 138.824 C 46.732 139.161,46.014 139.642,45.860 139.893 C 45.705 140.145,45.350 140.351,45.070 140.351 C 44.790 140.351,44.267 140.646,43.907 141.006 C 43.546 141.366,42.520 141.940,41.626 142.281 C 40.732 142.623,40.000 143.043,40.000 143.214 C 40.000 143.386,39.605 143.676,39.123 143.860 C 38.640 144.043,38.246 144.381,38.246 144.611 C 38.246 144.841,38.016 145.279,37.735 145.585 C 35.470 148.051,34.428 149.023,33.596 149.449 C 33.066 149.721,32.632 150.074,32.632 150.235 C 32.632 150.395,32.381 150.526,32.075 150.526 C 31.769 150.526,31.339 151.000,31.121 151.579 C 30.902 152.158,30.622 152.632,30.497 152.632 C 30.373 152.632,29.999 153.342,29.668 154.211 C 29.336 155.079,28.954 155.789,28.819 155.789 C 28.683 155.789,28.274 156.295,27.909 156.913 C 27.544 157.531,26.565 158.717,25.734 159.548 C 24.902 160.379,24.126 161.441,24.009 161.908 C 23.892 162.374,23.603 162.830,23.366 162.921 C 23.130 163.012,22.719 164.010,22.454 165.140 C 22.188 166.269,21.883 167.272,21.775 167.368 C 21.667 167.465,21.298 168.642,20.955 169.985 C 20.613 171.328,20.209 172.512,20.058 172.617 C 19.908 172.721,19.572 173.360,19.312 174.035 C 19.052 174.711,18.592 175.464,18.290 175.709 C 17.702 176.187,16.856 178.633,16.847 179.883 C 16.845 180.301,16.692 180.696,16.509 180.760 C 15.357 181.164,15.360 205.148,16.511 205.556 C 16.693 205.620,16.845 206.015,16.847 206.433 C 16.856 207.683,17.702 210.129,18.290 210.607 C 18.592 210.852,19.052 211.605,19.312 212.281 C 19.572 212.956,19.908 213.594,20.058 213.699 C 20.209 213.804,20.613 214.988,20.955 216.331 C 21.298 217.673,21.667 218.851,21.775 218.947 C 21.883 219.044,22.188 220.047,22.454 221.176 C 22.719 222.306,23.130 223.304,23.366 223.395 C 23.603 223.485,23.892 223.941,24.009 224.408 C 24.126 224.875,24.902 225.936,25.734 226.768 C 26.565 227.599,27.544 228.785,27.909 229.403 C 28.274 230.021,28.683 230.526,28.819 230.526 C 28.954 230.526,29.336 231.237,29.668 232.105 C 29.999 232.974,30.373 233.684,30.497 233.684 C 30.622 233.684,30.902 234.158,31.121 234.737 C 31.339 235.316,31.769 235.789,32.075 235.789 C 32.381 235.789,32.632 235.921,32.632 236.081 C 32.632 236.241,33.066 236.595,33.596 236.867 C 34.428 237.293,35.470 238.265,37.735 240.731 C 38.016 241.037,38.246 241.475,38.246 241.705 C 38.246 241.935,38.640 242.273,39.123 242.456 C 39.605 242.640,40.000 242.930,40.000 243.102 C 40.000 243.273,40.732 243.693,41.626 244.034 C 42.520 244.376,43.546 244.950,43.907 245.310 C 44.267 245.670,44.790 245.965,45.070 245.965 C 45.350 245.965,45.705 246.171,45.860 246.422 C 46.014 246.674,46.732 247.155,47.456 247.492 C 48.180 247.828,48.772 248.336,48.772 248.622 C 48.772 248.907,49.167 249.290,49.649 249.474 C 50.132 249.657,50.526 249.948,50.526 250.119 C 50.526 250.549,53.320 251.579,54.485 251.579 C 55.010 251.579,55.439 251.700,55.439 251.848 C 55.439 251.996,56.702 252.417,58.246 252.785 C 59.789 253.153,61.053 253.555,61.053 253.678 C 61.053 253.802,61.831 254.102,62.783 254.346 C 63.735 254.590,64.954 255.168,65.492 255.630 C 66.031 256.093,67.147 256.573,67.972 256.697 C 68.798 256.820,69.474 257.043,69.474 257.190 C 69.474 258.510,127.061 259.288,133.414 258.054 C 135.107 257.726,136.491 257.329,136.491 257.173 C 136.491 257.017,136.807 256.789,137.193 256.667 C 137.950 256.426,138.314 249.123,137.569 249.123 C 137.390 249.123,137.024 248.903,136.756 248.635 C 135.326 247.206,131.876 247.018,107.155 247.018 C 91.625 247.018,83.509 246.897,83.509 246.667 C 83.509 246.452,81.816 246.316,79.133 246.316 C 74.935 246.316,67.383 245.461,67.018 244.945 C 66.921 244.809,66.325 244.488,65.693 244.232 C 65.062 243.977,64.430 243.591,64.290 243.375 C 63.982 242.901,62.859 242.161,62.018 241.879 C 61.680 241.765,61.404 241.559,61.404 241.421 C 61.404 241.283,60.219 240.875,58.772 240.515 C 57.325 240.154,56.140 239.762,56.140 239.642 C 56.140 239.523,55.333 239.205,54.346 238.937 C 53.360 238.668,52.475 238.245,52.379 237.996 C 52.284 237.747,52.005 237.544,51.761 237.544 C 51.321 237.544,48.776 234.792,48.773 234.315 C 48.772 234.179,48.180 233.790,47.456 233.451 C 46.732 233.111,45.932 232.630,45.677 232.382 C 45.422 232.133,45.043 231.930,44.835 231.930 C 44.293 231.930,42.353 229.822,41.847 228.684 C 41.612 228.154,41.257 227.719,41.060 227.719 C 40.863 227.719,40.702 227.520,40.702 227.277 C 40.702 226.771,39.068 224.912,38.624 224.912 C 38.156 224.912,36.140 222.722,36.140 222.214 C 36.140 221.961,35.995 221.754,35.818 221.754 C 35.640 221.754,35.222 220.925,34.889 219.912 C 34.555 218.899,34.186 217.991,34.068 217.895 C 33.950 217.798,33.549 216.852,33.177 215.792 C 32.804 214.732,32.214 213.557,31.864 213.182 C 31.514 212.806,31.228 212.396,31.228 212.269 C 31.228 212.143,30.846 211.595,30.379 211.051 C 29.913 210.508,29.432 209.536,29.311 208.892 C 29.190 208.247,28.962 207.719,28.804 207.719 C 28.256 207.719,27.687 200.303,27.687 193.158 C 27.687 186.012,28.256 178.596,28.804 178.596 C 28.962 178.596,29.190 178.069,29.311 177.424 C 29.432 176.780,29.913 175.808,30.379 175.264 C 30.846 174.721,31.228 174.173,31.228 174.047 C 31.228 173.920,31.514 173.509,31.864 173.134 C 32.214 172.759,32.804 171.584,33.177 170.524 C 33.549 169.464,33.950 168.518,34.068 168.421 C 34.186 168.325,34.555 167.417,34.889 166.404 C 35.222 165.390,35.640 164.561,35.818 164.561 C 35.995 164.561,36.140 164.355,36.140 164.102 C 36.140 163.594,38.156 161.404,38.624 161.404 C 39.068 161.404,40.702 159.545,40.702 159.039 C 40.702 158.795,40.863 158.596,41.060 158.596 C 41.257 158.596,41.612 158.162,41.847 157.632 C 42.353 156.494,44.293 154.386,44.835 154.386 C 45.043 154.386,45.422 154.183,45.677 153.934 C 45.932 153.686,46.732 153.204,47.456 152.865 C 48.180 152.526,48.772 152.137,48.773 152.001 C 48.776 151.523,51.321 148.772,51.761 148.772 C 52.005 148.772,52.284 148.568,52.379 148.320 C 52.475 148.071,53.360 147.648,54.346 147.379 C 55.333 147.111,56.140 146.793,56.140 146.674 C 56.140 146.554,57.325 146.161,58.772 145.801 C 60.219 145.441,61.404 145.033,61.404 144.894 C 61.404 144.756,61.680 144.550,62.018 144.437 C 62.859 144.155,63.982 143.415,64.290 142.941 C 64.430 142.725,65.062 142.339,65.693 142.083 C 66.325 141.828,66.921 141.507,67.018 141.371 C 67.348 140.904,74.757 140.000,78.256 140.000 C 80.180 140.000,81.754 139.857,81.754 139.683 C 81.754 139.509,83.251 139.311,85.080 139.244 C 90.924 139.031,90.903 139.097,90.883 121.228 C 90.870 109.514,91.305 100.061,91.875 99.660 C 92.021 99.558,92.401 98.252,92.719 96.759 C 93.059 95.164,93.593 93.727,94.013 93.276 C 94.407 92.854,94.820 92.220,94.932 91.868 C 95.044 91.516,95.266 91.228,95.425 91.228 C 95.585 91.228,96.003 89.807,96.354 88.070 C 96.705 86.333,97.117 84.912,97.268 84.912 C 97.420 84.912,97.544 84.659,97.544 84.348 C 97.544 83.348,98.703 78.947,98.967 78.947 C 99.107 78.947,99.312 78.592,99.422 78.158 C 99.532 77.724,100.390 76.565,101.329 75.582 C 102.474 74.384,103.186 73.258,103.493 72.161 C 103.745 71.262,104.077 70.526,104.231 70.526 C 104.385 70.526,104.764 69.658,105.073 68.596 C 105.381 67.535,105.787 66.667,105.975 66.667 C 106.162 66.667,106.316 66.465,106.316 66.218 C 106.316 65.698,108.229 63.819,109.386 63.203 C 109.820 62.972,110.175 62.560,110.175 62.288 C 110.175 62.017,110.468 61.588,110.825 61.336 C 111.182 61.084,111.674 60.323,111.918 59.645 C 112.161 58.968,112.974 57.862,113.724 57.189 C 116.801 54.426,118.947 52.243,118.947 51.875 C 118.947 51.333,121.481 48.773,122.018 48.772 C 122.259 48.772,122.456 48.633,122.456 48.464 C 122.456 48.294,122.906 47.969,123.455 47.742 C 124.004 47.514,124.833 46.859,125.297 46.286 C 127.223 43.905,128.667 42.574,129.825 42.111 C 130.500 41.841,131.179 41.414,131.333 41.161 C 131.488 40.908,131.826 40.702,132.084 40.702 C 132.343 40.702,133.559 39.756,134.786 38.599 C 136.013 37.443,137.147 36.496,137.306 36.494 C 137.464 36.492,137.811 36.274,138.076 36.009 C 138.341 35.744,139.277 35.315,140.156 35.056 C 141.035 34.796,141.754 34.460,141.754 34.309 C 141.754 34.159,142.065 34.035,142.444 34.035 C 144.021 34.035,146.402 32.878,147.893 31.387 C 148.752 30.528,149.606 29.825,149.790 29.825 C 149.975 29.825,150.349 29.601,150.622 29.328 C 151.189 28.761,154.462 27.719,155.678 27.719 C 156.125 27.719,156.491 27.595,156.491 27.444 C 156.491 27.292,157.912 26.881,159.649 26.530 C 161.386 26.178,162.807 25.784,162.807 25.654 C 162.807 25.523,163.520 25.206,164.391 24.949 C 165.262 24.691,166.091 24.294,166.233 24.065 C 166.488 23.654,169.824 22.456,170.713 22.456 C 170.964 22.456,171.222 22.314,171.287 22.139 C 171.478 21.621,177.270 21.028,184.298 20.806 C 187.917 20.692,190.877 20.464,190.877 20.299 C 190.877 20.135,193.167 20.000,195.965 20.000 C 198.763 20.000,201.053 20.134,201.053 20.297 C 201.053 20.461,204.013 20.689,207.632 20.804 C 214.227 21.014,219.649 21.629,219.649 22.168 C 219.649 22.327,219.880 22.456,220.163 22.456 C 221.041 22.456,223.952 23.551,224.481 24.080 C 224.758 24.357,225.679 24.769,226.527 24.996 C 227.376 25.223,228.070 25.521,228.070 25.657 C 228.070 25.794,229.649 26.193,231.579 26.543 C 233.509 26.893,235.088 27.301,235.088 27.450 C 235.088 27.598,235.370 27.719,235.716 27.719 C 236.655 27.719,240.476 28.762,240.691 29.077 C 240.793 29.228,241.415 29.655,242.072 30.026 C 242.729 30.398,243.622 31.018,244.056 31.404 C 244.490 31.789,245.076 32.289,245.359 32.514 C 245.957 32.991,248.911 34.035,249.661 34.035 C 249.944 34.035,250.175 34.168,250.175 34.330 C 250.175 34.493,250.811 34.816,251.588 35.049 C 252.506 35.324,253.649 36.141,254.853 37.385 C 255.873 38.437,256.895 39.298,257.125 39.298 C 257.355 39.298,257.544 39.435,257.544 39.601 C 257.544 39.768,258.294 40.190,259.211 40.538 C 260.127 40.887,261.035 41.358,261.228 41.585 C 261.421 41.811,262.111 42.206,262.760 42.461 C 263.874 42.900,266.316 45.072,266.316 45.626 C 266.316 46.091,268.955 48.588,270.012 49.123 C 270.910 49.577,272.254 50.844,274.148 53.022 C 274.419 53.333,274.920 54.061,275.262 54.641 C 275.605 55.220,276.329 55.957,276.872 56.278 C 278.357 57.155,280.041 58.959,280.581 60.253 C 280.846 60.886,281.202 61.404,281.373 61.404 C 281.544 61.404,281.968 62.193,282.315 63.158 C 282.662 64.123,283.081 64.912,283.245 64.912 C 283.410 64.912,283.710 65.386,283.912 65.965 C 284.114 66.544,284.427 67.018,284.607 67.018 C 285.206 67.018,287.205 69.279,287.709 70.526 C 287.982 71.202,288.305 71.833,288.427 71.930 C 288.548 72.026,288.928 73.119,289.271 74.358 C 289.614 75.597,290.116 76.832,290.386 77.103 C 290.656 77.373,290.877 77.811,290.877 78.076 C 290.877 78.341,291.429 79.158,292.104 79.893 C 292.778 80.627,293.331 81.425,293.332 81.667 C 293.333 81.908,293.476 82.105,293.651 82.105 C 294.004 82.105,295.088 85.041,295.088 85.998 C 295.088 86.334,295.208 86.661,295.355 86.725 C 295.502 86.789,295.912 88.579,296.267 90.702 C 296.621 92.825,297.030 94.640,297.176 94.737 C 297.322 94.833,297.642 95.986,297.887 97.299 C 298.132 98.611,298.528 99.882,298.769 100.122 C 299.009 100.362,299.305 100.867,299.426 101.244 C 299.547 101.621,300.120 102.482,300.699 103.158 C 301.279 103.833,301.753 104.575,301.754 104.807 C 301.754 105.039,301.953 105.355,302.196 105.509 C 302.440 105.663,302.953 106.406,303.337 107.159 C 304.863 110.154,304.584 110.063,314.293 110.723 C 319.072 111.047,323.061 111.428,323.158 111.568 C 323.254 111.709,324.518 111.929,325.965 112.057 C 329.343 112.357,332.632 112.996,332.632 113.351 C 332.632 113.504,333.105 113.732,333.684 113.860 C 334.262 113.987,334.934 114.367,335.175 114.705 C 335.416 115.043,336.088 115.620,336.667 115.988 C 337.246 116.356,337.904 116.833,338.129 117.047 C 338.354 117.261,339.538 117.645,340.760 117.900 C 341.983 118.155,343.061 118.464,343.158 118.586 C 343.254 118.708,344.118 119.103,345.078 119.463 C 347.043 120.200,347.149 120.273,349.454 122.456 C 350.370 123.325,351.658 124.342,352.315 124.717 C 352.971 125.092,353.717 125.605,353.972 125.858 C 354.227 126.110,354.649 126.316,354.909 126.316 C 355.528 126.316,358.246 128.761,358.246 129.318 C 358.246 129.555,358.482 129.840,358.772 129.951 C 359.061 130.063,359.298 130.392,359.298 130.683 C 359.298 130.974,359.732 131.488,360.263 131.826 C 360.794 132.163,361.354 132.640,361.509 132.886 C 361.663 133.132,361.979 133.335,362.210 133.337 C 362.729 133.342,364.912 135.546,364.912 136.065 C 364.912 136.272,365.110 136.653,365.351 136.911 C 365.592 137.170,366.091 137.919,366.460 138.577 C 367.265 140.014,367.750 140.618,369.867 142.824 C 370.892 143.893,371.661 145.103,371.961 146.117 C 372.221 146.998,372.536 147.719,372.661 147.719 C 372.785 147.719,373.165 148.864,373.503 150.263 C 373.842 151.662,374.227 152.886,374.358 152.982 C 374.490 153.079,374.879 153.908,375.222 154.825 C 375.566 155.741,375.995 156.491,376.175 156.491 C 376.355 156.491,376.776 157.083,377.111 157.807 C 377.446 158.531,377.833 159.208,377.972 159.312 C 378.398 159.633,379.298 164.498,379.298 166.485 C 379.298 167.518,379.460 168.417,379.658 168.483 C 380.160 168.650,380.166 187.839,379.665 188.006 C 379.463 188.074,379.296 189.023,379.292 190.117 C 379.286 192.261,378.431 196.844,377.978 197.169 C 377.825 197.279,377.408 198.030,377.052 198.839 C 376.695 199.648,376.217 200.381,375.989 200.468 C 375.762 200.556,375.362 201.276,375.100 202.068 C 374.838 202.860,374.522 203.509,374.397 203.509 C 374.273 203.509,373.877 204.654,373.518 206.053 C 373.159 207.452,372.773 208.675,372.659 208.772 C 372.545 208.868,372.232 209.578,371.962 210.349 C 371.692 211.119,370.785 212.398,369.946 213.191 C 369.107 213.983,368.421 214.783,368.421 214.969 C 368.421 215.154,368.096 215.656,367.698 216.082 C 367.300 216.509,366.745 217.408,366.465 218.078 C 366.185 218.749,365.836 219.298,365.689 219.298 C 365.543 219.298,365.142 219.820,364.799 220.457 C 364.456 221.094,363.386 222.318,362.421 223.176 C 361.457 224.035,359.126 226.245,357.241 228.088 C 355.356 229.932,353.279 231.662,352.624 231.933 C 351.969 232.204,351.167 232.693,350.840 233.019 C 350.514 233.346,349.728 233.727,349.095 233.866 C 348.367 234.026,347.356 234.749,346.351 235.831 C 345.475 236.773,344.624 237.544,344.460 237.544 C 344.295 237.544,343.928 237.776,343.645 238.059 C 343.361 238.343,342.188 238.769,341.038 239.007 C 339.888 239.244,338.947 239.548,338.947 239.682 C 338.947 239.815,337.803 240.202,336.404 240.542 C 335.004 240.882,333.781 241.276,333.684 241.418 C 333.588 241.559,332.917 241.922,332.193 242.223 C 331.469 242.525,330.877 242.912,330.877 243.083 C 330.877 243.254,329.969 243.696,328.860 244.064 C 327.750 244.433,326.763 244.835,326.667 244.959 C 326.266 245.473,321.165 246.021,315.000 246.211 C 311.382 246.323,308.421 246.542,308.421 246.699 C 308.421 246.856,296.776 247.031,282.544 247.088 C 251.437 247.214,254.397 246.613,254.397 252.807 C 254.397 257.006,254.431 257.121,255.930 257.895 C 258.421 259.181,324.561 258.499,324.561 257.187 C 324.561 257.047,325.195 256.830,325.970 256.707 C 326.744 256.583,327.682 256.178,328.053 255.807 C 328.424 255.436,329.566 254.846,330.592 254.496 C 331.617 254.146,332.535 253.757,332.632 253.631 C 332.728 253.505,334.544 253.114,336.667 252.762 C 338.789 252.410,340.605 252.039,340.702 251.937 C 340.798 251.835,341.785 251.450,342.895 251.082 C 344.004 250.714,344.912 250.291,344.912 250.142 C 344.912 249.993,345.268 249.764,345.702 249.633 C 346.136 249.501,346.921 248.977,347.446 248.469 C 347.971 247.960,348.712 247.277,349.092 246.951 C 349.809 246.335,352.623 245.263,353.521 245.263 C 353.804 245.263,354.035 245.105,354.035 244.912 C 354.035 244.719,354.277 244.561,354.574 244.561 C 355.546 244.561,358.195 242.486,358.234 241.694 C 358.260 241.157,360.354 239.404,361.686 238.803 C 362.473 238.448,363.200 237.941,363.302 237.675 C 363.403 237.410,363.680 237.193,363.916 237.193 C 364.675 237.193,372.579 228.815,373.499 227.036 C 373.804 226.447,374.202 225.965,374.383 225.965 C 374.710 225.965,376.452 224.295,377.622 222.860 C 377.955 222.453,378.496 221.295,378.826 220.288 C 379.477 218.297,379.763 217.876,382.051 215.543 C 383.127 214.444,383.734 213.428,384.117 212.082 C 384.415 211.033,384.780 210.175,384.929 210.175 C 385.077 210.175,385.473 208.636,385.809 206.754 C 386.145 204.873,386.522 203.254,386.648 203.158 C 386.773 203.061,387.170 201.996,387.529 200.789 C 387.888 199.583,388.303 198.596,388.451 198.596 C 388.775 198.596,389.825 196.567,389.825 195.940 C 389.825 195.697,389.991 195.442,390.194 195.374 C 390.701 195.205,391.141 193.075,391.428 189.402 C 391.561 187.704,391.807 186.316,391.975 186.316 C 392.143 186.316,392.281 182.763,392.281 178.421 C 392.281 173.392,392.153 170.526,391.930 170.526 C 391.737 170.526,391.573 169.697,391.567 168.684 C 391.550 166.226,390.649 161.269,390.190 161.116 C 389.989 161.049,389.825 160.795,389.825 160.551 C 389.825 159.986,388.770 157.853,388.214 157.291 C 387.980 157.055,387.586 156.068,387.337 155.098 C 387.088 154.127,386.783 153.333,386.659 153.333 C 386.535 153.333,386.144 151.754,385.789 149.825 C 385.435 147.895,385.014 146.316,384.854 146.316 C 384.693 146.316,384.561 146.003,384.561 145.621 C 384.561 144.758,383.522 142.105,383.184 142.105 C 382.671 142.105,380.418 139.795,380.190 139.035 C 380.059 138.601,379.837 138.246,379.695 138.246 C 379.553 138.246,379.153 137.456,378.806 136.491 C 378.459 135.526,378.065 134.737,377.930 134.737 C 377.795 134.737,377.482 134.176,377.234 133.491 C 376.986 132.805,375.652 131.090,374.269 129.680 C 371.076 126.424,370.274 125.398,369.801 123.963 C 369.591 123.327,369.285 122.807,369.121 122.807 C 368.956 122.807,368.611 122.610,368.353 122.368 C 368.095 122.127,367.255 121.615,366.486 121.230 C 365.717 120.845,364.881 120.253,364.629 119.914 C 364.377 119.575,364.008 119.298,363.809 119.298 C 363.610 119.298,362.468 118.311,361.270 117.105 C 360.073 115.899,358.468 114.596,357.705 114.211 C 356.941 113.825,356.158 113.329,355.965 113.109 C 355.772 112.889,354.982 112.510,354.211 112.266 C 353.439 112.022,352.601 111.531,352.349 111.174 C 352.096 110.818,351.658 110.526,351.375 110.526 C 351.092 110.526,350.715 110.145,350.538 109.679 C 350.361 109.213,349.891 108.729,349.494 108.603 C 349.097 108.477,348.772 108.258,348.772 108.117 C 348.772 107.800,346.935 107.139,345.175 106.824 C 344.452 106.695,343.860 106.472,343.860 106.329 C 343.860 106.186,342.636 105.784,341.140 105.436 C 339.645 105.087,338.342 104.702,338.246 104.579 C 338.149 104.457,337.391 104.138,336.562 103.871 C 335.732 103.604,334.943 103.216,334.807 103.008 C 334.456 102.470,332.450 101.404,331.788 101.404 C 331.480 101.404,331.228 101.262,331.228 101.089 C 331.228 100.702,325.641 99.647,323.596 99.648 C 322.776 99.649,322.105 99.514,322.105 99.349 C 322.105 99.183,320.827 98.942,319.264 98.811 C 315.360 98.486,312.994 97.933,312.155 97.151 C 311.765 96.788,311.316 96.491,311.156 96.491 C 310.997 96.491,310.592 95.899,310.257 95.175 C 309.923 94.452,309.516 93.763,309.354 93.644 C 309.192 93.525,308.808 91.867,308.501 89.960 C 308.194 88.052,307.853 86.412,307.743 86.316 C 307.634 86.219,307.271 85.072,306.938 83.766 C 306.345 81.444,306.174 81.112,304.737 79.495 C 303.762 78.398,302.807 76.667,302.807 75.998 C 302.807 75.691,302.681 75.439,302.526 75.439 C 302.372 75.439,301.951 74.254,301.590 72.807 C 301.230 71.360,300.838 70.175,300.720 70.175 C 300.601 70.175,300.285 69.425,300.016 68.509 C 299.521 66.818,298.077 64.912,297.291 64.912 C 297.054 64.912,296.615 64.439,296.316 63.860 C 296.016 63.281,295.639 62.807,295.478 62.807 C 295.316 62.807,294.904 61.917,294.562 60.830 C 293.905 58.740,293.893 58.723,290.877 55.478 C 289.816 54.336,288.789 53.180,288.596 52.910 C 287.949 52.002,287.366 51.057,287.126 50.526 C 286.995 50.237,286.602 49.794,286.251 49.542 C 285.901 49.289,285.614 48.935,285.614 48.754 C 285.614 48.573,283.799 46.648,281.581 44.476 C 275.357 38.380,273.269 36.491,272.754 36.491 C 272.494 36.491,272.281 36.337,272.281 36.149 C 272.281 35.961,271.771 35.544,271.147 35.221 C 270.524 34.899,269.034 33.645,267.836 32.436 C 266.638 31.226,265.334 30.134,264.937 30.008 C 264.540 29.882,264.016 29.586,263.774 29.350 C 263.532 29.114,262.588 28.639,261.677 28.295 C 259.945 27.641,258.192 26.229,257.793 25.167 C 257.665 24.825,257.280 24.439,256.938 24.310 C 256.596 24.180,256.131 23.892,255.906 23.670 C 255.681 23.448,254.536 23.062,253.362 22.813 C 252.189 22.564,251.228 22.242,251.228 22.098 C 251.228 21.954,250.044 21.558,248.596 21.217 C 247.149 20.876,245.965 20.487,245.965 20.354 C 245.965 20.220,245.412 19.813,244.737 19.449 C 244.061 19.085,243.509 18.579,243.509 18.323 C 243.509 18.067,243.035 17.693,242.456 17.491 C 241.877 17.289,241.404 17.008,241.404 16.865 C 241.404 16.723,240.101 16.313,238.509 15.955 C 236.917 15.597,235.535 15.212,235.439 15.099 C 235.342 14.987,233.526 14.607,231.404 14.255 C 229.281 13.903,227.465 13.503,227.368 13.365 C 227.272 13.227,226.285 12.916,225.175 12.672 C 224.066 12.429,222.960 12.038,222.719 11.802 C 222.131 11.228,220.486 10.608,218.772 10.315 C 218.000 10.182,217.288 9.952,217.190 9.803 C 216.578 8.871,190.365 8.068,182.807 8.750 " stroke="none" fill="#4c6581" fill-rule="evenodd">
		</path>
		<path id="path1" d="M199.421 135.485 C 199.006 135.694,198.374 136.427,198.017 137.113 C 197.194 138.695,195.363 140.567,194.316 140.898 C 193.872 141.039,193.302 141.446,193.050 141.805 C 192.798 142.163,192.382 142.456,192.126 142.456 C 191.870 142.456,191.568 142.732,191.455 143.070 C 191.207 143.807,190.572 144.798,189.737 145.749 C 189.399 146.133,189.123 146.579,189.123 146.739 C 189.123 146.898,188.531 147.303,187.807 147.637 C 187.083 147.972,186.285 148.522,186.033 148.860 C 185.781 149.197,185.365 149.474,185.109 149.474 C 184.853 149.474,184.550 149.750,184.437 150.088 C 184.190 150.825,183.554 151.815,182.719 152.766 C 182.382 153.151,182.105 153.596,182.105 153.756 C 182.105 153.916,181.513 154.320,180.789 154.655 C 180.066 154.989,179.267 155.539,179.015 155.877 C 178.763 156.215,178.347 156.491,178.091 156.491 C 177.835 156.491,177.533 156.768,177.420 157.105 C 177.172 157.842,176.537 158.833,175.702 159.784 C 175.364 160.168,175.088 160.614,175.088 160.774 C 175.088 160.933,174.496 161.338,173.772 161.672 C 173.048 162.007,172.250 162.557,171.998 162.895 C 171.745 163.232,171.330 163.509,171.074 163.509 C 170.818 163.509,170.515 163.785,170.402 164.123 C 170.155 164.860,169.519 165.850,168.684 166.801 C 168.346 167.186,168.070 167.631,168.070 167.791 C 168.070 167.951,167.478 168.355,166.754 168.690 C 166.031 169.024,165.232 169.575,164.980 169.912 C 164.728 170.250,164.312 170.526,164.056 170.526 C 163.800 170.526,163.498 170.803,163.384 171.140 C 163.137 171.877,162.502 172.868,161.667 173.819 C 161.329 174.204,161.053 174.649,161.053 174.809 C 161.053 174.968,160.461 175.373,159.737 175.707 C 159.013 176.042,158.215 176.592,157.963 176.930 C 157.710 177.268,157.295 177.544,157.039 177.544 C 156.783 177.544,156.480 177.820,156.367 178.158 C 156.119 178.895,155.484 179.885,154.649 180.836 C 154.311 181.221,154.035 181.667,154.035 181.826 C 154.035 181.986,153.443 182.390,152.719 182.725 C 151.996 183.060,151.197 183.610,150.945 183.947 C 150.693 184.285,150.277 184.561,150.021 184.561 C 149.765 184.561,149.463 184.838,149.349 185.175 C 148.757 186.938,145.302 190.843,144.294 190.889 C 142.851 190.954,142.280 192.373,142.162 196.190 L 142.043 200.021 143.093 201.095 L 144.143 202.169 148.015 202.049 L 151.888 201.930 152.961 200.726 C 153.552 200.064,154.037 199.354,154.039 199.147 C 154.044 198.677,156.267 196.491,156.740 196.491 C 156.933 196.491,157.516 196.096,158.037 195.614 C 158.558 195.132,159.133 194.737,159.316 194.737 C 159.499 194.737,159.649 194.506,159.649 194.223 C 159.649 193.940,159.965 193.540,160.351 193.333 C 160.737 193.127,161.053 192.742,161.053 192.478 C 161.053 191.863,163.156 189.474,163.698 189.474 C 163.923 189.474,164.534 189.079,165.055 188.596 C 165.575 188.114,166.151 187.719,166.334 187.719 C 166.517 187.719,166.667 187.488,166.667 187.205 C 166.667 186.923,166.982 186.522,167.368 186.316 C 167.754 186.109,168.070 185.724,168.070 185.460 C 168.070 184.845,170.174 182.456,170.715 182.456 C 170.941 182.456,171.552 182.061,172.072 181.579 C 172.593 181.096,173.168 180.702,173.351 180.702 C 173.534 180.702,173.684 180.470,173.684 180.188 C 173.684 179.905,174.000 179.505,174.386 179.298 C 174.772 179.092,175.088 178.707,175.088 178.443 C 175.088 177.828,177.191 175.439,177.733 175.439 C 177.958 175.439,178.569 175.044,179.090 174.561 C 179.610 174.079,180.186 173.684,180.369 173.684 C 180.552 173.684,180.702 173.453,180.702 173.170 C 180.702 172.888,181.018 172.487,181.404 172.281 C 181.789 172.074,182.105 171.689,182.105 171.425 C 182.105 170.810,184.209 168.421,184.750 168.421 C 184.976 168.421,185.587 168.026,186.107 167.544 C 186.628 167.061,187.203 166.667,187.386 166.667 C 187.570 166.667,187.719 166.435,187.719 166.153 C 187.719 165.870,188.035 165.470,188.421 165.263 C 188.807 165.057,189.123 164.672,189.123 164.407 C 189.123 163.776,191.233 161.404,191.794 161.404 C 192.034 161.404,192.479 161.155,192.782 160.852 C 193.085 160.549,193.333 160.470,193.333 160.677 C 193.333 160.883,193.531 161.058,193.772 161.064 C 195.343 161.106,196.842 163.921,196.842 166.831 C 196.842 167.898,197.000 168.772,197.193 168.772 C 197.426 168.772,197.544 199.357,197.544 259.825 L 197.544 350.877 203.860 350.877 L 210.175 350.877 210.198 260.263 C 210.219 170.774,210.288 164.534,211.260 163.345 C 212.529 161.793,214.386 160.173,214.386 160.617 C 214.386 160.779,214.938 161.111,215.614 161.356 C 216.289 161.600,216.999 162.093,217.190 162.451 C 217.382 162.810,217.738 163.320,217.980 163.584 C 218.622 164.284,219.289 165.349,219.525 166.053 C 219.638 166.390,219.940 166.667,220.196 166.667 C 220.452 166.667,220.868 166.943,221.120 167.281 C 221.373 167.618,222.171 168.168,222.895 168.503 C 223.618 168.838,224.211 169.242,224.211 169.402 C 224.211 169.562,224.487 170.007,224.825 170.392 C 225.660 171.343,226.295 172.333,226.542 173.070 C 226.656 173.408,226.958 173.684,227.214 173.684 C 227.470 173.684,227.886 173.961,228.138 174.298 C 228.390 174.636,229.189 175.186,229.912 175.521 C 230.636 175.855,231.228 176.260,231.228 176.419 C 231.228 176.579,231.504 177.024,231.842 177.409 C 232.677 178.360,233.312 179.351,233.560 180.088 C 233.673 180.425,233.976 180.702,234.232 180.702 C 234.488 180.702,234.903 180.978,235.156 181.316 C 235.408 181.654,236.206 182.204,236.930 182.538 C 237.654 182.873,238.246 183.277,238.246 183.437 C 238.246 183.597,238.522 184.042,238.860 184.427 C 239.695 185.378,240.330 186.368,240.577 187.105 C 240.691 187.443,240.993 187.719,241.249 187.719 C 241.505 187.719,241.921 187.996,242.173 188.333 C 242.425 188.671,243.224 189.221,243.947 189.556 C 244.671 189.890,245.263 190.295,245.263 190.454 C 245.263 190.614,245.539 191.060,245.877 191.444 C 246.712 192.395,247.348 193.386,247.595 194.123 C 247.708 194.461,248.011 194.737,248.267 194.737 C 248.523 194.737,248.938 195.030,249.191 195.388 C 249.443 195.747,250.012 196.154,250.456 196.295 C 251.503 196.625,253.334 198.498,254.156 200.077 C 255.377 202.424,262.555 203.171,264.431 201.146 C 265.761 199.711,265.598 192.607,264.211 191.547 C 263.728 191.179,263.143 190.719,262.910 190.526 C 262.676 190.333,262.347 190.175,262.178 190.175 C 261.705 190.175,259.298 187.375,259.298 186.826 C 259.298 186.559,258.982 186.171,258.596 185.965 C 258.211 185.758,257.895 185.358,257.895 185.075 C 257.895 184.793,257.745 184.561,257.562 184.561 C 257.379 184.561,256.803 184.167,256.283 183.684 C 255.762 183.202,255.151 182.807,254.926 182.807 C 254.384 182.807,252.281 180.418,252.281 179.803 C 252.281 179.539,251.965 179.154,251.579 178.947 C 251.193 178.741,250.877 178.341,250.877 178.058 C 250.877 177.775,250.727 177.544,250.544 177.544 C 250.361 177.544,249.786 177.149,249.265 176.667 C 248.745 176.184,248.134 175.789,247.908 175.789 C 247.367 175.789,245.263 173.400,245.263 172.786 C 245.263 172.521,244.947 172.136,244.561 171.930 C 244.175 171.723,243.860 171.323,243.860 171.040 C 243.860 170.758,243.710 170.526,243.527 170.526 C 243.344 170.526,242.768 170.132,242.248 169.649 C 241.727 169.167,241.116 168.772,240.891 168.772 C 240.349 168.772,238.246 166.383,238.246 165.768 C 238.246 165.504,237.930 165.119,237.544 164.912 C 237.158 164.706,236.842 164.305,236.842 164.023 C 236.842 163.740,236.692 163.509,236.509 163.509 C 236.326 163.509,235.751 163.114,235.230 162.632 C 234.709 162.149,234.099 161.754,233.873 161.754 C 233.332 161.754,231.228 159.365,231.228 158.750 C 231.228 158.486,230.912 158.101,230.526 157.895 C 230.140 157.688,229.825 157.288,229.825 157.005 C 229.825 156.723,229.675 156.491,229.492 156.491 C 229.309 156.491,228.733 156.096,228.212 155.614 C 227.692 155.132,227.081 154.737,226.855 154.737 C 226.314 154.737,224.211 152.348,224.211 151.733 C 224.211 151.469,223.895 151.084,223.509 150.877 C 223.123 150.671,222.807 150.270,222.807 149.988 C 222.807 149.705,222.657 149.474,222.474 149.474 C 222.291 149.474,221.715 149.079,221.195 148.596 C 220.674 148.114,220.064 147.719,219.838 147.719 C 219.296 147.719,217.193 145.330,217.193 144.715 C 217.193 144.451,216.877 144.066,216.491 143.860 C 216.105 143.653,215.789 143.253,215.789 142.970 C 215.789 142.687,215.640 142.456,215.457 142.456 C 215.274 142.456,214.698 142.061,214.177 141.579 C 213.657 141.096,213.057 140.700,212.844 140.698 C 212.371 140.693,210.175 138.480,210.175 138.008 C 210.175 137.822,209.692 137.129,209.102 136.467 L 208.028 135.263 204.102 135.184 C 201.811 135.138,199.861 135.263,199.421 135.485 " stroke="none" fill="#6c9ce4" fill-rule="evenodd">
		</path>

</g>
</svg>