<svg width="15px" height="15px" viewBox="3 3 18 18" version="1.1" xmlns="http://www.w3.org/2000/svg" xmlns:xlink="http://www.w3.org/1999/xlink">
	<g id="Voice-Call" stroke="none" stroke-width="1.5" fill="none" fill-rule="evenodd" stroke-linecap="round" stroke-linejoin="round">
	    <g id="Group" transform="translate(4.000000, 4.000000)" stroke="#000000" stroke-width="1.5">
	        <g id="phone">
	            <path d="M10.0266667,14.9266667 L10.0346667,14.9313333 C11.4933198,15.8599974 13.4013013,15.6507402 14.624,14.428 L15.14,13.912 C15.6198776,13.43152 15.6198776,12.6531467 15.14,12.1726667 L12.966,10 C12.48552,9.52012242 11.7071467,9.52012242 11.2266667,10 C10.9962036,10.230747 10.6834582,10.3604033 10.3573333,10.3604033 C10.0312085,10.3604033 9.71846304,10.230747 9.488,10 L6.00933333,6.52066667 C5.52945575,6.04018663 5.52945575,5.26181337 6.00933333,4.78133333 C6.24008037,4.55087029 6.3697366,4.23812483 6.3697366,3.912 C6.3697366,3.58587517 6.24008037,3.27312971 6.00933333,3.04266667 L3.836,0.866666667 C3.35551996,0.386789087 2.5771467,0.386789087 2.09666667,0.866666667 L1.58066667,1.38266667 C0.358189823,2.60542899 0.148692339,4.5130754 1.07666667,5.972 L1.082,5.98 C3.46427508,9.50654997 6.5006494,12.5436032 10.0266667,14.9266667 Z" id="Shape"></path>
	        </g>
	    </g>
	</g>
</svg>