<?xml version="1.0" encoding="UTF-8"?>
<svg width="48px" height="48px" viewBox="0 0 48 48" version="1.1" xmlns="http://www.w3.org/2000/svg" xmlns:xlink="http://www.w3.org/1999/xlink">
    <!-- Generator: Sketch 51.2 (57519) - http://www.bohemiancoding.com/sketch -->
    <title>Doc File</title>
    <desc>Created with Sketch.</desc>
    <defs></defs>
    <g id="Doc-File" stroke="none" stroke-width="1" fill="none" fill-rule="evenodd" stroke-linecap="round" stroke-linejoin="round">
        <g id="Group" transform="translate(9.000000, 9.000000)" stroke="#295396" stroke-width="1.5">
            <g id="office-file-doc-1">
                <path d="M6.996,30.9973333 L2.996,30.9973333 C1.8914305,30.9973333 0.996,30.1019028 0.996,28.9973333 L0.996,2.99733333 C0.996,1.89276383 1.8914305,0.997333333 2.996,0.997333333 L17.168,0.997333333 C17.6985249,0.997092966 18.2074087,1.20764902 18.5826667,1.58266667 L26.4106667,9.412 C26.7853577,9.78693119 26.9958868,10.2952704 26.996,10.8253333 L26.996,16.9973333" id="Shape"></path>
                <path d="M26.996,10.9973333 L18.996,10.9973333 C17.8914305,10.9973333 16.996,10.1019028 16.996,8.99733333 L16.996,0.997333333" id="Shape"></path>
                <path d="M10.996,30.9973333 C13.205139,30.9973333 14.996,29.2064723 14.996,26.9973333 L14.996,24.9973333 C14.996,22.7881943 13.205139,20.9973333 10.996,20.9973333 L10.996,30.9973333 Z" id="Shape"></path>
                <path d="M20.996,20.9973333 C19.8914305,20.9973333 18.996,21.8927638 18.996,22.9973333 L18.996,28.9973333 C18.996,30.1019028 19.8914305,30.9973333 20.996,30.9973333 C22.1005695,30.9973333 22.996,30.1019028 22.996,28.9973333 L22.996,22.9973333 C22.996,21.8927638 22.1005695,20.9973333 20.996,20.9973333 Z" id="Shape"></path>
                <path d="M30.996,20.9973333 C28.786861,20.9973333 26.996,22.7881943 26.996,24.9973333 L26.996,26.9973333 C26.996,29.2064723 28.786861,30.9973333 30.996,30.9973333" id="Shape"></path>
            </g>
        </g>
    </g>
</svg>