<?xml version="1.0" encoding="UTF-8"?>
<svg width="48px" height="48px" viewBox="0 0 48 48" version="1.1" xmlns="http://www.w3.org/2000/svg" xmlns:xlink="http://www.w3.org/1999/xlink">
    <!-- Generator: Sketch 51.2 (57519) - http://www.bohemiancoding.com/sketch -->
    <title>Mp3 File Copy</title>
    <desc>Created with Sketch.</desc>
    <defs></defs>
    <g id="Mp3-File-Copy" stroke="none" stroke-width="1" fill="none" fill-rule="evenodd" stroke-linecap="round" stroke-linejoin="round">
        <g id="Video-Movies-TV-/-Video-Files-/-video-file-mpg" transform="translate(9.000000, 9.000000)" stroke="#000000">
            <g id="Group">
                <g id="video-file-mpg" stroke-width="1.5">
                    <path d="M3.875,30.03125 L2.90625,30.03125 C1.8361983,30.03125 0.96875,29.1638017 0.96875,28.09375 L0.96875,2.90625 C0.96875,1.8361983 1.8361983,0.96875 2.90625,0.96875 L16.635375,0.96875 C17.1488735,0.968859638 17.6413271,1.17280976 18.0045417,1.53579167 L25.5892083,9.12045833 C25.9521902,9.48367292 26.1561404,9.97612652 26.15625,10.489625 L26.15625,16.46875" id="Shape"></path>
                    <path d="M26.15625,10.65625 L18.40625,10.65625 C17.3361983,10.65625 16.46875,9.7888017 16.46875,8.71875 L16.46875,0.96875" id="Shape"></path>
                    <polyline id="Shape" points="14.53125 30.03125 14.53125 20.34375 11.625 25.1875 8.71875 20.34375 8.71875 30.03125"></polyline>
                    <path d="M18.40625,30.03125 L18.40625,20.34375" id="Shape"></path>
                    <path d="M18.40625,20.34375 L19.375,20.34375 C20.9800776,20.34375 22.28125,21.6449224 22.28125,23.25 C22.28125,24.8550776 20.9800776,26.15625 19.375,26.15625 L18.40625,26.15625" id="Shape"></path>
                    <path d="M29.0625,26.15625 L30.03125,26.15625 L30.03125,28.09375 C30.03125,29.1638017 29.1638017,30.03125 28.09375,30.03125 C27.0236983,30.03125 26.15625,29.1638017 26.15625,28.09375 L26.15625,22.28125 C26.15625,21.2111983 27.0236983,20.34375 28.09375,20.34375 L30.03125,20.34375" id="Shape"></path>
                </g>
            </g>
        </g>
    </g>
</svg>