<?xml version="1.0" encoding="UTF-8"?>
<svg width="24px" height="24px" viewBox="0 0 24 24" version="1.1" xmlns="http://www.w3.org/2000/svg" xmlns:xlink="http://www.w3.org/1999/xlink">
    <!-- Generator: Sketch 51.2 (57519) - http://www.bohemiancoding.com/sketch -->
    <title>Not Checked</title>
    <desc>Created with Sketch.</desc>
    <defs>
        <path d="M5,4.16666667 C4.53976271,4.16666667 4.16666667,4.53976271 4.16666667,5 L4.16666667,15 C4.16666667,15.4602373 4.53976271,15.8333333 5,15.8333333 L15,15.8333333 C15.4602373,15.8333333 15.8333333,15.4602373 15.8333333,15 L15.8333333,5 C15.8333333,4.53976271 15.4602373,4.16666667 15,4.16666667 L5,4.16666667 Z M5,2.5 L15,2.5 C16.3807119,2.5 17.5,3.61928813 17.5,5 L17.5,15 C17.5,16.3807119 16.3807119,17.5 15,17.5 L5,17.5 C3.61928813,17.5 2.5,16.3807119 2.5,15 L2.5,5 C2.5,3.61928813 3.61928813,2.5 5,2.5 Z" id="path-1"></path>
    </defs>
    <g id="Not-Checked" stroke="none" stroke-width="1" fill="none" fill-rule="evenodd">
        <g id="Input-/-Checkbox-/-Unchecked" transform="translate(2.000000, 2.000000)">
            <mask id="mask-2" fill="white">
                <use xlink:href="#path-1"></use>
            </mask>
            <use id="Mask" fill="#DBDBDB" fill-rule="nonzero" xlink:href="#path-1"></use>
        </g>
    </g>
</svg>