<?xml version="1.0" encoding="UTF-8"?>
<svg width="48px" height="48px" viewBox="0 0 48 48" version="1.1" xmlns="http://www.w3.org/2000/svg" xmlns:xlink="http://www.w3.org/1999/xlink">
    <!-- Generator: Sketch 51.2 (57519) - http://www.bohemiancoding.com/sketch -->
    <title>PDF File</title>
    <desc>Created with Sketch.</desc>
    <defs></defs>
    <g id="PDF-File" stroke="none" stroke-width="1" fill="none" fill-rule="evenodd" stroke-linecap="round" stroke-linejoin="round">
        <g id="Group" transform="translate(9.000000, 9.000000)" stroke-width="1.5">
            <g id="office-file-pdf-1">
                <path d="M6.99466667,30.9973333 L2.99466667,30.9973333 C1.89009717,30.9973333 0.994666667,30.1019028 0.994666667,28.9973333 L0.994666667,2.99733333 C0.994666667,1.89276383 1.89009717,0.997333333 2.99466667,0.997333333 L17.1666667,0.997333333 C17.6973831,0.997446541 18.2062938,1.20849339 18.5813333,1.584 L26.4093333,9.412 C26.784351,9.78725796 26.994907,10.2961417 26.9946667,10.8266667 L26.9946667,16.9973333" id="Shape" stroke="#FC0E1B"></path>
                <path d="M26.9946667,10.9973333 L18.9946667,10.9973333 C17.8900972,10.9973333 16.9946667,10.1019028 16.9946667,8.99733333 L16.9946667,0.997333333" id="Shape" stroke="#FC0E1B"></path>
                <path d="M10.9946667,30.9973333 L10.9946667,20.9973333" id="Shape" stroke="#E03C31"></path>
                <path d="M10.9946667,20.9973333 L12,20.9973333 C13.6568542,20.9973334 14.9999999,22.3404791 14.9999999,23.9973333 C14.9999999,25.6541875 13.6568542,26.9973333 12,26.9973333 L11,26.9973333" id="Shape" stroke="#FC0E1B"></path>
                <path d="M18.9946667,30.9973333 C21.2038057,30.9973333 22.9946667,29.2064723 22.9946667,26.9973333 L22.9946667,24.9973333 C22.9946667,22.7881943 21.2038057,20.9973333 18.9946667,20.9973333 L18.9946667,30.9973333 Z" id="Shape" stroke="#FC0E1B"></path>
                <path d="M26.9946667,30.9973333 L26.9946667,22.9973333 C26.9946667,21.8927638 27.8900972,20.9973333 28.9946667,20.9973333 L30.9946667,20.9973333" id="Shape" stroke="#FC0E1B"></path>
                <path d="M26.9946667,26.9973333 L29.9946667,26.9973333" id="Shape" stroke="#FC0E1B"></path>
            </g>
        </g>
    </g>
</svg>