<?xml version="1.0" encoding="UTF-8"?>
<svg width="24px" height="24px" viewBox="0 0 24 24" version="1.1" xmlns="http://www.w3.org/2000/svg" xmlns:xlink="http://www.w3.org/1999/xlink">
    <!-- Generator: Sketch 51.2 (57519) - http://www.bohemiancoding.com/sketch -->
    <title>Pinned</title>
    <desc>Created with Sketch.</desc>
    <defs></defs>
    <g id="Pinned" stroke="none" stroke-width="1" fill="none" fill-rule="evenodd" stroke-linecap="round" stroke-linejoin="round">
        <g id="Group" transform="translate(12.000000, 12.000000) rotate(-45.000000) translate(-12.000000, -12.000000) translate(4.000000, 4.000000)" stroke="#000000" stroke-width="1.5">
            <g id="pin">
                <path d="M3.29933333,5.85533333 C3.03202396,6.01216943 2.85254046,6.28408318 2.81339275,6.59152313 C2.77424505,6.89896308 2.879858,7.20717943 3.09933333,7.426 L8.57466667,12.9013333 C8.79348724,13.1208087 9.10170359,13.2264216 9.40914354,13.1872739 C9.71658348,13.1481262 9.98849723,12.9686427 10.1453333,12.7013333 C10.7938778,11.585574 10.9872898,10.2627315 10.6853333,9.008 L15.038,6.238 C15.2939261,6.07522487 15.462145,5.8050928 15.4953264,5.50360829 C15.5285078,5.20212379 15.4230655,4.90187251 15.2086667,4.68733333 L11.3133333,0.792 C11.0988872,0.577536951 10.7986996,0.471983522 10.4972213,0.505034669 C10.195743,0.538085816 9.92555443,0.706169735 9.76266667,0.962 L6.99266667,5.31533333 C5.73793516,5.01337691 4.4150927,5.2067889 3.29933333,5.85533333 Z" id="Shape" fill="#000000"></path>
                <path d="M5.83533333,10.164 L0.5,15.4993333" id="Shape"></path>
            </g>
        </g>
    </g>
</svg>