<?xml version="1.0" encoding="UTF-8"?>
<svg width="48px" height="48px" viewBox="0 0 48 48" version="1.1" xmlns="http://www.w3.org/2000/svg" xmlns:xlink="http://www.w3.org/1999/xlink">
    <!-- Generator: Sketch 51.2 (57519) - http://www.bohemiancoding.com/sketch -->
    <title>Powerpoint File</title>
    <desc>Created with Sketch.</desc>
    <defs></defs>
    <g id="Powerpoint-File" stroke="none" stroke-width="1" fill="none" fill-rule="evenodd" stroke-linecap="round" stroke-linejoin="round">
        <g id="Group" transform="translate(9.000000, 9.000000)" stroke="#C94636" stroke-width="1.5">
            <g id="office-file-ppt-1">
                <path d="M6.77995833,30.0286667 L2.90495833,30.0286667 C1.83490663,30.0286667 0.967458333,29.1612184 0.967458333,28.0911667 L0.967458333,2.90366667 C0.967458333,1.83361496 1.83490663,0.966166667 2.90495833,0.966166667 L16.6340833,0.966166667 C17.1480294,0.965933811 17.6410105,1.16990999 18.0045417,1.53320833 L25.5879167,9.117875 C25.9508986,9.48108959 26.1548487,9.97354319 26.1549583,10.4870417 L26.1549583,16.4661667" id="Shape"></path>
                <path d="M26.1549583,10.6536667 L18.4049583,10.6536667 C17.3349066,10.6536667 16.4674583,9.78621837 16.4674583,8.71616667 L16.4674583,0.966166667" id="Shape"></path>
                <path d="M10.6549583,30.0286667 L10.6549583,20.3411667" id="Shape"></path>
                <path d="M10.6549583,20.3411667 L11.625,20.3411667 C13.2300775,20.3411667 14.5312499,21.6423392 14.5312499,23.2474167 C14.5312499,24.8524942 13.2300775,26.1536666 11.625,26.1536667 L10.65625,26.1536667" id="Shape"></path>
                <path d="M18.4049583,30.0286667 L18.4049583,20.3411667" id="Shape"></path>
                <path d="M18.4049583,20.3411667 L19.375,20.3411667 C20.9800775,20.3411667 22.2812499,21.6423392 22.2812499,23.2474167 C22.2812499,24.8524942 20.9800775,26.1536666 19.375,26.1536667 L18.40625,26.1536667" id="Shape"></path>
                <path d="M28.0924583,30.0286667 L28.0924583,20.3411667" id="Shape"></path>
                <path d="M26.1549583,20.3411667 L30.0299583,20.3411667" id="Shape"></path>
            </g>
        </g>
    </g>
</svg>