<?xml version="1.0" encoding="UTF-8"?>
<svg width="48px" height="48px" viewBox="0 0 48 48" version="1.1" xmlns="http://www.w3.org/2000/svg" xmlns:xlink="http://www.w3.org/1999/xlink">
    <!-- Generator: Sketch 51.2 (57519) - http://www.bohemiancoding.com/sketch -->
    <title>RAR File</title>
    <desc>Created with Sketch.</desc>
    <defs></defs>
    <g id="RAR-File" stroke="none" stroke-width="1" fill="none" fill-rule="evenodd" stroke-linecap="round" stroke-linejoin="round">
        <g id="Work-Office-Companies-/-Office-Files-/-file-rar" transform="translate(9.000000, 9.000000)" stroke="#000000">
            <g id="Group">
                <g id="file-rar" stroke-width="1.5">
                    <path d="M10.6536667,30.0286667 L10.6536667,20.3411667" id="Shape"></path>
                    <path d="M10.6536667,20.3411667 L12.1067917,20.3411667 C13.4443563,20.3411667 14.5286667,21.425477 14.5286667,22.7630417 C14.5286667,24.1006063 13.4443563,25.1849167 12.1067917,25.1849167 L10.6536667,25.1849167" id="Shape"></path>
                    <path d="M14.5286667,30.0286667 L11.6224167,25.1849167" id="Shape"></path>
                    <path d="M26.1536667,30.0286667 L26.1536667,20.3411667" id="Shape"></path>
                    <path d="M26.1536667,20.3411667 L27.6067917,20.3411667 C28.9443563,20.3411667 30.0286667,21.425477 30.0286667,22.7630417 C30.0286667,24.1006063 28.9443563,25.1849167 27.6067917,25.1849167 L26.1536667,25.1849167" id="Shape"></path>
                    <path d="M30.0286667,30.0286667 L27.1224167,25.1849167" id="Shape"></path>
                    <path d="M18.4036667,30.0286667 L18.4036667,22.2786667 C18.4036667,21.208615 19.271115,20.3411667 20.3411667,20.3411667 C21.4112184,20.3411667 22.2786667,21.208615 22.2786667,22.2786667 L22.2786667,30.0286667" id="Shape"></path>
                    <path d="M18.4036667,26.1536667 L22.2786667,26.1536667" id="Shape"></path>
                    <path d="M6.77866667,30.0286667 L2.90366667,30.0286667 C1.83361496,30.0286667 0.966166667,29.1612184 0.966166667,28.0911667 L0.966166667,2.90366667 C0.966166667,1.83361496 1.83361496,0.966166667 2.90366667,0.966166667 L16.6327917,0.966166667 C17.1462901,0.966276305 17.6387437,1.17022643 18.0019583,1.53320833 L25.586625,9.117875 C25.9496069,9.48108959 26.153557,9.97354319 26.1536667,10.4870417 L26.1536667,16.4661667" id="Shape"></path>
                    <path d="M26.1536667,10.6536667 L18.4036667,10.6536667 C17.333615,10.6536667 16.4661667,9.78621837 16.4661667,8.71616667 L16.4661667,0.966166667" id="Shape"></path>
                </g>
            </g>
        </g>
    </g>
</svg>