<?xml version="1.0" encoding="UTF-8"?>
<svg width="24px" height="24px" viewBox="0 0 24 24" version="1.1" xmlns="http://www.w3.org/2000/svg" xmlns:xlink="http://www.w3.org/1999/xlink">
    <!-- Generator: Sketch 51.2 (57519) - http://www.bohemiancoding.com/sketch -->
    <title>Search Icon - Dropdown Menu</title>
    <desc>Created with Sketch.</desc>
    <defs>
        <path d="M9.16666667,13.3333333 C11.4678531,13.3333333 13.3333333,11.4678531 13.3333333,9.16666667 C13.3333333,6.86548021 11.4678531,5 9.16666667,5 C6.86548021,5 5,6.86548021 5,9.16666667 C5,11.4678531 6.86548021,13.3333333 9.16666667,13.3333333 Z M13.8386539,12.6601426 L15.5892557,14.4107443 C15.9146926,14.7361813 15.9146926,15.2638187 15.5892557,15.5892557 C15.2638187,15.9146926 14.7361813,15.9146926 14.4107443,15.5892557 L12.6601426,13.8386539 C11.6863255,14.567997 10.4769459,15 9.16666667,15 C5.94500563,15 3.33333333,12.3883277 3.33333333,9.16666667 C3.33333333,5.94500563 5.94500563,3.33333333 9.16666667,3.33333333 C12.3883277,3.33333333 15,5.94500563 15,9.16666667 C15,10.4769459 14.567997,11.6863255 13.8386539,12.6601426 Z" id="path-1"></path>
    </defs>
    <g id="Search-Icon---Dropdown-Menu" stroke="none" stroke-width="1" fill="none" fill-rule="evenodd">
        <g id="Icon-/-Line-/-Search" transform="translate(2.000000, 2.000000)">
            <mask id="mask-2" fill="white">
                <use xlink:href="#path-1"></use>
            </mask>
            <use id="Mask" fill-opacity="0" fill="#051033" fill-rule="nonzero" xlink:href="#path-1"></use>
            <g id="Color-/-Grey-/-Grey-800" mask="url(#mask-2)" fill="#98A1B1" fill-rule="evenodd">
                <polygon id="Grey-/-Grey-800" points="0 0 20 0 20 20 0 20"></polygon>
            </g>
        </g>
    </g>
</svg>