<?xml version="1.0" encoding="UTF-8"?>
<svg width="24px" height="24px" viewBox="0 0 24 24" version="1.1" xmlns="http://www.w3.org/2000/svg" xmlns:xlink="http://www.w3.org/1999/xlink">
    <!-- Generator: Sketch 51.2 (57519) - http://www.bohemiancoding.com/sketch -->
    <title>Settings</title>
    <desc>Created with Sketch.</desc>
    <defs></defs>
    <g id="Settings" stroke="none" stroke-width="1" fill="none" fill-rule="evenodd" stroke-linecap="round" stroke-linejoin="round" stroke-opacity="0.88">
        <g id="cog" transform="translate(4.000000, 4.000000)" stroke="#121212" stroke-width="1.5">
            <path d="M7.03066667,1.62533333 C7.27807282,1.89996465 7.63036212,2.05676006 8,2.05676006 C8.36963788,2.05676006 8.72192718,1.89996465 8.96933333,1.62533333 L9.6,0.933333333 C9.970375,0.523428099 10.5586007,0.390905693 11.0689689,0.602386718 C11.5793371,0.813867743 11.9014323,1.32359935 11.8733333,1.87533333 L11.826,2.80866667 C11.8074869,3.17684828 11.9455199,3.53569148 12.2060019,3.79655453 C12.466484,4.05741759 12.8251251,4.19597493 13.1933333,4.178 L14.1266667,4.13066667 C14.6780281,4.10348397 15.1869331,4.42590285 15.397871,4.93604356 C15.608809,5.44618427 15.476217,6.03385554 15.0666667,6.404 L14.372,7.03066667 C14.0977191,7.27841228 13.9411897,7.63072827 13.9411897,8.00033333 C13.9411897,8.3699384 14.0977191,8.72225438 14.372,8.97 L15.0666667,9.59666667 C15.4765719,9.96704167 15.6090943,10.5552673 15.3976133,11.0656356 C15.1861323,11.5760038 14.6764007,11.898099 14.1246667,11.87 L13.1913333,11.8226667 C12.8223175,11.8036847 12.462545,11.9419878 12.2012664,12.2032664 C11.9399878,12.464545 11.8016847,12.8243175 11.8206667,13.1933333 L11.868,14.1266667 C11.8924508,14.6754865 11.5708365,15.1809339 11.0633347,15.3912741 C10.5558329,15.6016144 9.97095683,15.471873 9.6,15.0666667 L8.97266667,14.3726667 C8.72504179,14.0984178 8.3728337,13.9418974 8.00333333,13.9418974 C7.63383296,13.9418974 7.28162488,14.0984178 7.034,14.3726667 L6.404,15.0666667 C6.03359899,15.4738048 5.44769641,15.6050137 4.93902952,15.3947368 C4.43036262,15.18446 4.10813123,14.6778393 4.13333333,14.128 L4.18133333,13.1946667 C4.20031528,12.8256509 4.06201216,12.4658783 3.80073359,12.2045997 C3.53945503,11.9433212 3.17968247,11.8050181 2.81066667,11.824 L1.87733333,11.8713333 C1.325821,11.9001194 0.815873464,11.5787168 0.6039217,11.0687453 C0.391969936,10.5587738 0.523885371,9.97060337 0.933333333,9.6 L1.62733333,8.97333333 C1.90161423,8.72558772 2.05814366,8.37327173 2.05814366,8.00366667 C2.05814366,7.6340616 1.90161423,7.28174562 1.62733333,7.034 L0.933333333,6.404 C0.5252588,6.03383215 0.393538784,5.44730601 0.60414819,4.93819626 C0.814757596,4.42908651 1.32234209,4.10702897 1.87266667,4.13333333 L2.806,4.18066667 C3.17572929,4.20010546 3.53632045,4.06162167 3.79799245,3.79969537 C4.05966445,3.53776908 4.19779792,3.17704357 4.178,2.80733333 L4.13333333,1.87333333 C4.1075262,1.32324623 4.42954324,0.816079145 4.93835927,0.605441854 C5.44717531,0.394804563 6.03344373,0.525963869 6.404,0.933333333 L7.03066667,1.62533333 Z" id="Shape"></path>
            <circle id="Oval" cx="8" cy="8.00066667" r="3"></circle>
        </g>
    </g>
</svg>