<?xml version="1.0" encoding="UTF-8"?>
<svg width="48px" height="48px" viewBox="0 0 48 48" version="1.1" xmlns="http://www.w3.org/2000/svg" xmlns:xlink="http://www.w3.org/1999/xlink">
    <!-- Generator: Sketch 51.2 (57519) - http://www.bohemiancoding.com/sketch -->
    <title>TXT File Copy</title>
    <desc>Created with Sketch.</desc>
    <defs></defs>
    <g id="TXT-File-Copy" stroke="none" stroke-width="1" fill="none" fill-rule="evenodd" stroke-linecap="round" stroke-linejoin="round">
        <g id="Video-Movies-TV-/-Video-Files-/-video-file-mp4" transform="translate(9.000000, 9.000000)" stroke="#000000">
            <g id="Group">
                <g id="video-file-mp4" stroke-width="1.5">
                    <path d="M2.80116,30.03125 C1.77391037,30.03125 0.94116,29.1638017 0.94116,28.09375 L0.94116,2.90625 C0.94116,1.8361983 1.77391037,0.96875 2.80116,0.96875 L15.98112,0.96875 C16.4745082,0.968517144 16.9477701,1.17249332 17.29676,1.53579167 L24.5768,9.12045833 C24.9252626,9.48367292 25.1210547,9.97612652 25.12116,10.489625 L25.12116,16.46875" id="Shape"></path>
                    <path d="M25.12116,10.65625 L17.68116,10.65625 C16.6539104,10.65625 15.82116,9.7888017 15.82116,8.71875 L15.82116,0.96875" id="Shape"></path>
                    <polyline id="Shape" points="12.10116 30.03125 12.10116 20.34375 9.31116 25.1875 6.52116 20.34375 6.52116 30.03125"></polyline>
                    <path d="M15.82116,30.03125 L15.82116,20.34375" id="Shape"></path>
                    <path d="M15.82116,20.34375 L16.75116,20.34375 C18.2920345,20.34375 19.54116,21.6449224 19.54116,23.25 C19.54116,24.8550776 18.2920345,26.15625 16.75116,26.15625 L15.82116,26.15625" id="Shape"></path>
                    <path d="M28.81884,30.03125 L28.81884,28.09375" id="Shape"></path>
                    <path d="M28.81884,28.09375 L28.81884,20.363125 C25.8884238,21.8688815 23.8237001,24.7408721 23.26116,28.09375 L28.81884,28.09375" id="Shape"></path>
                </g>
            </g>
        </g>
    </g>
</svg>