<?xml version="1.0" encoding="UTF-8"?>
<svg width="48px" height="48px" viewBox="0 0 48 48" version="1.1" xmlns="http://www.w3.org/2000/svg" xmlns:xlink="http://www.w3.org/1999/xlink">
    <!-- Generator: Sketch 51.2 (57519) - http://www.bohemiancoding.com/sketch -->
    <title>Zip File Copy</title>
    <desc>Created with Sketch.</desc>
    <defs></defs>
    <g id="Zip-File-Copy" stroke="none" stroke-width="1" fill="none" fill-rule="evenodd" stroke-linecap="round" stroke-linejoin="round">
        <g id="Video-Movies-TV-/-Video-Files-/-video-file-mov" transform="translate(9.000000, 9.000000)" stroke="#000000">
            <g id="Group">
                <g id="video-file-mov" stroke-width="1.5">
                    <path d="M4.84375,30.03125 L2.90625,30.03125 C1.8361983,30.03125 0.96875,29.1638017 0.96875,28.09375 L0.96875,2.90625 C0.96875,1.8361983 1.8361983,0.96875 2.90625,0.96875 L16.635375,0.96875 C17.1488735,0.968859638 17.6413271,1.17280976 18.0045417,1.53579167 L25.5892083,9.12045833 C25.9521902,9.48367292 26.1561404,9.97612652 26.15625,10.489625 L26.15625,16.46875" id="Shape"></path>
                    <path d="M26.15625,10.65625 L18.40625,10.65625 C17.3361983,10.65625 16.46875,9.7888017 16.46875,8.71875 L16.46875,0.96875" id="Shape"></path>
                    <polyline id="Shape" points="14.53125 30.03125 14.53125 20.34375 11.625 25.1875 8.71875 20.34375 8.71875 30.03125"></polyline>
                    <path d="M20.34375,20.34375 C19.2736983,20.34375 18.40625,21.2111983 18.40625,22.28125 L18.40625,28.09375 C18.40625,29.1638017 19.2736983,30.03125 20.34375,30.03125 C21.4138017,30.03125 22.28125,29.1638017 22.28125,28.09375 L22.28125,22.28125 C22.28125,21.2111983 21.4138017,20.34375 20.34375,20.34375 Z" id="Shape"></path>
                    <path d="M26.15625,20.34375 L26.15625,23.6375 C26.15635,25.9149519 26.8304955,28.1414298 28.09375,30.0364167 C29.3570045,28.1414298 30.03115,25.9149519 30.03125,23.6375 L30.03125,20.34375" id="Shape"></path>
                </g>
            </g>
        </g>
    </g>
</svg>