<?xml version="1.0" encoding="UTF-8"?>
<svg width="48px" height="48px" viewBox="0 0 48 48" version="1.1" xmlns="http://www.w3.org/2000/svg" xmlns:xlink="http://www.w3.org/1999/xlink">
    <!-- Generator: Sketch 51.2 (57519) - http://www.bohemiancoding.com/sketch -->
    <title>Zip File</title>
    <desc>Created with Sketch.</desc>
    <defs></defs>
    <g id="Zip-File" stroke="none" stroke-width="1" fill="none" fill-rule="evenodd" stroke-linecap="round" stroke-linejoin="round">
        <g id="Group" transform="translate(9.000000, 9.000000)" stroke="#000000" stroke-width="1.5">
            <g id="zip-file-1">
                <path d="M10,30 L2,30 C0.8954305,30 2.96059473e-16,29.1045695 0,28 L0,2 C-1.48029737e-16,0.8954305 0.8954305,2.96059473e-16 2,0 L16.172,0 C16.7020629,0.000113175105 17.2104021,0.210642336 17.5853333,0.585333333 L25.4146667,8.41466667 C25.7893577,8.78959785 25.9998868,9.29793706 26,9.828 L26,16" id="Shape"></path>
                <path d="M26,10 L18,10 C16.8954305,10 16,9.1045695 16,8 L16,0" id="Shape"></path>
                <path d="M14,19.9999895 L16.5226667,20 C16.8551602,19.99848 17.1666638,20.1623206 17.3538056,20.4371518 C17.5409475,20.711983 17.579249,21.0618561 17.456,21.3706667 L14.552,28.628 C14.4288827,28.9369626 14.4672056,29.2868931 14.6542752,29.5618854 C14.8413447,29.8368777 15.1527454,30.0010409 15.4853333,30 L18,30.0000049" id="Shape" stroke-opacity="0.88"></path>
                <path d="M22,30 L22,20" id="Shape" stroke-opacity="0.88"></path>
                <path d="M26,30 L26,20" id="Shape" stroke-opacity="0.88"></path>
                <path d="M26,20 L27,20 C28.6568542,20 30,21.3431458 30,23 C30,24.6568542 28.6568542,26 27,26 L26,26" id="Shape" stroke-opacity="0.88"></path>
            </g>
        </g>
    </g>
</svg>