<?xml version="1.0" encoding="UTF-8"?>
<svg width="24px" height="24px" viewBox="0 0 24 24" version="1.1" xmlns="http://www.w3.org/2000/svg" xmlns:xlink="http://www.w3.org/1999/xlink">
    <!-- Generator: Sketch 49.2 (51160) - http://www.bohemiancoding.com/sketch -->
    <title>Attach Files</title>
    <desc>Created with Sketch.</desc>
    <defs></defs>
    <g id="Attach-Files" stroke="none" stroke-width="1" fill="none" fill-rule="evenodd">
        <g id="attach-interface-symbol-of-rotated-paperclip" transform="translate(2.000000, 2.000000)" fill="#4A4A4A" fill-rule="nonzero">
            <path d="M19.56761,7.27977659 L9.07849243,17.3312341 C7.34051332,18.9968525 4.52242832,18.9968525 2.78444922,17.3312341 C1.04647011,15.6656483 1.04647011,12.9655471 2.78444922,11.2999287 L12.2251603,2.25370507 C13.3840601,1.14352129 15.2620423,1.14352129 16.4209758,2.25370507 C17.5798755,3.36385621 17.5798755,5.1644242 16.4209758,6.27457534 L6.98023098,15.3208316 C6.40115166,15.8762989 5.46178999,15.8762989 4.88196954,15.3208316 C4.30289021,14.7661151 4.30289021,13.8658638 4.88196954,13.3103965 L13.2735668,5.26934145 L12.2244192,4.26414021 L3.83359678,12.3058808 C2.67469701,13.4160645 2.67469701,15.2165999 3.83359678,16.326751 C4.99249655,17.4369348 6.87047878,17.4369348 8.02937855,16.326751 L17.4701233,7.28049475 C19.2081024,5.61490896 19.2081024,2.91480777 17.4701233,1.24918934 C15.7321105,-0.416396447 12.9140592,-0.416396447 11.1760801,1.24918934 L1.21076156,10.7980299 L1.24687401,10.8329915 C-0.563329996,13.0633154 -0.404192663,16.2874805 1.73533534,18.3371535 C3.87486334,20.3868592 7.23810488,20.5403504 9.56621264,18.8047763 L9.60232509,18.8397705 L20.6160164,8.285696 L19.56761,7.27977659 Z" id="Shape"></path>
        </g>
    </g>
</svg>