<?xml version="1.0" encoding="UTF-8"?>
<svg width="24px" height="24px" viewBox="0 0 24 24" version="1.1" xmlns="http://www.w3.org/2000/svg" xmlns:xlink="http://www.w3.org/1999/xlink">
    <!-- Generator: Sketch 49.2 (51160) - http://www.bohemiancoding.com/sketch -->
    <title>Flagged</title>
    <desc>Created with Sketch.</desc>
    <defs></defs>
    <g id="Flagged" stroke="none" stroke-width="1" fill="none" fill-rule="evenodd">
        <path d="M17.9397543,13.2420333 L15.7459392,9.66666667 L17.9605998,6.057 C18.0048105,5.9849 18.0071012,5.89436667 17.9667847,5.82016667 C17.9262391,5.74596667 17.8497293,5.7 17.7663474,5.7 L7.45814244,5.7 L7.45814244,5.23333333 C7.45814244,5.1043 7.35574761,5 7.22907122,5 C7.10239484,5 7,5.1043 7,5.23333333 L7,5.93333333 L7,12.7 L7,13.4 L7,18.7666667 C7,18.8957 7.10239484,19 7.22907122,19 C7.35574761,19 7.45814244,18.8957 7.45814244,18.7666667 L7.45814244,13.6333333 L17.7663474,13.6333333 C17.8976052,13.6333333 18,13.5290333 18,13.4 C18,13.3391 17.9770929,13.2838 17.9397543,13.2420333 Z" id="Shape-Copy-5" stroke="#CD327F" stroke-width="2" fill="#CD327F" fill-rule="nonzero"></path>
    </g>
</svg>