<?xml version="1.0" encoding="UTF-8"?>
<svg width="24px" height="24px" viewBox="0 0 24 24" version="1.1" xmlns="http://www.w3.org/2000/svg" xmlns:xlink="http://www.w3.org/1999/xlink">
    <!-- Generator: Sketch 49.2 (51160) - http://www.bohemiancoding.com/sketch -->
    <title>Not Flagged</title>
    <desc>Created with Sketch.</desc>
    <defs></defs>
    <g id="Not-Flagged" stroke="none" stroke-width="1" fill="none" fill-rule="evenodd" opacity="0.3">
        <path d="M16.9397543,13.2420333 L14.7459392,9.66666667 L16.9605998,6.057 C17.0048105,5.9849 17.0071012,5.89436667 16.9667847,5.82016667 C16.9262391,5.74596667 16.8497293,5.7 16.7663474,5.7 L6.45814244,5.7 L6.45814244,5.23333333 C6.45814244,5.1043 6.35574761,5 6.22907122,5 C6.10239484,5 6,5.1043 6,5.23333333 L6,5.93333333 L6,12.7 L6,13.4 L6,18.7666667 C6,18.8957 6.10239484,19 6.22907122,19 C6.35574761,19 6.45814244,18.8957 6.45814244,18.7666667 L6.45814244,13.6333333 L16.7663474,13.6333333 C16.8976052,13.6333333 17,13.5290333 17,13.4 C17,13.3391 16.9770929,13.2838 16.9397543,13.2420333 Z" id="Shape-Copy-6" stroke="#90A4AE" stroke-width="2" fill-rule="nonzero"></path>
    </g>
</svg>