<?xml version="1.0" encoding="UTF-8"?>
<svg width="20px" height="20px" viewBox="0 0 20 20" version="1.1" xmlns="http://www.w3.org/2000/svg" xmlns:xlink="http://www.w3.org/1999/xlink">
    <!-- Generator: Sketch 50.2 (55047) - http://www.bohemiancoding.com/sketch -->
    <title>Delete Choice</title>
    <desc>Created with Sketch.</desc>
    <defs></defs>
    <g id="Delete-Choice" stroke="none" stroke-width="1" fill="none" fill-rule="evenodd">
        <g id="Group-6" transform="translate(3.000000, 2.000000)" fill="#9B9B9B" fill-rule="nonzero">
            <path d="M11.291881,14.3620476 C11.2773285,14.711307 10.9755575,15 10.6249936,15 L2.62500638,15 C2.2744063,15 1.9726449,14.7106684 1.95811903,14.3620476 L1.4996749,3.35938855 C1.49105293,3.1524613 1.31631578,2.99170313 1.10938855,3.0003251 C0.9024613,3.00894708 0.741703125,3.18368423 0.7503251,3.39061145 L1.20876923,14.3932705 C1.24003625,15.1436789 1.87240515,15.75 2.62500638,15.75 L10.6249936,15.75 C11.3771889,15.75 12.0099217,15.1446882 12.0412308,14.3932705 L12.4996749,3.39061145 C12.5082969,3.18368423 12.3475387,3.00894708 12.1406115,3.0003251 C11.9336842,2.99170313 11.7589471,3.1524613 11.7503251,3.35938855 L11.291881,14.3620476 Z M6.375,13.375 C6.375,13.5821068 6.54289323,13.75 6.75,13.75 C6.95710677,13.75 7.125,13.5821068 7.125,13.375 L7.125,4.875 C7.125,4.66789323 6.95710677,4.5 6.75,4.5 C6.54289323,4.5 6.375,4.66789323 6.375,4.875 L6.375,13.375 Z M3.7501621,13.3860246 C3.75625083,13.5930419 3.92900737,13.7559266 4.13602465,13.7498379 C4.3430419,13.7437492 4.50592665,13.5709926 4.4998379,13.3639753 L4.2498379,4.86397535 C4.24374917,4.6569581 4.07099263,4.49407335 3.86397535,4.5001621 C3.6569581,4.50625082 3.49407335,4.67900737 3.5001621,4.88602465 L3.7501621,13.3860246 Z M8.7501621,13.3639753 C8.74407335,13.5709926 8.9069581,13.7437492 9.11397535,13.7498379 C9.32099263,13.7559266 9.49374917,13.5930419 9.4998379,13.3860246 L9.7498379,4.88602465 C9.75592665,4.67900737 9.5930419,4.50625082 9.38602465,4.5001621 C9.17900737,4.49407335 9.00625083,4.6569581 9.0001621,4.86397535 L8.7501621,13.3639753 Z M9.42888735,1.375 L12.875,1.375 C13.0821068,1.375 13.25,1.54289323 13.25,1.75 C13.25,1.95710677 13.0821068,2.125 12.875,2.125 L0.375,2.125 C0.167893225,2.125 0,1.95710677 0,1.75 C0,1.54289323 0.167893225,1.375 0.375,1.375 L3.82111265,1.375 L4.0443865,0.816815375 C4.22952397,0.35397165 4.75244435,0 5.25,0 L8,0 C8.49894783,0 9.01999025,0.35275725 9.2056135,0.816815375 L9.42888735,1.375 Z M8.62111265,1.375 L8.509256,1.09535837 C8.43753108,0.916046075 8.1922716,0.75 8,0.75 L5.25,0.75 C5.0590984,0.75 4.81197492,0.9172811 4.740744,1.09535837 L4.62888735,1.375 L8.62111265,1.375 Z" id="Shape"></path>
        </g>
    </g>
</svg>