<?xml version="1.0" encoding="UTF-8"?>
<svg width="21px" height="21px" viewBox="0 0 21 21" version="1.1" xmlns="http://www.w3.org/2000/svg" xmlns:xlink="http://www.w3.org/1999/xlink">
    <!-- Generator: Sketch 50.2 (55047) - http://www.bohemiancoding.com/sketch -->
    <title>Filters</title>
    <desc>Created with Sketch.</desc>
    <defs></defs>
    <g id="Filters" stroke="none" stroke-width="1" fill="none" fill-rule="evenodd" stroke-linecap="round" stroke-linejoin="round">
        <path d="M4.125,4.83333333 C5.825,4.83333333 6.25,5.25833333 6.25,6.95833333 C6.25,8.65833333 5.825,9.08333333 4.125,9.08333333 C2.425,9.08333333 2,8.65833333 2,6.95833333 C2,5.25833333 2.425,4.83333333 4.125,4.83333333 Z M4.125,2 L4.125,4.83333333 L4.125,2 Z M4.125,9.08333333 L4.125,19 L4.125,9.08333333 Z M10.5,11.9166667 C12.2,11.9166667 12.625,12.3416667 12.625,14.0416667 C12.625,15.7416667 12.2,16.1666667 10.5,16.1666667 C8.8,16.1666667 8.375,15.7416667 8.375,14.0416667 C8.375,12.3416667 8.8,11.9166667 10.5,11.9166667 Z M10.5,11.9166667 L10.5,2 L10.5,11.9166667 Z M10.5,16.1666667 L10.5,19 L10.5,16.1666667 Z M16.875,6.25 C18.575,6.25 19,6.675 19,8.375 C19,10.075 18.575,10.5 16.875,10.5 C15.175,10.5 14.75,10.075 14.75,8.375 C14.75,6.675 15.175,6.25 16.875,6.25 Z M16.875,6.25 L16.875,2 L16.875,6.25 Z M16.875,10.5 L16.875,19 L16.875,10.5 Z" id="icon-/-filter-/-24" stroke="#78909C" stroke-width="1.5"></path>
    </g>
</svg>