<?xml version="1.0" encoding="UTF-8"?>
<svg width="38px" height="38px" viewBox="0 0 38 38" version="1.1" xmlns="http://www.w3.org/2000/svg" xmlns:xlink="http://www.w3.org/1999/xlink">
    <!-- Generator: Sketch 49.2 (51160) - http://www.bohemiancoding.com/sketch -->
    <title>icon / contact / new-group_72px_0000</title>
    <desc>Created with Sketch.</desc>
    <defs></defs>
    <g id="icon-/-contact-/-new-group_72px_000" stroke="none" stroke-width="1" fill="none" fill-rule="evenodd" stroke-linecap="round" stroke-linejoin="round">
        <path d="M24.9997333,33.7065333 L36.9997333,33.7052 L36.9117333,32.2358667 C36.3810667,30.8812 35.3637333,29.7852 34.0690667,29.1705333 L29.6264,27.0625333 C29.2744,26.8692 28.7397333,26.4478667 28.5704,26.0372 C28.4197333,25.6745333 28.5970667,24.3718667 28.9997333,24.3718667 L36.1610667,24.3718667 C37.1344,24.3638667 37.3997333,23.0958667 36.8584,22.2705333 C35.4330667,20.1025333 33.1090667,16.0518667 33.0250667,11.6398667 C33.0250667,11.6398667 32.0890667,4.43053333 24.9997333,4.37186667 C17.9104,4.43053333 16.9744,11.6398667 16.9744,11.6398667 C16.8904,16.0518667 14.5664,20.1025333 13.1410667,22.2705333 C12.5997333,23.0958667 12.8664,24.3638667 13.8384,24.3718667 L20.9997333,24.3718667 C21.4024,24.3718667 21.5797333,25.6745333 21.4290667,26.0372 C21.2597333,26.4478667 20.7264,26.8692 20.3730667,27.0625333 L15.9304,29.1705333 C14.6357333,29.7852 13.6184,30.8812 13.0890667,32.2358667 L12.9997333,33.7052 L24.9997333,33.7065333 Z M15.9306667,29.1706667 L20.3733333,27.0626667 C20.7266667,26.868 21.26,26.448 21.4293333,26.0373333 C21.58,25.6733333 21.4026667,24.3706667 21,24.3706667 L15.016,24.3706667 L13.8386667,24.3706667 C12.8666667,24.364 12.5986667,23.0946667 13.1413333,22.2706667 C14.5666667,20.1026667 16.8906667,16.052 16.9746667,11.64 C16.9746667,11.64 17.2693333,9.37866667 18.7733333,7.37866667 L18.1773333,7.03733333 C17.9373333,5.63866667 16.8746667,3.01066667 12.4853333,3 C6.13866667,3.01466667 6.33333333,7.03733333 6.33333333,7.03733333 L6.33333333,10.0946667 C6.01466667,10.3853333 5,11.128 5,11.5933333 L5,15.0373333 C5,15.5946667 9,19.4146667 9,19.4146667 L9,21.3466667 C9,22.052 8.81066667,22.7 8.19866667,23.0373333 L3.18666667,25.5813333 C1.83866667,26.324 1,27.752 1,29.3026667 L1,31.0373333 L12.3066667,31.0373333 L12.844,31.0373333 L13.7533333,31.0373333 C14.312,30.244 15.048,29.5893333 15.9306667,29.1706667 Z" stroke="#FFFFFF" stroke-width="1.5"></path>
    </g>
</svg>