<?xml version="1.0" encoding="UTF-8"?>
<svg width="24px" height="24px" viewBox="0 0 24 24" version="1.1" xmlns="http://www.w3.org/2000/svg" xmlns:xlink="http://www.w3.org/1999/xlink">
    <!-- Generator: Sketch 50.2 (55047) - http://www.bohemiancoding.com/sketch -->
    <title>navbar / contacts_24px_007AFF</title>
    <desc>Created with Sketch.</desc>
    <defs></defs>
    <g id="navbar-/-contacts_24px_007AFF" stroke="none" stroke-width="1" fill="none" fill-rule="evenodd">
        <rect id="bounds" x="0" y="0" width="24" height="24"></rect>
        <path d="M19.6521739,7.2173913 C18.5286957,6.09391304 18.5113043,3.14173913 19.6521739,2 L6.36608696,2 C5.16521739,2 4,2.97304348 4,4.17391304 L4,5.04347826 C4,6.24434783 5.16521739,7.2173913 6.36608696,7.2173913 L19.6521739,7.2173913 L19.6521739,22 L6.80086957,22 L5.93130435,22 C4.73043478,22 4,21.0278261 4,19.826087 L4,5.04347826 M6.17391304,4.60869565 L18.7826087,4.60869565 M13.5652174,12.4347826 C13.5652174,13.3956522 12.7869565,14.173913 11.826087,14.173913 C10.8652174,14.173913 10.0869565,13.3956522 10.0869565,12.4347826 C10.0869565,11.473913 10.8652174,10.6956522 11.826087,10.6956522 C12.7869565,10.6956522 13.5652174,11.473913 13.5652174,12.4347826 L13.5652174,12.4347826 Z M15.3043478,18.5217391 C15.3043478,16.6008696 14.3982609,14.173913 11.826087,14.173913 C9.25391304,14.173913 8.34782609,16.6008696 8.34782609,18.5217391 L15.3043478,18.5217391 L15.3043478,18.5217391 Z" id="Stroke-784" stroke="#007AFF" stroke-width="1.25" stroke-linecap="round" stroke-linejoin="round"></path>
    </g>
</svg>