<?xml version="1.0" encoding="UTF-8"?>
<svg width="24px" height="24px" viewBox="0 0 24 24" version="1.1" xmlns="http://www.w3.org/2000/svg" xmlns:xlink="http://www.w3.org/1999/xlink">
    <g id="navbar-/-files_24px_000" stroke="none" stroke-width="1" fill="none" fill-rule="evenodd">
        <rect id="bounds" x="0" y="0" width="24" height="24"></rect>
        <path d="M18.3374256,22 L6.66257441,22 C5.74385233,22 5,21.2519624 5,20.3292112 L5,3.67078882 C5,2.74752185 5.74937467,2 6.67377517,2 L15,2 L20,7 L20,20.3374256 C20,21.2561477 19.2556401,22 18.3374256,22 Z M14.375,2 L14.375,5.3350724 C14.375,6.25144948 15.123784,7 16.0474558,7 L20,7 M9.16666667,10.3333333 L15.8333333,10.3333333 M9.16666667,13.5277778 L15.8333333,13.5277778 M9.16666667,16.7222222 L13.3333333,16.7222222" id="file" stroke="#000000" stroke-width="1.25" stroke-linecap="round" stroke-linejoin="round"></path>
    </g>
</svg>