<?xml version="1.0" encoding="UTF-8"?>
<svg width="28px" height="28px" viewBox="0 0 28 28" version="1.1" xmlns="http://www.w3.org/2000/svg" xmlns:xlink="http://www.w3.org/1999/xlink">
    <!-- Generator: Sketch 49.2 (51160) - http://www.bohemiancoding.com/sketch -->
    <title>icon / search bar / filter_28px_400</title>
    <desc>Created with Sketch.</desc>
    <defs></defs>
    <g id="icon-/-search-bar-/-filter_28px_400" stroke="none" stroke-width="1" fill="none" fill-rule="evenodd" stroke-linecap="round" stroke-linejoin="round">
        <path d="M5,6 C7.4,6 8,6.6 8,9 C8,11.4 7.4,12 5,12 C2.6,12 2,11.4 2,9 C2,6.6 2.6,6 5,6 Z M5,2 L5,6 L5,2 Z M5,12 L5,26 L5,12 Z M14,16 C16.4,16 17,16.6 17,19 C17,21.4 16.4,22 14,22 C11.6,22 11,21.4 11,19 C11,16.6 11.6,16 14,16 Z M14,16 L14,2 L14,16 Z M14,22 L14,26 L14,22 Z M23,8 C25.4,8 26,8.6 26,11 C26,13.4 25.4,14 23,14 C20.6,14 20,13.4 20,11 C20,8.6 20.6,8 23,8 Z M23,8 L23,2 L23,8 Z M23,14 L23,26 L23,14 Z" stroke="#78909C" stroke-width="1.5"></path>
    </g>
</svg>