<?xml version="1.0" encoding="UTF-8"?>
<svg width="24px" height="24px" viewBox="0 0 24 24" version="1.1" xmlns="http://www.w3.org/2000/svg" xmlns:xlink="http://www.w3.org/1999/xlink">
    <!-- Generator: Sketch 50.2 (55047) - http://www.bohemiancoding.com/sketch -->
    <title>navbar / polls_24px_007AFF</title>
    <desc>Created with Sketch.</desc>
    <defs></defs>
    <g id="navbar-/-polls_24px_007AFF" stroke="none" stroke-width="1" fill="none" fill-rule="evenodd">
        <rect id="bounds" x="0" y="0" width="24" height="24"></rect>
        <path d="M17,20.3333333 L19.5,22 L22,20.3333333 L22,8.66666667 L19.5,7 L17,8.66666667 L17,20.3333333 L17,20.3333333 Z M17,9.5 L19.5,11.1666667 L22,9.5 M19.5,11.1666667 L19.5,22 M2,20.3333333 L4.5,22 L7,20.3333333 L7,12 L4.5,10.3333333 L2,12 L2,20.3333333 L2,20.3333333 Z M2,12.8333333 L4.5,14.5 L7,12.8333333 M4.5,14.5 L4.5,22 M9.5,20.2608696 L12,22 L14.5,20.2608696 L14.5,3.73913043 L12,2 L9.5,3.73913043 L9.5,20.2608696 L9.5,20.2608696 Z M9.5,4.5 L12,6.16666667 L14.5,4.5 M12,6.16666667 L12,22" id="Stroke-83" stroke="#007AFF" stroke-width="1.25" stroke-linecap="round" stroke-linejoin="round"></path>
    </g>
</svg>