<?xml version="1.0" encoding="UTF-8"?>
<svg width="28px" height="28px" viewBox="0 0 28 28" version="1.1" xmlns="http://www.w3.org/2000/svg" xmlns:xlink="http://www.w3.org/1999/xlink">
    <g id="navbar-/-recent-chats_28px_000" stroke="none" stroke-width="1" fill="none" fill-rule="evenodd">
        <rect id="Rectangle" x="2" y="2" width="24" height="24"></rect>
        <path d="M25.9343946,4.28791472 L24.6030457,7.69565217 L24.6030457,14.2695652 C24.6030457,15.3069001 23.7817045,16.1478261 22.7685288,16.1478261 L20.1533629,16.1478261 M8.09239419,11.4521739 L8.09239419,4.87826087 C8.09239419,3.84092604 8.91373535,3 9.92691102,3 L25.0827416,3 C25.5893294,3 26,3.42046302 26,3.93913043 C26,4.05860607 25.9777334,4.17698438 25.9343946,4.28791472 M20.0167536,7.69565217 L12.6786863,7.69565217 L20.0167536,7.69565217 Z M2.06560536,12.7400886 C2.02226663,12.6291583 2,12.51078 2,12.3913043 C2,11.8726369 2.41067058,11.4521739 2.91725842,11.4521739 L18.073089,11.4521739 C19.0862646,11.4521739 19.9076058,12.2930999 19.9076058,13.3304348 L19.9076058,22.7217391 C19.9076058,23.759074 19.0862646,24.6 18.073089,24.6 L5.23147116,24.6 C4.21829549,24.6 3.39695433,23.759074 3.39695433,22.7217391 L3.39695433,16.1478261 L2.06560536,12.7400886 Z M7.98324641,16.1478261 L15.3213137,16.1478261 L7.98324641,16.1478261 Z M7.98324641,19.9043478 L15.3213137,19.9043478 L7.98324641,19.9043478 Z" id="icon-/-message-bubble-/-incoming-thread_20px" stroke-opacity="0.865885417" stroke="#000000" stroke-width="1.5" stroke-linecap="round" stroke-linejoin="round" transform="translate(14.000000, 13.800000) scale(-1, 1) translate(-14.000000, -13.800000) "></path>
    </g>
</svg>