<?xml version="1.0" encoding="UTF-8"?>
<svg width="20px" height="20px" viewBox="0 0 20 20" version="1.1" xmlns="http://www.w3.org/2000/svg" xmlns:xlink="http://www.w3.org/1999/xlink">
    <!-- Generator: Sketch 49.2 (51160) - http://www.bohemiancoding.com/sketch -->
    <title>icon / search bar / view-tile_20px_800</title>
    <desc>Created with Sketch.</desc>
    <defs></defs>
    <g id="icon-/-search-bar-/-view-tile_20px_800" stroke="none" stroke-width="1" fill="none" fill-rule="evenodd">
        <path d="M1.2819426,-5.17920154e-17 L7.7180574,5.17920154e-17 C8.16381677,-3.00926524e-17 8.32545989,0.0464128056 8.48842285,0.133566352 C8.65138581,0.220719898 8.7792801,0.348614185 8.86643365,0.511577148 C8.95358719,0.674540111 9,0.83618323 9,1.2819426 L9,6.7180574 C9,7.16381677 8.95358719,7.32545989 8.86643365,7.48842285 C8.7792801,7.65138581 8.65138581,7.7792801 8.48842285,7.86643365 C8.32545989,7.95358719 8.16381677,8 7.7180574,8 L1.2819426,8 C0.83618323,8 0.674540111,7.95358719 0.511577148,7.86643365 C0.348614185,7.7792801 0.220719898,7.65138581 0.133566352,7.48842285 C0.0464128056,7.32545989 2.00617683e-17,7.16381677 -3.45280103e-17,6.7180574 L3.45280103e-17,1.2819426 C-2.00617683e-17,0.83618323 0.0464128056,0.674540111 0.133566352,0.511577148 C0.220719898,0.348614185 0.348614185,0.220719898 0.511577148,0.133566352 C0.674540111,0.0464128056 0.83618323,3.00926524e-17 1.2819426,-5.17920154e-17 Z M1.2819426,10 L7.7180574,10 C8.16381677,10 8.32545989,10.0464128 8.48842285,10.1335664 C8.65138581,10.2207199 8.7792801,10.3486142 8.86643365,10.5115771 C8.95358719,10.6745401 9,10.8361832 9,11.2819426 L9,18.7180574 C9,19.1638168 8.95358719,19.3254599 8.86643365,19.4884229 C8.7792801,19.6513858 8.65138581,19.7792801 8.48842285,19.8664336 C8.32545989,19.9535872 8.16381677,20 7.7180574,20 L1.2819426,20 C0.83618323,20 0.674540111,19.9535872 0.511577148,19.8664336 C0.348614185,19.7792801 0.220719898,19.6513858 0.133566352,19.4884229 C0.0464128056,19.3254599 2.00617683e-17,19.1638168 -3.45280103e-17,18.7180574 L3.45280103e-17,11.2819426 C-2.00617683e-17,10.8361832 0.0464128056,10.6745401 0.133566352,10.5115771 C0.220719898,10.3486142 0.348614185,10.2207199 0.511577148,10.1335664 C0.674540111,10.0464128 0.83618323,10 1.2819426,10 Z M12.2819426,-5.17920154e-17 L18.7180574,-5.92302871e-17 C19.1638168,-1.41114955e-16 19.3254599,0.0464128056 19.4884229,0.133566352 C19.6513858,0.220719898 19.7792801,0.348614185 19.8664336,0.511577148 C19.9535872,0.674540111 20,0.83618323 20,1.2819426 L20,10.7180574 C20,11.1638168 19.9535872,11.3254599 19.8664336,11.4884229 C19.7792801,11.6513858 19.6513858,11.7792801 19.4884229,11.8664336 C19.3254599,11.9535872 19.1638168,12 18.7180574,12 L12.2819426,12 C11.8361832,12 11.6745401,11.9535872 11.5115771,11.8664336 C11.3486142,11.7792801 11.2207199,11.6513858 11.1335664,11.4884229 C11.0464128,11.3254599 11,11.1638168 11,10.7180574 L11,1.2819426 C11,0.83618323 11.0464128,0.674540111 11.1335664,0.511577148 C11.2207199,0.348614185 11.3486142,0.220719898 11.5115771,0.133566352 C11.6745401,0.0464128056 11.8361832,3.00926524e-17 12.2819426,-5.17920154e-17 Z M12.2819426,14 L18.7180574,14 C19.1638168,14 19.3254599,14.0464128 19.4884229,14.1335664 C19.6513858,14.2207199 19.7792801,14.3486142 19.8664336,14.5115771 C19.9535872,14.6745401 20,14.8361832 20,15.2819426 L20,18.7180574 C20,19.1638168 19.9535872,19.3254599 19.8664336,19.4884229 C19.7792801,19.6513858 19.6513858,19.7792801 19.4884229,19.8664336 C19.3254599,19.9535872 19.1638168,20 18.7180574,20 L12.2819426,20 C11.8361832,20 11.6745401,19.9535872 11.5115771,19.8664336 C11.3486142,19.7792801 11.2207199,19.6513858 11.1335664,19.4884229 C11.0464128,19.3254599 11,19.1638168 11,18.7180574 L11,15.2819426 C11,14.8361832 11.0464128,14.6745401 11.1335664,14.5115771 C11.2207199,14.3486142 11.3486142,14.2207199 11.5115771,14.1335664 C11.6745401,14.0464128 11.8361832,14 12.2819426,14 Z" fill="#37474F"></path>
    </g>
</svg>