<?xml version="1.0" encoding="UTF-8"?>
<svg width="48px" height="48px" viewBox="0 0 48 48" version="1.1" xmlns="http://www.w3.org/2000/svg" xmlns:xlink="http://www.w3.org/1999/xlink">
    <!-- Generator: Sketch 50.2 (55047) - http://www.bohemiancoding.com/sketch -->
    <title>call / add-contact_48px</title>
    <desc>Created with Sketch.</desc>
    <defs></defs>
    <g id="call-/-add-contact_48px" stroke="none" stroke-width="1" fill="none" fill-rule="evenodd">
        <g id="add" stroke="#FFFFFF">
            <path d="M24,0.531 C5.0932632,0.531 0.531,5.0932632 0.531,24 C0.531,42.9067368 5.0932632,47.469 24,47.469 C42.9067368,47.469 47.469,42.9067368 47.469,24 C47.469,5.0932632 42.9067368,0.531 24,0.531 Z" id="mask-squircle" stroke-width="1.062" opacity="0.869084821"></path>
            <g id="Group-5" transform="translate(14.000000, 14.000000)" fill="#FFFFFF" stroke-linecap="round" stroke-linejoin="round" stroke-width="0.25">
                <path d="M12.8181635,9.7758933 C11.0945063,10.9392255 9.96093083,12.9104744 9.96093083,15.1461462 C9.96093083,16.4262049 10.3325466,17.6195788 10.973764,18.6242539 L10.8768379,19.089249 L0,19.0909091 C0,17.1403162 0.498023715,15.4387352 2.39051383,14.9656126 L5.81027668,14.1106719 L6.21782609,12.4829644 C5.30727273,11.6288538 4.70217391,10.3754941 4.60339921,9.13043478 L4.46810277,9.13043478 C4.04976285,9.13043478 3.69699605,8.81833992 3.64470356,8.40332016 L3.43719368,6.74324111 C3.37494071,6.24770751 3.76173913,5.81027668 4.26059289,5.81027668 L4.346917,5.81027668 C4.346917,5.81027668 4.15019763,4.25644269 4.15019763,3.73517787 C4.15019763,2.25687747 4.54114625,0.863241107 7.88537549,0.830039526 C8.9943083,0.0365217391 10.2036759,0 10.899249,0 C12.2156917,0 13.1561265,0.42 13.6956522,1.24505929 C14.2326877,2.06513834 14.2326877,2.74909091 13.6956522,3.3201581 L13.2806324,3.73517787 L13.1801976,5.81193676 C13.6749012,5.81774704 14.0558893,6.25102767 13.9944664,6.74324111 L13.7869565,8.40332016 C13.734664,8.81833992 13.3818972,9.13043478 12.9635573,9.13043478 L12.9228854,9.13043478 C12.9129249,9.25909091 12.893004,9.38774704 12.872253,9.51640316 L12.8181635,9.7758933 Z" id="Combined-Shape"></path>
                <path d="M15.6149266,14.3258337 L14.6091522,14.3258337 C14.1561061,14.3258337 13.7888397,14.6931001 13.7888397,15.1461462 C13.7888397,15.5991923 14.1561061,15.9664587 14.6091522,15.9664587 L15.6149266,15.9664587 L15.6149266,16.9722332 C15.6149266,17.4252793 15.982193,17.7925457 16.4352391,17.7925457 C16.8882852,17.7925457 17.2555516,17.4252793 17.2555516,16.9722332 L17.2555516,15.9664587 L18.2613261,15.9664587 C18.7143722,15.9664587 19.0816386,15.5991923 19.0816386,15.1461462 C19.0816386,14.6931001 18.7143722,14.3258337 18.2613261,14.3258337 L17.2555516,14.3258337 L17.2555516,13.3200593 C17.2555516,12.8670132 16.8882852,12.4997468 16.4352391,12.4997468 C15.982193,12.4997468 15.6149266,12.8670132 15.6149266,13.3200593 L15.6149266,14.3258337 Z M11.8700217,15.1461462 C11.8700217,12.6252332 13.9143261,10.5809288 16.4352391,10.5809288 C18.9561522,10.5809288 21.0004565,12.6252332 21.0004565,15.1461462 C21.0004565,17.6670593 18.9561522,19.7113636 16.4352391,19.7113636 C13.9143261,19.7113636 11.8700217,17.6670593 11.8700217,15.1461462 Z" id="Path"></path>
            </g>
        </g>
    </g>
</svg>