<?xml version="1.0" encoding="UTF-8"?>
<svg width="32px" height="32px" viewBox="0 0 32 32" version="1.1" xmlns="http://www.w3.org/2000/svg" xmlns:xlink="http://www.w3.org/1999/xlink">
    <!-- Generator: Sketch 50.2 (55047) - http://www.bohemiancoding.com/sketch -->
    <title>call / add-member_32px</title>
    <desc>Created with Sketch.</desc>
    <defs></defs>
    <g id="call-/-add-member_32px" stroke="none" stroke-width="1" fill="none" fill-rule="evenodd">
        <path d="M16,1.125 C3.94517797,1.125 1.125,3.94517797 1.125,16 C1.125,28.054822 3.94517797,30.875 16,30.875 C28.054822,30.875 30.875,28.054822 30.875,16 C30.875,3.94517797 28.054822,1.125 16,1.125 Z" id="mask-squircle" stroke="#FFFFFF" stroke-width="1.25" opacity="0.869084821"></path>
        <g id="Group-5" transform="translate(8.500000, 8.500000)" fill="#FFFFFF" stroke="#FFFFFF" stroke-linecap="round" stroke-linejoin="round" stroke-width="0.5">
            <path d="M9.76621978,7.44829965 C8.45295721,8.33464799 7.58928063,9.83655195 7.58928063,11.5399209 C7.58928063,12.5152037 7.87241644,13.424441 8.36096304,14.1899078 L8.28711462,14.5441897 L0,14.5454545 C0,13.0592885 0.37944664,11.7628458 1.82134387,11.4023715 L4.42687747,10.7509881 L4.7373913,9.51083004 C4.04363636,8.86007905 3.5826087,7.90513834 3.50735178,6.95652174 L3.40426877,6.95652174 C3.0855336,6.95652174 2.81675889,6.71873518 2.776917,6.40252964 L2.61881423,5.13770751 C2.5713834,4.7601581 2.86608696,4.42687747 3.24616601,4.42687747 L3.31193676,4.42687747 C3.31193676,4.42687747 3.16205534,3.24300395 3.16205534,2.8458498 C3.16205534,1.71952569 3.45992095,0.65770751 6.00790514,0.632411067 C6.85280632,0.027826087 7.77422925,0 8.30418972,0 C9.30719368,0 10.0237154,0.32 10.4347826,0.948616601 C10.8439526,1.57343874 10.8439526,2.09454545 10.4347826,2.52964427 L10.1185771,2.8458498 L10.0420553,4.42814229 C10.4189723,4.43256917 10.709249,4.76268775 10.6624506,5.13770751 L10.5043478,6.40252964 C10.4645059,6.71873518 10.1957312,6.95652174 9.87699605,6.95652174 L9.84600791,6.95652174 C9.83841897,7.05454545 9.82324111,7.15256917 9.80743083,7.25059289 L9.76621978,7.44829965 Z" id="Combined-Shape"></path>
            <path d="M11.897087,10.9149209 L11.1307826,10.9149209 C10.7856046,10.9149209 10.5057826,11.194743 10.5057826,11.5399209 C10.5057826,11.8850989 10.7856046,12.1649209 11.1307826,12.1649209 L11.897087,12.1649209 L11.897087,12.9312253 C11.897087,13.2764032 12.176909,13.5562253 12.522087,13.5562253 C12.8672649,13.5562253 13.147087,13.2764032 13.147087,12.9312253 L13.147087,12.1649209 L13.9133913,12.1649209 C14.2585693,12.1649209 14.5383913,11.8850989 14.5383913,11.5399209 C14.5383913,11.194743 14.2585693,10.9149209 13.9133913,10.9149209 L13.147087,10.9149209 L13.147087,10.1486166 C13.147087,9.80343861 12.8672649,9.52361658 12.522087,9.52361658 C12.176909,9.52361658 11.897087,9.80343861 11.897087,10.1486166 L11.897087,10.9149209 Z M9.04382609,11.5399209 C9.04382609,9.61922528 10.6013913,8.06166006 12.522087,8.06166006 C14.4427826,8.06166006 16.0003478,9.61922528 16.0003478,11.5399209 C16.0003478,13.4606166 14.4427826,15.0181818 12.522087,15.0181818 C10.6013913,15.0181818 9.04382609,13.4606166 9.04382609,11.5399209 Z" id="Path"></path>
        </g>
    </g>
</svg>