<?xml version="1.0" encoding="UTF-8"?>
<svg width="18px" height="18px" viewBox="0 0 18 18" version="1.1" xmlns="http://www.w3.org/2000/svg" xmlns:xlink="http://www.w3.org/1999/xlink">
    <!-- Generator: Sketch 50.2 (55047) - http://www.bohemiancoding.com/sketch -->
    <title>call / currently-speaking_18px_fff</title>
    <desc>Created with Sketch.</desc>
    <defs></defs>
    <g id="call-/-currently-speaking_18px_fff" stroke="none" stroke-width="1" fill="none" fill-rule="evenodd" stroke-linecap="round" stroke-linejoin="round">
        <path d="M7.69887279,15 L3.57648953,11.3478261 L1.51529791,11.3478261 C1.23085346,11.3478261 1,11.114087 1,10.826087 L1,7.17391304 C1,6.88591304 1.23085346,6.65217391 1.51529791,6.65217391 L3.57648953,6.65217391 L7.69887279,3 L7.69887279,15 Z M10.5303145,7.27956522 C10.6720215,7.82895652 10.7477703,8.40547826 10.7477703,8.99973913 C10.7477703,9.594 10.6725368,10.17 10.5308298,10.7188696 M13.249576,12.1922087 C13.6520236,11.2087304 13.874117,10.1308174 13.874117,9.0002087 C13.874117,7.86907826 13.6515083,6.79012174 13.2490607,5.80612174 M15.8977778,13.5739826 C16.60219,12.2054609 17,10.6496348 17,8.99989565 C17,7.34911304 16.6016747,5.79276522 15.8967472,4.42372174" id="Stroke-1" stroke="#FFFFFF" stroke-width="1.25"></path>
    </g>
</svg>