<?xml version="1.0" encoding="UTF-8"?>
<svg width="56px" height="56px" viewBox="0 0 56 56" version="1.1" xmlns="http://www.w3.org/2000/svg" xmlns:xlink="http://www.w3.org/1999/xlink">
    <!-- Generator: Sketch 50.2 (55047) - http://www.bohemiancoding.com/sketch -->
    <title>call / message_56px</title>
    <desc>Created with Sketch.</desc>
    <defs></defs>
    <g id="call-/-message_56px" stroke="none" stroke-width="1" fill="none" fill-rule="evenodd">
        <path d="M28,0.625 C5.94517797,0.625 0.625,5.94517797 0.625,28 C0.625,50.054822 5.94517797,55.375 28,55.375 C50.054822,55.375 55.375,50.054822 55.375,28 C55.375,5.94517797 50.054822,0.625 28,0.625 Z" id="mask-squircle" stroke="#FFFFFF" stroke-width="1.25" opacity="0.87"></path>
        <g id="Group" transform="translate(16.000000, 19.000000)" fill="#FFFFFF" stroke="#FFFFFF" stroke-linecap="round" stroke-linejoin="round" stroke-width="0.5">
            <path d="M0.0879251302,1.72607961 C0.0298420202,1.57740936 0,1.41875726 0,1.2586345 C0,0.563509859 0.550385911,0 1.22932134,0 L21.5413573,0 C22.8992282,0 24,1.12701972 24,2.51726899 L24,15.103614 C24,16.4938632 22.8992282,17.620883 21.5413573,17.620883 L4.33085856,17.620883 C2.9729877,17.620883 1.87221588,16.4938632 1.87221588,15.103614 L1.87221588,6.29317249 L0.0879251302,1.72607961 Z M8.01882258,5.66817249 C7.18548925,5.66817249 7.18548925,6.91817249 8.01882258,6.91817249 L17.8533933,6.91817249 C18.6867266,6.91817249 18.6867266,5.66817249 17.8533933,5.66817249 L8.01882258,5.66817249 Z M8.01882258,10.7027105 C7.18548925,10.7027105 7.18548925,11.9527105 8.01882258,11.9527105 L17.8533933,11.9527105 C18.6867266,11.9527105 18.6867266,10.7027105 17.8533933,10.7027105 L8.01882258,10.7027105 Z" id="icon-/-message-bubble-/-incoming-thread_20px"></path>
        </g>
    </g>
</svg>