<?xml version="1.0" encoding="UTF-8"?>
<svg width="56px" height="56px" viewBox="0 0 56 56" version="1.1" xmlns="http://www.w3.org/2000/svg" xmlns:xlink="http://www.w3.org/1999/xlink">
    <!-- Generator: Sketch 50.2 (55047) - http://www.bohemiancoding.com/sketch -->
    <title>call / mute-on_56px</title>
    <desc>Created with Sketch.</desc>
    <defs></defs>
    <g id="call-/-mute-on_56px" stroke="none" stroke-width="1" fill="none" fill-rule="evenodd">
        <path d="M26.25,36.875 L26.25,34.6426612 C22.8210903,34.0475931 20.25,31.0564533 20.25,27.5 L20.25,26.5 C20.25,25.8096441 20.8096441,25.25 21.5,25.25 C22.1903559,25.25 22.75,25.8096441 22.75,26.5 L22.75,27.5 C22.75,30.1236441 24.8763559,32.25 27.5,32.25 C28.6117648,32.25 29.669364,31.868378 30.5202586,31.1660002 C31.052661,30.7265244 31.840524,30.8018562 32.2799998,31.3342586 C32.7194756,31.866661 32.6441438,32.654524 32.1117414,33.0939998 C31.1397446,33.8963424 29.9844763,34.4276318 28.75,34.6424007 L28.75,36.875 L29.5,36.875 C30.950178,36.875 32.125,38.049822 32.125,39.5 L32.125,40.125 L22.875,40.125 L22.875,39.5 C22.875,38.049822 24.049822,36.875 25.5,36.875 L26.25,36.875 Z M23.6735696,18.9058027 C24.5180447,17.6591451 25.9360767,16.875 27.5,16.875 C30.054178,16.875 32.125,18.945822 32.125,21.5 L32.125,27.357233 L37.6338835,32.8661165 C38.1220388,33.3542719 38.1220388,34.1457281 37.6338835,34.6338835 C37.1457281,35.1220388 36.3542719,35.1220388 35.8661165,34.6338835 L18.6161165,17.3838835 C18.1279612,16.8957281 18.1279612,16.1042719 18.6161165,15.6161165 C19.1042719,15.1279612 19.8957281,15.1279612 20.3838835,15.6161165 L23.6735696,18.9058027 Z M28,0.625 C5.94517797,0.625 0.625,5.94517797 0.625,28 C0.625,50.054822 5.94517797,55.375 28,55.375 C50.054822,55.375 55.375,50.054822 55.375,28 C55.375,5.94517797 50.054822,0.625 28,0.625 Z M22.875,27.5 L22.875,22.8191165 L30.8292446,30.7733611 L30.2473416,31.2049828 C29.4484713,31.7975382 28.4985345,32.125 27.5,32.125 C24.945822,32.125 22.875,30.054178 22.875,27.5 Z" id="mask-squircle" stroke="#FFFFFF" stroke-width="1.25" fill="#FFFFFF" opacity="0.869084821"></path>
        <g id="Group" transform="translate(23.000000, 37.000000)"></g>
    </g>
</svg>