<?xml version="1.0" encoding="UTF-8"?>
<svg width="48px" height="48px" viewBox="0 0 48 48" version="1.1" xmlns="http://www.w3.org/2000/svg" xmlns:xlink="http://www.w3.org/1999/xlink">
    <!-- Generator: Sketch 50.2 (55047) - http://www.bohemiancoding.com/sketch -->
    <title>call / mute-off_48px</title>
    <desc>Created with Sketch.</desc>
    <defs></defs>
    <g id="call-/-mute-off_48px" stroke="none" stroke-width="1" fill="none" fill-rule="evenodd">
        <path d="M24,0.625 C5.14517797,0.625 0.625,5.14517797 0.625,24 C0.625,42.854822 5.14517797,47.375 24,47.375 C42.854822,47.375 47.375,42.854822 47.375,24 C47.375,5.14517797 42.854822,0.625 24,0.625 Z" id="mask-squircle" stroke="#FFFFFF" stroke-width="1.25" opacity="0.871316964"></path>
        <g id="Group" transform="translate(16.000000, 13.000000)" stroke="#FFFFFF" stroke-linecap="round" stroke-linejoin="round">
            <path d="M2.29166667,9.625 L2.29166667,10.5416667 C2.29166667,13.5795 4.75383333,16.0416667 7.79166667,16.0416667 C9.12083333,16.0416667 10.3390833,15.5705 11.2896667,14.7858333 M7.79166667,16.0416667 L7.79166667,19.7083333 M0.458333333,0.458333333 L16.2708333,16.2708333" id="Stroke-3" stroke-width="1.25"></path>
            <path d="M4.125,10.5416667 L4.125,7.634 L9.96875,13.47775 C9.35825,13.9305833 8.61025,14.2083333 7.79166667,14.2083333 C5.76675,14.2083333 4.125,12.5665833 4.125,10.5416667 Z M11.4583333,5.04166667 L11.4583333,10.6993333 L4.40366667,3.64466667 C4.95366667,2.31275 6.26175,1.375 7.79166667,1.375 C9.81658333,1.375 11.4583333,3.01675 11.4583333,5.04166667 Z M11.4583333,21.5416667 L4.125,21.5416667 C4.125,20.52875 4.94541667,19.7083333 5.95833333,19.7083333 L9.625,19.7083333 C10.6379167,19.7083333 11.4583333,20.52875 11.4583333,21.5416667 Z" id="Stroke-7" stroke-width="0.25" fill="#FFFFFF"></path>
        </g>
    </g>
</svg>