<?xml version="1.0" encoding="UTF-8"?>
<svg width="56px" height="56px" viewBox="0 0 56 56" version="1.1" xmlns="http://www.w3.org/2000/svg" xmlns:xlink="http://www.w3.org/1999/xlink">
    <!-- Generator: Sketch 50.2 (55047) - http://www.bohemiancoding.com/sketch -->
    <title>call / mute-off_56px</title>
    <desc>Created with Sketch.</desc>
    <defs></defs>
    <g id="call-/-mute-off_56px" stroke="none" stroke-width="1" fill="none" fill-rule="evenodd">
        <path d="M28,0.625 C5.94517797,0.625 0.625,5.94517797 0.625,28 C0.625,50.054822 5.94517797,55.375 28,55.375 C50.054822,55.375 55.375,50.054822 55.375,28 C55.375,5.94517797 50.054822,0.625 28,0.625 Z" id="mask-squircle" stroke="#FFFFFF" stroke-width="1.25" opacity="0.869084821"></path>
        <g id="Group" transform="translate(19.000000, 16.000000)" stroke="#FFFFFF" stroke-linecap="round" stroke-linejoin="round">
            <path d="M2.5,10.5 L2.5,11.5 C2.5,14.814 5.186,17.5 8.5,17.5 C9.95,17.5 11.279,16.986 12.316,16.13 M8.5,17.5 L8.5,21.5 M0.5,0.5 L17.75,17.75" id="Stroke-3" stroke-width="1.25"></path>
            <path d="M4.5,11.5 L4.5,8.328 L10.875,14.703 C10.209,15.197 9.393,15.5 8.5,15.5 C6.291,15.5 4.5,13.709 4.5,11.5 Z M12.5,5.5 L12.5,11.672 L4.804,3.976 C5.404,2.523 6.831,1.5 8.5,1.5 C10.709,1.5 12.5,3.291 12.5,5.5 Z M12.5,23.5 L4.5,23.5 C4.5,22.395 5.395,21.5 6.5,21.5 L10.5,21.5 C11.605,21.5 12.5,22.395 12.5,23.5 Z" id="Stroke-7" stroke-width="0.25" fill="#FFFFFF"></path>
        </g>
    </g>
</svg>