<?xml version="1.0" encoding="UTF-8"?>
<svg width="48px" height="48px" viewBox="0 0 48 48" version="1.1" xmlns="http://www.w3.org/2000/svg" xmlns:xlink="http://www.w3.org/1999/xlink">
    <!-- Generator: Sketch 50.2 (55047) - http://www.bohemiancoding.com/sketch -->
    <title>call / mute-on_48px</title>
    <desc>Created with Sketch.</desc>
    <defs></defs>
    <g id="call-/-mute-on_48px" stroke="none" stroke-width="1" fill="none" fill-rule="evenodd" opacity="0.872767857">
        <path d="M22.5416667,32.0833333 L22.5416667,30.1761726 C19.3907817,29.5870572 17.0416667,26.8213589 17.0416667,23.5416667 L17.0416667,22.625 C17.0416667,21.9346441 17.6013107,21.375 18.2916667,21.375 C18.9820226,21.375 19.5416667,21.9346441 19.5416667,22.625 L19.5416667,23.5416667 C19.5416667,25.8891441 21.4441893,27.7916667 23.7916667,27.7916667 C24.7865295,27.7916667 25.7325649,27.4503046 26.4939253,26.8218335 C27.0263277,26.3823577 27.8141906,26.4576895 28.2536665,26.9900919 C28.6931423,27.5224943 28.6178105,28.3103573 28.0854081,28.7498331 C27.2032915,29.4779834 26.1587573,29.9665313 25.0416667,30.1758983 L25.0416667,32.0833333 L25.625,32.0833333 C26.9830946,32.0833333 28.0833333,33.183572 28.0833333,34.5416667 L28.0833333,35.1666667 L19.5,35.1666667 L19.5,34.5416667 C19.5,33.183572 20.6002387,32.0833333 21.9583333,32.0833333 L22.5416667,32.0833333 Z M20.3072423,15.5394753 C21.098068,14.4371165 22.3814348,13.75 23.7916667,13.75 C26.1617613,13.75 28.0833333,15.671572 28.0833333,18.0416667 L28.0833333,23.3155664 L33.1547168,28.3869499 C33.6428722,28.8751052 33.6428722,29.6665614 33.1547168,30.1547168 C32.6665614,30.6428722 31.8751052,30.6428722 31.3869499,30.1547168 L15.5744499,14.3422168 C15.0862945,13.8540614 15.0862945,13.0626052 15.5744499,12.5744499 C16.0626052,12.0862945 16.8540614,12.0862945 17.3422168,12.5744499 L20.3072423,15.5394753 Z M24,0.625 C5.14517797,0.625 0.625,5.14517797 0.625,24 C0.625,42.854822 5.14517797,47.375 24,47.375 C42.854822,47.375 47.375,42.854822 47.375,24 C47.375,5.14517797 42.854822,0.625 24,0.625 Z M19.5,23.5416667 L19.5,19.1251165 L26.9229946,26.5481111 L26.3410916,26.9797328 C25.5999996,27.5294317 24.7184085,27.8333333 23.7916667,27.8333333 C21.421572,27.8333333 19.5,25.9117613 19.5,23.5416667 Z" id="mask-squircle" stroke="#FFFFFF" stroke-width="1.25" fill="#FFFFFF"></path>
    </g>
</svg>