<?xml version="1.0" encoding="UTF-8"?>
<svg width="48px" height="48px" viewBox="0 0 48 48" version="1.1" xmlns="http://www.w3.org/2000/svg" xmlns:xlink="http://www.w3.org/1999/xlink">
    <!-- Generator: Sketch 50.2 (55047) - http://www.bohemiancoding.com/sketch -->
    <title>call / screen-share-off_48px</title>
    <desc>Created with Sketch.</desc>
    <defs></defs>
    <g id="call-/-screen-share-off_48px" stroke="none" stroke-width="1" fill="none" fill-rule="evenodd" opacity="0.869084821">
        <path d="M24,0.625 C5.14517797,0.625 0.625,5.14517797 0.625,24 C0.625,42.854822 5.14517797,47.375 24,47.375 C42.854822,47.375 47.375,42.854822 47.375,24 C47.375,5.14517797 42.854822,0.625 24,0.625 Z M17,17.375 C16.654822,17.375 16.375,17.654822 16.375,18 L16.375,27 C16.375,27.345178 16.654822,27.625 17,27.625 L31,27.625 C31.345178,27.625 31.625,27.345178 31.625,27 L31.625,18 C31.625,17.654822 31.345178,17.375 31,17.375 L17,17.375 Z M17,14.625 L31,14.625 C32.863961,14.625 34.375,16.136039 34.375,18 L34.375,27 C34.375,28.863961 32.863961,30.375 31,30.375 L17,30.375 C15.136039,30.375 13.625,28.863961 13.625,27 L13.625,18 C13.625,16.136039 15.136039,14.625 17,14.625 Z M21,35.375 C20.2406085,35.375 19.625,34.7593915 19.625,34 C19.625,33.2406085 20.2406085,32.625 21,32.625 L27,32.625 C27.7593915,32.625 28.375,33.2406085 28.375,34 C28.375,34.7593915 27.7593915,35.375 27,35.375 L21,35.375 Z M22.125,29.125 L25.875,29.125 L25.875,33.875 L22.125,33.875 L22.125,29.125 Z M18.2819426,17.375 L29.7180574,17.375 C30.2188187,17.375 30.4950472,17.4283422 30.7831721,17.5824331 C31.0550529,17.7278365 31.2721635,17.9449471 31.4175669,18.2168279 C31.5716578,18.5049528 31.625,18.7811813 31.625,19.2819426 L31.625,25.7180574 C31.625,26.2188187 31.5716578,26.4950472 31.4175669,26.7831721 C31.2721635,27.0550529 31.0550529,27.2721635 30.7831721,27.4175669 C30.4950472,27.5716578 30.2188187,27.625 29.7180574,27.625 L18.2819426,27.625 C17.7811813,27.625 17.5049528,27.5716578 17.2168279,27.4175669 C16.9449471,27.2721635 16.7278365,27.0550529 16.5824331,26.7831721 C16.4283422,26.4950472 16.375,26.2188187 16.375,25.7180574 L16.375,19.2819426 C16.375,18.7811813 16.4283422,18.5049528 16.5824331,18.2168279 C16.7278365,17.9449471 16.9449471,17.7278365 17.2168279,17.5824331 C17.5049528,17.4283422 17.7811813,17.375 18.2819426,17.375 Z" id="mask-squircle" stroke="#FFFFFF" stroke-width="1.25" fill="#FFFFFF"></path>
    </g>
</svg>