<?xml version="1.0" encoding="UTF-8"?>
<svg width="56px" height="56px" viewBox="0 0 56 56" version="1.1" xmlns="http://www.w3.org/2000/svg" xmlns:xlink="http://www.w3.org/1999/xlink">
    <!-- Generator: Sketch 50.2 (55047) - http://www.bohemiancoding.com/sketch -->
    <title>call / speaker-off_56px</title>
    <desc>Created with Sketch.</desc>
    <defs></defs>
    <g id="call-/-speaker-off_56px" stroke="none" stroke-width="1" fill="none" fill-rule="evenodd">
        <path d="M28,0.625 C5.94517797,0.625 0.625,5.94517797 0.625,28 C0.625,50.054822 5.94517797,55.375 28,55.375 C50.054822,55.375 55.375,50.054822 55.375,28 C55.375,5.94517797 50.054822,0.625 28,0.625 Z" id="mask-squircle" stroke="#FFFFFF" stroke-width="1.25" opacity="0.869084821"></path>
        <g id="Group-3" transform="translate(17.000000, 18.000000)" stroke="#FFFFFF" stroke-linecap="round" stroke-linejoin="round" stroke-width="1.25">
            <path d="M14.4157391,7.1326087 C14.6548696,8.04826087 14.7826957,9.00913043 14.7826957,9.99956522 C14.7826957,10.99 14.6557391,11.95 14.4166087,12.8647826 M17.3378261,15.3203478 C18.0169565,13.6812174 18.3917391,11.8846957 18.3917391,10.0003478 C18.3917391,8.11513043 18.016087,6.31686957 17.3369565,4.67686957 M20.14,17.6233043 C21.3286957,15.3424348 22,12.7493913 22,9.99982609 C22,7.24852174 21.3278261,4.6546087 20.1382609,2.37286957" id="Stroke-1"></path>
            <path d="M11.3043478,20 L4.34782609,13.9130435 L0.869565217,13.9130435 C0.389565217,13.9130435 0,13.5234783 0,13.0434783 L0,6.95652174 C0,6.47652174 0.389565217,6.08695652 0.869565217,6.08695652 L4.34782609,6.08695652 L11.3043478,0 L11.3043478,20 Z" id="Stroke-1" fill="#FFFFFF"></path>
        </g>
    </g>
</svg>