<?xml version="1.0" encoding="UTF-8"?>
<svg width="56px" height="56px" viewBox="0 0 56 56" version="1.1" xmlns="http://www.w3.org/2000/svg" xmlns:xlink="http://www.w3.org/1999/xlink">
    <!-- Generator: Sketch 50.2 (55047) - http://www.bohemiancoding.com/sketch -->
    <title>call / speaker-on_56px</title>
    <desc>Created with Sketch.</desc>
    <defs></defs>
    <g id="call-/-speaker-on_56px" stroke="none" stroke-width="1" fill="none" fill-rule="evenodd" opacity="0.869084821">
        <path d="M28,0.625 C5.94517797,0.625 0.625,5.94517797 0.625,28 C0.625,50.054822 5.94517797,55.375 28,55.375 C50.054822,55.375 55.375,50.054822 55.375,28 C55.375,5.94517797 50.054822,0.625 28,0.625 Z M30.206303,25.4484633 C30.0318613,24.7805102 30.4319313,24.0976142 31.0998845,23.9231725 C31.7678376,23.7487308 32.4507336,24.1488009 32.6251753,24.816754 C32.8957151,25.8526754 33.0326957,26.920089 33.0326957,27.9995652 C33.0326957,29.0809606 32.8960697,30.1476698 32.6259714,31.1809183 C32.4513745,31.8488309 31.7683856,32.2487423 31.100473,32.0741453 C30.4325604,31.8995484 30.032649,31.2165595 30.207246,30.5486469 C30.42334,29.721989 30.5326957,28.8677648 30.5326957,27.9995652 C30.5326957,27.1332986 30.422988,26.27817 30.206303,25.4484633 Z M35.4926306,33.7988106 C35.2283829,34.4365915 34.4971442,34.7394 33.8593633,34.4751523 C33.2215824,34.2109046 32.9187739,33.479666 33.1830216,32.8418851 C33.8164432,31.3130762 34.1417391,29.676319 34.1417391,28.0003478 C34.1417391,26.3245334 33.8159942,24.6859677 33.1820623,23.1551158 C32.9179343,22.5172853 33.2208799,21.7861035 33.8587103,21.5219754 C34.4965408,21.2578473 35.2277226,21.5607929 35.4918507,22.1986234 C36.2512922,24.0325628 36.6417391,25.9961086 36.6417391,28.0003478 C36.6417391,30.0048195 36.2517094,31.9667189 35.4926306,33.7988106 Z M38.2484947,36.2010063 C37.9294387,36.813211 37.1745028,37.050855 36.562298,36.731799 C35.9500933,36.412743 35.7124493,35.6578071 36.0315053,35.0456024 C37.1616999,32.8769847 37.75,30.4749389 37.75,27.9998261 C37.75,25.5236781 37.1611894,23.1207868 36.0298491,20.9507306 C35.7107053,20.3385717 35.9482409,19.5836016 36.5603999,19.2644578 C37.1725588,18.945314 37.9275288,19.1828496 38.2466726,19.7950086 C39.5639068,22.3216331 40.25,25.120928 40.25,27.9998261 C40.25,30.8775395 39.5644883,33.6758774 38.2484947,36.2010063 Z M20.8781572,33.1630435 L17.8695652,33.1630435 C16.6992093,33.1630435 15.75,32.2138342 15.75,31.0434783 L15.75,24.9565217 C15.75,23.7861658 16.6992093,22.8369565 17.8695652,22.8369565 L20.8781572,22.8369565 L27.4812171,17.0592791 C28.2894457,16.3520791 29.5543478,16.9260515 29.5543478,18 L29.5543478,38 C29.5543478,39.0739485 28.2894457,39.6479209 27.4812171,38.9407209 L20.8781572,33.1630435 Z" id="mask-squircle" stroke="#FFFFFF" stroke-width="1.25" fill="#FFFFFF"></path>
    </g>
</svg>