<?xml version="1.0" encoding="UTF-8"?>
<svg width="48px" height="48px" viewBox="0 0 48 48" version="1.1" xmlns="http://www.w3.org/2000/svg" xmlns:xlink="http://www.w3.org/1999/xlink">
    <!-- Generator: Sketch 50.2 (55047) - http://www.bohemiancoding.com/sketch -->
    <title>call / speaker-on_48px</title>
    <desc>Created with Sketch.</desc>
    <defs></defs>
    <g id="call-/-speaker-on_48px" stroke="none" stroke-width="1" fill="none" fill-rule="evenodd" opacity="0.872767857">
        <path d="M24,0.625 C5.14517797,0.625 0.625,5.14517797 0.625,24 C0.625,42.854822 5.14517797,47.375 24,47.375 C42.854822,47.375 47.375,42.854822 47.375,24 C47.375,5.14517797 42.854822,0.625 24,0.625 Z M25.5852595,22.1516254 C25.4108178,21.4836722 25.8108879,20.8007763 26.478841,20.6263346 C27.1467942,20.4518929 27.8296901,20.851963 28.0041318,21.5199161 C28.2303781,22.3862336 28.3449328,23.2788705 28.3449328,24.1814625 C28.3449328,25.0856244 28.2306681,25.9777033 28.0047698,26.8418669 C27.8301729,27.5097795 27.147184,27.9096909 26.4792714,27.735094 C25.8113588,27.560497 25.4114475,26.8775081 25.5860444,26.2095955 C25.7579384,25.5520228 25.8449328,24.872429 25.8449328,24.1814625 C25.8449328,23.49208 25.7576509,22.811728 25.5852595,22.1516254 Z M30.3402986,29.0132928 C30.0760509,29.6510737 29.3448122,29.9538822 28.7070313,29.6896345 C28.0692504,29.4253868 27.7664419,28.6941482 28.0306896,28.0563673 C28.5375193,26.8330972 28.7977866,25.5234908 28.7977866,24.1821028 C28.7977866,22.8408366 28.5371491,21.5297357 28.0298884,20.3047759 C27.7657603,19.6669454 28.068706,18.9357636 28.7065364,18.6716355 C29.3443668,18.4075074 30.0755487,18.710453 30.3396768,19.3482834 C30.9724473,20.876331 31.2977866,22.5124119 31.2977866,24.1821028 C31.2977866,25.851991 30.9727856,27.4867396 30.3402986,29.0132928 Z M32.5866765,30.9967691 C32.2676205,31.6089739 31.5126846,31.8466179 30.9004799,31.5275619 C30.2882752,31.2085059 30.0506312,30.4535699 30.3696871,29.8413652 C31.2774999,28.0994539 31.75,26.1701705 31.75,24.1816759 C31.75,22.192348 31.2770887,20.262383 30.3683471,18.5192997 C30.0492033,17.9071408 30.286739,17.1521708 30.8988979,16.833027 C31.5110568,16.5138831 32.2660268,16.7514188 32.5851707,17.3635777 C33.6798062,19.4632295 34.25,21.7895981 34.25,24.1816759 C34.25,26.5727709 33.6802883,28.8983464 32.5866765,30.9967691 Z M18.3224778,28.0083992 L15.7114625,28.0083992 C14.9735572,28.0083992 14.375,27.409842 14.375,26.6719368 L14.375,21.6916996 C14.375,20.9537944 14.9735572,20.3552372 15.7114625,20.3552372 L18.3224778,20.3552372 L24.8740119,14.6226449 L24.8740119,33.7409915 L18.3224778,28.0083992 Z" id="mask-squircle" stroke="#FFFFFF" stroke-width="1.25" fill="#FFFFFF"></path>
    </g>
</svg>