<?xml version="1.0" encoding="UTF-8"?>
<svg width="56px" height="56px" viewBox="0 0 56 56" version="1.1" xmlns="http://www.w3.org/2000/svg" xmlns:xlink="http://www.w3.org/1999/xlink">
    <!-- Generator: Sketch 50.2 (55047) - http://www.bohemiancoding.com/sketch -->
    <title>call / video-on_56px</title>
    <desc>Created with Sketch.</desc>
    <defs></defs>
    <g id="call-/-video-on_56px" stroke="none" stroke-width="1" fill="none" fill-rule="evenodd" opacity="0.869084821">
        <path d="M28,0.625 C5.94517797,0.625 0.625,5.94517797 0.625,28 C0.625,50.054822 5.94517797,55.375 28,55.375 C50.054822,55.375 55.375,50.054822 55.375,28 C55.375,5.94517797 50.054822,0.625 28,0.625 Z M34.625,23.7797789 L40.625,19.8422789 L40.625,37.1577211 L34.625,33.2202211 L34.625,35.015625 C34.625,35.9064003 33.894994,36.625 33,36.625 L18.091,36.625 C16.3837651,36.625 15.375,32.9849413 15.375,28.5 C15.375,24.0150587 16.3837651,20.375 18.091,20.375 L33,20.375 C33.894994,20.375 34.625,21.0935997 34.625,21.984375 L34.625,23.7797789 Z" id="mask-squircle" stroke="#FFFFFF" stroke-width="1.25" fill="#FFFFFF"></path>
    </g>
</svg>