<?xml version="1.0" encoding="UTF-8"?>
<svg width="48px" height="48px" viewBox="0 0 48 48" version="1.1" xmlns="http://www.w3.org/2000/svg" xmlns:xlink="http://www.w3.org/1999/xlink">
    <!-- Generator: Sketch 50.2 (55047) - http://www.bohemiancoding.com/sketch -->
    <title>call / video-off_48px</title>
    <desc>Created with Sketch.</desc>
    <defs></defs>
    <g id="call-/-video-off_48px" stroke="none" stroke-width="1" fill="none" fill-rule="evenodd">
        <path d="M24,0.625 C5.14517797,0.625 0.625,5.14517797 0.625,24 C0.625,42.854822 5.14517797,47.375 24,47.375 C42.854822,47.375 47.375,42.854822 47.375,24 C47.375,5.14517797 42.854822,0.625 24,0.625 Z" id="mask-squircle" stroke="#FFFFFF" stroke-width="1.25" opacity="0.869084821"></path>
        <path d="M29,21.28125 L29,18.8203125 C29,18.3675 28.6266667,18 28.1666667,18 L15.7425,18 C14.78,18 14,20.8522656 14,24.25 C14,27.6477344 14.78,30.5 15.7425,30.5 L28.1666667,30.5 C28.6266667,30.5 29,30.1325 29,29.6796875 L29,27.21875 L34,30.5 L34,18 L29,21.28125 Z" id="Path" fill="#FFFFFF"></path>
    </g>
</svg>