<?xml version="1.0" encoding="UTF-8"?>
<svg width="24px" height="16px" viewBox="0 0 24 16" version="1.1" xmlns="http://www.w3.org/2000/svg" xmlns:xlink="http://www.w3.org/1999/xlink">
    <!-- Generator: Sketch 50.2 (55047) - http://www.bohemiancoding.com/sketch -->
    <title>Add Another Payment Icon</title>
    <desc>Created with Sketch.</desc>
    <defs></defs>
    <g id="Add-Another-Payment-Icon" stroke="none" stroke-width="1" fill="none" fill-rule="evenodd">
        <g id="Group-2" fill="#9B9B9B" fill-rule="nonzero">
            <rect id="Rectangle-path" x="2.80053333" y="11.3698667" width="2.93333333" height="1"></rect>
            <rect id="Rectangle-path" x="6.20826667" y="11.3698667" width="2.93333333" height="1"></rect>
            <path d="M18.5354667,0.202666667 C16.6376,0.202666667 14.9994667,1.31653333 14.2272,2.92213333 L2.58533333,2.92213333 C1.24133333,2.92213333 0.147733333,3.90053333 0.147733333,5.1032 L0.147733333,13.6370667 C0.147733333,14.8394667 1.24133333,15.8178667 2.58533333,15.8178667 L17.7490667,15.8178667 C19.0928,15.8178667 20.1866667,14.8394667 20.1866667,13.6370667 L20.1866667,9.47013333 C22.0122667,8.79573333 23.3194667,7.0432 23.3194667,4.98666667 C23.3194667,2.34853333 21.1730667,0.202666667 18.5354667,0.202666667 Z M0.948,5.1032 C0.948,4.34186667 1.68266667,3.72213333 2.5856,3.72213333 L13.9274667,3.72213333 C13.8165333,4.1256 13.7525333,4.54826667 13.7525333,4.9864 C13.7525333,5.63973333 13.8848,6.26266667 14.1229333,6.8304 L0.948,6.8304 L0.948,5.1032 Z M19.3866667,13.6370667 C19.3866667,14.3984 18.6517333,15.0178667 17.7490667,15.0178667 L2.58533333,15.0178667 C1.6824,15.0178667 0.947733333,14.3986667 0.947733333,13.6370667 L0.947733333,7.6304 L14.5525333,7.6304 C15.4104,8.9184 16.8749333,9.7696 18.5354667,9.7696 C18.8261333,9.7696 19.1093333,9.73946667 19.3864,9.68933333 L19.3864,13.6370667 L19.3866667,13.6370667 Z M18.5354667,8.96986667 C16.3392,8.96986667 14.552,7.18293333 14.552,4.9864 C14.552,2.7896 16.3389333,1.00266667 18.5354667,1.00266667 C20.732,1.00266667 22.5192,2.78986667 22.5192,4.9864 C22.5194667,7.18293333 20.732,8.96986667 18.5354667,8.96986667 Z" id="Shape"></path>
            <polygon id="Shape" points="18.9354667 2.81786667 18.1354667 2.81786667 18.1354667 4.58613333 16.3666667 4.58613333 16.3666667 5.38613333 18.1354667 5.38613333 18.1354667 7.15466667 18.9354667 7.15466667 18.9354667 5.38613333 20.7037333 5.38613333 20.7037333 4.58613333 18.9354667 4.58613333"></polygon>
        </g>
    </g>
</svg>