<?xml version="1.0" encoding="UTF-8"?>
<svg width="16px" height="16px" viewBox="0 0 16 16" version="1.1" xmlns="http://www.w3.org/2000/svg" xmlns:xlink="http://www.w3.org/1999/xlink">
    <!-- Generator: Sketch 49.2 (51160) - http://www.bohemiancoding.com/sketch -->
    <title>icon / popup / info_16px</title>
    <desc>Created with Sketch.</desc>
    <defs></defs>
    <g id="icon-/-popup-/-info_16px" stroke="none" stroke-width="1" fill="none" fill-rule="evenodd" fill-opacity="0.16">
        <g fill="#546E7A" id="icon-/-info-/-16">
            <path d="M8,16 C12.418278,16 16,12.418278 16,8 C16,3.581722 12.418278,0 8,0 C3.581722,0 0,3.581722 0,8 C0,12.418278 3.581722,16 8,16 Z M8.85714286,10.8965517 L10,10.8965517 L10,12 L8.85714286,12 L7.14285714,12 L6,12 L6,10.8965517 L7.14285714,10.8965517 L7.14285714,7.86206897 L6.28571429,7.86206897 L6.28571429,6.75862069 L8.85714286,6.75862069 L8.85714286,7.86206897 L8.85714286,10.8965517 Z M9.1671428,4.81500304 C9.1671428,5.37562136 8.65008781,5.83000302 8.01214283,5.83000302 C7.37419784,5.83000302 6.85714286,5.37562136 6.85714286,4.81500304 C6.85714286,4.25438471 7.37419784,3.80000305 8.01214283,3.80000305 C8.65008781,3.80000305 9.1671428,4.25438471 9.1671428,4.81500304 Z"></path>
        </g>
    </g>
</svg>