<?xml version="1.0" encoding="UTF-8"?>
<svg width="24px" height="24px" viewBox="0 0 24 24" version="1.1" xmlns="http://www.w3.org/2000/svg" xmlns:xlink="http://www.w3.org/1999/xlink">
    <!-- Generator: Sketch 49.2 (51160) - http://www.bohemiancoding.com/sketch -->
    <title>Flagged</title>
    <desc>Created with Sketch.</desc>
    <defs></defs>
    <g id="Flagged" stroke="none" stroke-width="1" fill="none" fill-rule="evenodd">
        <path d="M16.3769322,13.0646 L14.4965193,10 L16.3947998,6.906 C16.4326947,6.8442 16.4346582,6.7666 16.4001011,6.703 C16.3653478,6.6394 16.299768,6.6 16.2282977,6.6 L7.39269352,6.6 L7.39269352,6.2 C7.39269352,6.0894 7.30492652,6 7.19634676,6 C7.087767,6 7,6.0894 7,6.2 L7,6.8 L7,12.6 L7,13.2 L7,17.8 C7,17.9106 7.087767,18 7.19634676,18 C7.30492652,18 7.39269352,17.9106 7.39269352,17.8 L7.39269352,13.4 L16.2282977,13.4 C16.3408044,13.4 16.4285714,13.3106 16.4285714,13.2 C16.4285714,13.1478 16.4089368,13.1004 16.3769322,13.0646 Z" id="Shape-Copy-4" stroke="#CD327F" stroke-width="2" fill="#CD327F" fill-rule="nonzero"></path>
    </g>
</svg>