<?xml version="1.0" encoding="UTF-8"?>
<svg width="26px" height="26px" viewBox="0 0 26 26" version="1.1" xmlns="http://www.w3.org/2000/svg" xmlns:xlink="http://www.w3.org/1999/xlink">
    <!-- Generator: Sketch 49.2 (51160) - http://www.bohemiancoding.com/sketch -->
    <title>Filter - Not Selected Copy</title>
    <desc>Created with Sketch.</desc>
    <defs></defs>
    <g id="Filter---Not-Selected-Copy" stroke="none" stroke-width="1" fill="none" fill-rule="evenodd" stroke-linecap="round" stroke-linejoin="round">
        <path d="M4,5 C6.4,5 7,5.6 7,8 C7,10.4 6.4,11 4,11 C1.6,11 1,10.4 1,8 C1,5.6 1.6,5 4,5 Z M4,1 L4,5 L4,1 Z M4,11 L4,25 L4,11 Z M13,15 C15.4,15 16,15.6 16,18 C16,20.4 15.4,21 13,21 C10.6,21 10,20.4 10,18 C10,15.6 10.6,15 13,15 Z M13,15 L13,1 L13,15 Z M13,21 L13,25 L13,21 Z M22,7 C24.4,7 25,7.6 25,10 C25,12.4 24.4,13 22,13 C19.6,13 19,12.4 19,10 C19,7.6 19.6,7 22,7 Z M22,7 L22,1 L22,7 Z M22,13 L22,25 L22,13 Z" id="icon-/-filter-/-24" stroke="#78909C" stroke-width="1.5" fill="#78909C"></path>
    </g>
</svg>