<?xml version="1.0" encoding="UTF-8"?>
<svg width="28px" height="28px" viewBox="0 0 28 28" version="1.1" xmlns="http://www.w3.org/2000/svg" xmlns:xlink="http://www.w3.org/1999/xlink">
    <!-- Generator: Sketch 49.2 (51160) - http://www.bohemiancoding.com/sketch -->
    <title>icon / lightbox / download_28px_000</title>
    <desc>Created with Sketch.</desc>
    <defs></defs>
    <g id="icon-/-lightbox-/-download_28px_000" stroke="none" stroke-width="1" fill="none" fill-rule="evenodd" stroke-linecap="round" stroke-linejoin="round">
        <path d="M17.6086957,18 L20.7826087,18 C23.6636522,18 26,15.761 26,13 C26,10.239 23.6636522,8 20.7826087,8 C20.7544348,8 20.7283478,8.007 20.7012174,8.008 C20.1972174,4.613 17.1596522,2 13.4782609,2 C9.44417391,2 6.17391304,5.134 6.17391304,9 C6.17391304,9.343 6.20834783,9.678 6.25843478,10.008 C6.22921739,10.008 6.20313043,10 6.17391304,10 C3.86886957,10 2,11.791 2,14 C2,16.209 3.86886957,18 6.17391304,18 L9.34782609,18 M17.6521739,21.826087 L13.4782609,26 L9.30434783,21.826087 L13.4782609,26 L13.4782609,10.3478261" stroke="#FFFFFF" stroke-width="1.5"></path>
    </g>
</svg>