<?xml version="1.0" encoding="UTF-8"?>
<svg width="18px" height="18px" viewBox="0 0 18 18" version="1.1" xmlns="http://www.w3.org/2000/svg" xmlns:xlink="http://www.w3.org/1999/xlink">
    <!-- Generator: Sketch 49.2 (51160) - http://www.bohemiancoding.com/sketch -->
    <title>icon / sidebar / call_18px_000</title>
    <desc>Created with Sketch.</desc>
    <defs></defs>
    <g id="icon-/-sidebar-/-call_18px_000" stroke="none" stroke-width="1" fill="none" fill-rule="evenodd" stroke-linecap="round" stroke-linejoin="round">
        <path d="M9.88888889,13.4444444 L12.0311111,11.8266667 C12.2711111,11.5866667 12.9377778,11.6133333 12.9377778,11.6133333 L16.1111111,12.12 C16.1111111,12.12 17,12.52 17,13.0088889 L17,16.1111111 C17,16.6 16.6,17 16.1111111,17 C7.76444444,17 1,10.2355556 1,1.88888889 C1,1.4 1.4,1 1.88888889,1 L5,1 C5.48888889,1 5.88888889,1.88888889 5.88888889,1.88888889 L6.39555556,5.06222222 C6.39555556,5.06222222 6.42222222,5.72 6.17333333,5.96888889 L4.55555556,8.11111111 C5.83555556,10.6266667 7.37333333,12.1555556 9.88888889,13.4444444 Z" stroke="#FFFFFF" stroke-width="0.5" fill="#FFFFFF"></path>
    </g>
</svg>