<?xml version="1.0" encoding="UTF-8"?>
<svg width="20px" height="20px" viewBox="0 0 20 20" version="1.1" xmlns="http://www.w3.org/2000/svg" xmlns:xlink="http://www.w3.org/1999/xlink">
    <!-- Generator: Sketch 49.2 (51160) - http://www.bohemiancoding.com/sketch -->
    <title>icon / message bubble / outgoing-thread_20px</title>
    <desc>Created with Sketch.</desc>
    <defs></defs>
    <g id="icon-/-message-bubble-/-outgoing-thread_20px" stroke="none" stroke-width="1" fill="none" fill-rule="evenodd" opacity="0.16089221" stroke-linecap="round" stroke-linejoin="round">
        <path d="M19.1464192,2.51363659 L18.125901,5.19565217 L18.125901,10.3695652 C18.125901,11.1859862 17.4963187,11.8478261 16.7196897,11.8478261 L14.7150879,11.8478261 M5.46999979,8.15217391 L5.46999979,2.97826087 C5.46999979,2.16183994 6.09958201,1.5 6.87621103,1.5 L18.493602,1.5 C18.8819165,1.5 19.1967076,1.83091997 19.1967076,2.23913043 C19.1967076,2.33316219 19.1796396,2.4263303 19.1464192,2.51363659 M14.6103729,5.19565217 L8.98552789,5.19565217 L14.6103729,5.19565217 Z M0.850288453,9.1658105 C0.817068041,9.07850421 0.800000012,8.9853361 0.800000012,8.89130435 C0.800000012,8.48309388 1.11479112,8.15217391 1.50310563,8.15217391 L13.1204966,8.15217391 C13.8971256,8.15217391 14.5267079,8.81401385 14.5267079,9.63043478 L14.5267079,17.0217391 C14.5267079,17.8381601 13.8971256,18.5 13.1204966,18.5 L3.27701794,18.5 C2.50038891,18.5 1.8708067,17.8381601 1.8708067,17.0217391 L1.8708067,11.8478261 L0.850288453,9.1658105 Z M5.3863348,11.8478261 L11.0111798,11.8478261 L5.3863348,11.8478261 Z M5.3863348,14.8043478 L11.0111798,14.8043478 L5.3863348,14.8043478 Z" stroke="#000000" stroke-width="1.5"></path>
    </g>
</svg>