<?xml version="1.0" encoding="UTF-8"?>
<svg width="20px" height="20px" viewBox="0 0 20 20" version="1.1" xmlns="http://www.w3.org/2000/svg" xmlns:xlink="http://www.w3.org/1999/xlink">
    <!-- Generator: Sketch 49.2 (51160) - http://www.bohemiancoding.com/sketch -->
    <title>icon / message bubble / outgoing-reaction_20px</title>
    <desc>Created with Sketch.</desc>
    <defs></defs>
    <g id="icon-/-message-bubble-/-outgoing-reaction_20px" stroke="none" stroke-width="1" fill="none" fill-rule="evenodd" opacity="0.16089221" stroke-linecap="round" stroke-linejoin="round">
        <path d="M10,18 C5.58191304,18 2,14.418087 2,10 C2,5.58191304 5.58191304,2 10,2 C14.418087,2 18,5.58191304 18,10 C18,14.418087 14.418087,18 10,18 Z M14,12 C13.1548935,13.2013333 11.6810747,14 9.99963447,14 C8.31892534,14 6.8443754,13.2013333 6,12" stroke="#000000" stroke-width="1.5"></path>
        <path d="M7.45454545,7.8 C7.45454545,8.2416 7.12872727,8.6 6.72727273,8.6 C6.32581818,8.6 6,8.2416 6,7.8 C6,7.3584 6.32581818,7 6.72727273,7 C7.12872727,7 7.45454545,7.3584 7.45454545,7.8 Z M14,7.8 C14,8.2416 13.6741818,8.6 13.2727273,8.6 C12.8712727,8.6 12.5454545,8.2416 12.5454545,7.8 C12.5454545,7.3584 12.8712727,7 13.2727273,7 C13.6741818,7 14,7.3584 14,7.8 Z" id="eyes" stroke="#000000" stroke-width="0.75" fill="#000000"></path>
    </g>
</svg>