<?xml version="1.0" encoding="UTF-8"?>
<svg width="28px" height="28px" viewBox="0 0 28 28" version="1.1" xmlns="http://www.w3.org/2000/svg" xmlns:xlink="http://www.w3.org/1999/xlink">
    <!-- Generator: Sketch 49.2 (51160) - http://www.bohemiancoding.com/sketch -->
    <title>icon / message bubble / thread_28px_600</title>
    <desc>Created with Sketch.</desc>
    <defs></defs>
    <g id="icon-/-message-bubble-/-thread_28px_600" stroke="none" stroke-width="1" fill="none" fill-rule="evenodd" stroke-linecap="round" stroke-linejoin="round">
        <path d="M0.871523321,12.8713907 C0.824275211,12.7532704 0.800000012,12.6272194 0.800000012,12.5 C0.800000012,11.9477153 1.24771526,11.5 1.80000001,11.5 L18.3229671,11.5 C19.4275366,11.5 20.3229671,12.3954305 20.3229671,13.5 L20.3229671,23.5 C20.3229671,24.6045695 19.4275366,25.5 18.3229671,25.5 L4.32296705,25.5 C3.21839755,25.5 2.32296705,24.6045695 2.32296705,23.5 L2.32296705,16.5 L0.871523321,12.8713907 Z M7.32296705,16.5 L15.3229671,16.5 L7.32296705,16.5 Z M7.32296705,20.5 L15.3229671,20.5 L7.32296705,20.5 Z M27.1514435,3.87139068 L25.6999998,7.5 L25.6999998,14.5 C25.6999998,15.6045695 24.8045693,16.5 23.6999998,16.5 L20.6083984,16.5 M7.69999981,11.5 L7.69999981,4.5 C7.69999981,3.3954305 8.59543031,2.5 9.69999981,2.5 L26.2229668,2.5 C26.7752516,2.5 27.2229668,2.94771525 27.2229668,3.5 C27.2229668,3.62721943 27.1986916,3.7532704 27.1514435,3.87139068 M20.6999998,7.5 L12.6999998,7.5 L20.6999998,7.5 Z" stroke="#546E7A" stroke-width="1.5"></path>
    </g>
</svg>