<?xml version="1.0" encoding="UTF-8"?>
<svg width="32px" height="32px" viewBox="0 0 32 32" version="1.1" xmlns="http://www.w3.org/2000/svg" xmlns:xlink="http://www.w3.org/1999/xlink">
    <!-- Generator: Sketch 49.2 (51160) - http://www.bohemiancoding.com/sketch -->
    <title>icon / nested / selected-thread_32px_200</title>
    <desc>Created with Sketch.</desc>
    <defs></defs>
    <g id="icon-/-nested-/-selected-thread_32px_200" stroke="none" stroke-width="1" fill="none" fill-rule="evenodd" stroke-linecap="round" stroke-linejoin="round">
        <path d="M1.0794028,14.6751108 C1.02694952,14.5364479 1,14.388475 1,14.2391304 C1,13.5907962 1.49703859,13.0652174 2.11016677,13.0652174 L20.4534157,13.0652174 C21.679672,13.0652174 22.6737492,14.1163749 22.6737492,15.4130435 L22.6737492,27.1521739 C22.6737492,28.4488425 21.679672,29.5 20.4534157,29.5 L4.91108093,29.5 C3.68482458,29.5 2.6907474,28.4488425 2.6907474,27.1521739 L2.6907474,18.9347826 L1.0794028,14.6751108 Z M8.24158124,18.9347826 L17.1229154,18.9347826 L8.24158124,18.9347826 Z M8.24158124,23.6304348 L17.1229154,23.6304348 L8.24158124,23.6304348 Z M30.9205972,4.1098934 L29.3092526,8.36956522 L29.3092526,16.5869565 C29.3092526,17.8836251 28.3151754,18.9347826 27.0889191,18.9347826 L22.7814708,18.9347826 M9.32625077,13.0652174 L9.32625077,4.84782609 C9.32625077,3.55115754 10.320328,2.5 11.5465843,2.5 L29.8898332,2.5 C30.5029614,2.5 31,3.02557877 31,3.67391304 C31,3.82325759 30.9730505,3.97123047 30.9205972,4.1098934 M23.7584188,8.36956522 L14.8770846,8.36956522 L23.7584188,8.36956522 Z" stroke="#B0BEC5" stroke-width="1.5"></path>
    </g>
</svg>