<?xml version="1.0" encoding="UTF-8"?>
<svg width="40px" height="40px" viewBox="0 0 40 40" version="1.1" xmlns="http://www.w3.org/2000/svg" xmlns:xlink="http://www.w3.org/1999/xlink">
    <!-- Generator: Sketch 49.2 (51160) - http://www.bohemiancoding.com/sketch -->
    <title>icon / nested / view-thread_40px_900</title>
    <desc>Created with Sketch.</desc>
    <defs></defs>
    <g id="icon-/-nested-/-view-thread_40px_900" stroke="none" stroke-width="1" fill="none" fill-rule="evenodd" stroke-linecap="round" stroke-linejoin="round">
        <path d="M1.10057688,18.380691 C1.03413606,18.2112141 1,18.0303583 1,17.8478261 C1,17.0554175 1.62958222,16.4130435 2.40621124,16.4130435 L25.6409932,16.4130435 C27.1942513,16.4130435 28.4534157,17.6977916 28.4534157,19.2826087 L28.4534157,33.6304348 C28.4534157,35.2152519 27.1942513,36.5 25.6409932,36.5 L5.95403585,36.5 C4.4007778,36.5 3.14161337,35.2152519 3.14161337,33.6304348 L3.14161337,23.5869565 L1.10057688,18.380691 Z M10.1726696,23.5869565 L21.4223595,23.5869565 L10.1726696,23.5869565 Z M10.1726696,29.326087 L21.4223595,29.326087 L10.1726696,29.326087 Z M38.8994231,5.46764749 L36.8583866,10.673913 L36.8583866,20.7173913 C36.8583866,22.3022084 35.5992222,23.5869565 34.0459642,23.5869565 L28.589863,23.5869565 M11.5465843,16.4130435 L11.5465843,6.36956522 C11.5465843,4.78474811 12.8057487,3.5 14.3590068,3.5 L37.5937888,3.5 C38.3704178,3.5 39,4.14237405 39,4.93478261 C39,5.11731483 38.9658639,5.29817058 38.8994231,5.46764749 M29.8273304,10.673913 L18.5776405,10.673913 L29.8273304,10.673913 Z" stroke="#263238" stroke-width="1.5"></path>
    </g>
</svg>