<?xml version="1.0" encoding="UTF-8"?>
<svg width="40px" height="40px" viewBox="0 0 40 40" version="1.1" xmlns="http://www.w3.org/2000/svg" xmlns:xlink="http://www.w3.org/1999/xlink">
    <!-- Generator: Sketch 49.2 (51160) - http://www.bohemiancoding.com/sketch -->
    <title>icon / nested / view-flagged_40px</title>
    <desc>Created with Sketch.</desc>
    <defs></defs>
    <g id="icon-/-nested-/-view-flagged_40px" stroke="none" stroke-width="1" fill="none" fill-rule="evenodd" stroke-linejoin="round">
        <path d="M29.8685977,16.7344646 C29.9549238,17.2114939 30,17.702876 30,18.2047856 L30,24.9616679 C30,29.4931227 26.3257241,33.1664535 21.7931034,33.1664535 L20.9333103,33.1664535 C17.4656552,33.1664535 14.1394483,34.5438922 11.6875172,36.9951926 L10.7813793,37.9006148 C10.5694483,38.1129739 10.2068966,37.962392 10.2068966,37.662676 L10.2068966,33.1664535 C5.67427586,33.1664535 2,29.4931227 2,24.9616679 L2,18.2047856 C2,13.6733308 5.67427586,10 10.2068966,10 C14.8273449,10 18.2926811,10 20.6029053,10 M10.21,31 L10.21,33" id="bubble" stroke="#263238" stroke-width="1.5" stroke-linecap="round"></path>
        <path d="M20.6875,16.125 L20.6875,23 L20.6875,2 L20.6875,3.875 L38.2125407,3.875 C38.2736092,3.875 38.3325658,3.8973526 38.3782843,3.93783948 C38.4816502,4.02937714 38.4912388,4.18737769 38.3997012,4.29074359 L33.6373145,9.66851281 C33.4697425,9.85773794 33.4697425,10.1422621 33.6373145,10.3314872 L38.3997012,15.7092564 C38.4401881,15.7549749 38.4625407,15.8139315 38.4625407,15.875 C38.4625407,16.0130712 38.3506119,16.125 38.2125407,16.125 L20.6875,16.125 Z" id="flag" stroke="#263238" stroke-width="1.5" fill-rule="nonzero"></path>
    </g>
</svg>