<?xml version="1.0" encoding="UTF-8"?>
<svg width="40px" height="40px" viewBox="0 0 40 40" version="1.1" xmlns="http://www.w3.org/2000/svg" xmlns:xlink="http://www.w3.org/1999/xlink">
    <!-- Generator: Sketch 49.2 (51160) - http://www.bohemiancoding.com/sketch -->
    <title>icon / nested / view-team_40px</title>
    <desc>Created with Sketch.</desc>
    <defs></defs>
    <g id="icon-/-nested-/-view-team_40px" stroke="none" stroke-width="1" fill="none" fill-rule="evenodd" stroke-linecap="round" stroke-linejoin="round">
        <path d="M29.2634245,28.363841 C27.9703008,31.1972563 25.1117726,33.1664535 21.7931034,33.1664535 L20.9333103,33.1664535 C17.4656552,33.1664535 14.1394483,34.5438922 11.6875172,36.9951926 L10.7813793,37.9006148 C10.5694483,38.1129739 10.2068966,37.962392 10.2068966,37.662676 L10.2068966,33.1664535 C5.67427586,33.1664535 2,29.4931227 2,24.9616679 L2,18.2047856 C2,13.6733308 5.67427586,10 10.2068966,10 L19.2272949,10 M10.21,31 L10.21,33" id="bubble" stroke="#263238" stroke-width="1.5"></path>
        <path d="M34.6151765,22.3824706 L29.9550588,21.2170588 L29.4732941,19.2869412 C32.7936471,18.822 34.4775294,17.8263529 34.4775294,17.8263529 C34.4775294,17.8263529 32.2170588,16.1302353 32.2170588,9.91317647 C32.2170588,3.69611765 30.3328235,3.13023529 29.3907059,3.13023529 L28.8248235,3.13023529 C28.0004706,2.30588235 27.5538824,2 26,2 C24.4445882,2 19.7814118,3.69611765 19.7814118,9.91317647 C19.7814118,16.1302353 17.5209412,17.8263529 17.5209412,17.8263529 C17.5209412,17.8263529 19.1834118,18.8250588 22.5251765,19.2884706 L22.0434118,21.2170588 L17.3832941,22.3824706 C14.8062353,23.0263529 13,25.3418824 13,27.9969412 L13,28 L39,28 L39,27.9969412 C39,25.3418824 37.1922353,23.0263529 34.6151765,22.3824706 L34.6151765,22.3824706 Z" id="user" stroke="#263238" stroke-width="1.5"></path>
    </g>
</svg>