<?xml version="1.0" encoding="UTF-8"?>
<svg width="40px" height="40px" viewBox="0 0 40 40" version="1.1" xmlns="http://www.w3.org/2000/svg" xmlns:xlink="http://www.w3.org/1999/xlink">
    <!-- Generator: Sketch 49.2 (51160) - http://www.bohemiancoding.com/sketch -->
    <title>icon / nested / view-files_40px</title>
    <desc>Created with Sketch.</desc>
    <defs></defs>
    <g id="icon-/-nested-/-view-files_40px" stroke="none" stroke-width="1" fill="none" fill-rule="evenodd" stroke-linecap="round" stroke-linejoin="round">
        <path d="M29.8771638,26.383831 C29.2035934,30.2374073 25.8405626,33.1664535 21.7931034,33.1664535 L20.9333103,33.1664535 C17.4656552,33.1664535 14.1394483,34.5438922 11.6875172,36.9951926 L10.7813793,37.9006148 C10.5694483,38.1129739 10.2068966,37.962392 10.2068966,37.662676 L10.2068966,33.1664535 C5.67427586,33.1664535 2,29.4931227 2,24.9616679 L2,18.2047856 C2,13.6733308 5.67427586,10 10.2068966,10 C14.4844087,10 17.6925428,10 19.8312988,10 M10.21,31 L10.21,33" id="bubble" stroke="#263238" stroke-width="1.5"></path>
        <path d="M36.0049107,26 L21.9950893,26 C20.8926228,26 20,25.1023548 20,23.9950534 L20,4.00494659 C20,2.89702623 20.8992496,2 22.0085302,2 L32,2 L38,8 L38,24.0049107 C38,25.1073772 37.1067681,26 36.0049107,26 Z M31.25,2 L31.25,6.00208688 C31.25,7.10173938 32.1485408,8 33.256947,8 L38,8 M25,12 L33,12 M25,15.8333333 L33,15.8333333 M25,19.6666667 L30,19.6666667" id="file" stroke="#263238" stroke-width="1.5"></path>
    </g>
</svg>