<?xml version="1.0" encoding="UTF-8"?>
<svg width="40px" height="40px" viewBox="0 0 40 40" version="1.1" xmlns="http://www.w3.org/2000/svg" xmlns:xlink="http://www.w3.org/1999/xlink">
    <!-- Generator: Sketch 49.2 (51160) - http://www.bohemiancoding.com/sketch -->
    <title>icon / nested / view-search_40px</title>
    <desc>Created with Sketch.</desc>
    <defs></defs>
    <g id="icon-/-nested-/-view-search_40px" stroke="none" stroke-width="1" fill="none" fill-rule="evenodd" stroke-linecap="round" stroke-linejoin="round">
        <path d="M3.67582913,26.4497004 C2.61937862,24.9323119 2,23.0880081 2,21.099049 L2,13.3768978 C2,8.19809232 6.19917241,4 11.3793103,4 L24.6206897,4 C29.8008276,4 34,8.19809232 34,13.3768978 L34,21.099049 C34,26.2778545 29.8008276,30.4759468 24.6206897,30.4759468 L24.6206897,35.6144869 C24.6206897,35.9570194 24.2063448,36.1291131 23.9641379,35.8864169 L22.9285517,34.8516486 C20.1263448,32.0501625 16.3249655,30.4759468 12.361931,30.4759468 L11.3793103,30.4759468 C9.62401946,30.4759468 7.98136253,29.9939241 6.57654903,29.1550559 M24.6206897,27.7180357 L24.6206897,30.4759468" id="bubble" stroke="#263238" stroke-width="1.5" transform="translate(18.000000, 20.000000) scale(-1, 1) translate(-18.000000, -20.000000) "></path>
        <path d="M20.9940139,26.9880277 C16.5791865,26.9880277 13,23.4088412 13,18.9940139 C13,14.5791865 16.5791865,11 20.9940139,11 C25.4088412,11 28.9880277,14.5791865 28.9880277,18.9940139 C28.9880277,23.4088412 25.4088412,26.9880277 20.9940139,26.9880277 Z M16.131737,18.9917372 C16.131737,16.3121098 18.3121098,14.131737 20.9917372,14.131737 M27.6936903,23.3470209 C27.3771273,23.8330569 27.0120674,24.2839193 26.6001092,24.6889493 L28.3907683,26.5195785 L29.6074572,25.3028896 L27.6936903,23.3470209 Z M37.6352058,34.0494066 L37.115062,34.5695504 C36.5650738,35.1195386 35.6995886,35.1461853 35.1821094,34.6281732 L28.0285329,27.4745967 C27.8649221,27.3104529 27.873449,27.0370577 28.0471856,26.8633211 L29.9289764,24.9809973 C30.102713,24.8072607 30.3766412,24.7992667 30.540252,24.9623446 L37.6938286,32.1164541 C38.2118407,32.6339332 38.1851939,33.4994185 37.6352058,34.0494066 Z" id="search" stroke="#263238" stroke-width="1.5"></path>
    </g>
</svg>