<?xml version="1.0" encoding="UTF-8"?>
<svg width="40px" height="40px" viewBox="0 0 40 40" version="1.1" xmlns="http://www.w3.org/2000/svg" xmlns:xlink="http://www.w3.org/1999/xlink">
    <!-- Generator: Sketch 49.2 (51160) - http://www.bohemiancoding.com/sketch -->
    <title>icon / nested / view-tagged_40px</title>
    <desc>Created with Sketch.</desc>
    <defs></defs>
    <g id="icon-/-nested-/-view-tagged_40px" stroke="none" stroke-width="1" fill="none" fill-rule="evenodd" stroke-linecap="round" stroke-linejoin="round">
        <path d="M2,20.5341797 C2,18.9436726 2,16.557912 2,13.3768978 C2,8.19809232 6.19917241,4 11.3793103,4 L24.6206897,4 C29.8008276,4 34,8.19809232 34,13.3768978 L34,21.099049 C34,26.2778545 29.8008276,30.4759468 24.6206897,30.4759468 L24.6206897,35.6144869 C24.6206897,35.9570194 24.2063448,36.1291131 23.9641379,35.8864169 L22.9285517,34.8516486 C20.2735977,32.1973775 16.721723,30.6447824 12.9852295,30.4889376 M24.6206897,27.7180357 L24.6206897,30.4759468" id="bubble" stroke="#263238" stroke-width="1.5" transform="translate(18.000000, 20.000000) scale(-1, 1) translate(-18.000000, -20.000000) "></path>
        <path d="M26.1714783,35.2633043 C25.6998261,35.7349565 25.0601739,36 24.3933913,36 L24.3892174,36 C23.7224348,36 23.0827826,35.7349565 22.6111304,35.2633043 L15.7366957,28.3888696 C15.2650435,27.9172174 15,27.2775652 15,26.6107826 L15,26.6066087 C15,25.9398261 15.2650435,25.3001739 15.7366957,24.8285217 L27.3422609,13.221913 C28.125913,12.4393043 29.1871304,12 30.2942609,12 L36.9130435,12 C38.066087,12 39,12.933913 39,14.0869565 L39,20.7057391 C39,21.8128696 38.5606957,22.874087 37.7770435,23.6566957 L26.1714783,35.2633043 Z M35,18 C35,16.895 34.105,16 33,16 C31.895,16 31,16.895 31,18 C31,19.105 31.895,20 33,20 C34.105,20 35,19.105 35,18 Z" id="tag" stroke="#263238" stroke-width="1.5" transform="translate(27.000000, 24.000000) scale(-1, 1) translate(-27.000000, -24.000000) "></path>
    </g>
</svg>