<?xml version="1.0" encoding="UTF-8"?>
<svg width="40px" height="40px" viewBox="0 0 40 40" version="1.1" xmlns="http://www.w3.org/2000/svg" xmlns:xlink="http://www.w3.org/1999/xlink">
    <!-- Generator: Sketch 49.2 (51160) - http://www.bohemiancoding.com/sketch -->
    <title>icon / file / doc-vector_40px</title>
    <desc>Created with Sketch.</desc>
    <defs></defs>
    <g id="icon-/-file-/-doc-vector_40px" stroke="none" stroke-width="1" fill="none" fill-rule="evenodd" stroke-linecap="round" stroke-linejoin="round">
        <path d="M8.99700466,38 C7.89408944,38 7,37.1016617 7,35.9926701 L7,11 L15.6666667,2 L30.9947133,2 C32.1022026,2 33,2.88989258 33,3.99970728 L33,36.0002927 C33,37.1047006 32.1050211,38 31.0029953,38 L8.99700466,38 Z M7,11 L14.0026083,11 C15.1057373,11 16,10.1041422 16,9.0026083 L16,2" id="document" stroke="#263238" stroke-width="1.5" transform="translate(20.000000, 20.000000) scale(-1, 1) translate(-20.000000, -20.000000) "></path>
        <path d="M20.131728,21.381728 C20.5459415,21.381728 20.881728,21.0459415 20.881728,20.631728 C20.881728,20.2175144 20.5459415,19.881728 20.131728,19.881728 C19.7175144,19.881728 19.381728,20.2175144 19.381728,20.631728 C19.381728,21.0459415 19.7175144,21.381728 20.131728,21.381728 Z M13.8389416,21.3389416 C13.4485597,21.7293235 12.8148963,21.7293235 12.4245144,21.3389416 C12.0341325,20.9485597 12.0341325,20.3148963 12.4245144,19.9245144 C12.8148963,19.5341325 13.4485597,19.5341325 13.8389416,19.9245144 C14.2293235,20.3148963 14.2293235,20.9485597 13.8389416,21.3389416 Z M27.8389416,21.3389416 C27.4485597,21.7293235 26.8148963,21.7293235 26.4245144,21.3389416 C26.0341325,20.9485597 26.0341325,20.3148963 26.4245144,19.9245144 C26.8148963,19.5341325 27.4485597,19.5341325 27.8389416,19.9245144 C28.2293235,20.3148963 28.2293235,20.9485597 27.8389416,21.3389416 Z M14.131728,20.631728 L26.131728,20.631728 L14.131728,20.631728 Z M12.131728,25.631728 L13.131728,24.631728 L14.131728,25.631728 L13.131728,26.631728 L12.131728,25.631728 Z M26.131728,25.631728 L27.131728,24.631728 L28.131728,25.631728 L27.131728,26.631728 L26.131728,25.631728 Z M14.131728,24.631728 C16.0434203,22.560728 17.6264972,20.631728 20.131728,20.631728 C22.6378818,20.631728 24.2200357,22.560728 26.131728,24.631728" id="vector" stroke-opacity="0.88" stroke="#0039CB" stroke-width="1.5" transform="translate(20.131728, 23.131728) rotate(-45.000000) translate(-20.131728, -23.131728) "></path>
    </g>
</svg>