<?xml version="1.0" encoding="UTF-8"?>
<svg width="40px" height="40px" viewBox="0 0 40 40" version="1.1" xmlns="http://www.w3.org/2000/svg" xmlns:xlink="http://www.w3.org/1999/xlink">
    <!-- Generator: Sketch 49.2 (51160) - http://www.bohemiancoding.com/sketch -->
    <title>icon / file / doc-presentation_40px</title>
    <desc>Created with Sketch.</desc>
    <defs></defs>
    <g id="icon-/-file-/-doc-presentation_40px" stroke="none" stroke-width="1" fill="none" fill-rule="evenodd" stroke-linecap="round" stroke-linejoin="round">
        <path d="M8.99700466,38 C7.89408944,38 7,37.1016617 7,35.9926701 L7,11 L15.6666667,2 L30.9947133,2 C32.1022026,2 33,2.88989258 33,3.99970728 L33,36.0002927 C33,37.1047006 32.1050211,38 31.0029953,38 L8.99700466,38 Z M7,11 L14.0026083,11 C15.1057373,11 16,10.1041422 16,9.0026083 L16,2" id="document" stroke="#263238" stroke-width="1.5" transform="translate(20.000000, 20.000000) scale(-1, 1) translate(-20.000000, -20.000000) "></path>
        <path d="M13,28 L27,28 L27,20 L13,20 L13,28 Z M20,28 L20,30 M20,33.5 L20,33.5 C19.175,33.5 18.5,32.825 18.5,32 C18.5,31.175 19.175,30.5 20,30.5 C20.825,30.5 21.5,31.175 21.5,32 C21.5,32.825 20.825,33.5 20,33.5 Z M29,18.5 C29,19.3284271 28.338023,20 27.4962901,20 L12.5037099,20 C11.6732339,20 11,19.3342028 11,18.5 L11,18.5 C11,17.6715729 11.661977,17 12.5037099,17 L27.4962901,17 C28.3267661,17 29,17.6657972 29,18.5 L29,18.5 Z" id="presentation" stroke-opacity="0.88" stroke="#0039CB" stroke-width="1.5"></path>
    </g>
</svg>