<?xml version="1.0" encoding="UTF-8"?>
<svg width="40px" height="40px" viewBox="0 0 40 40" version="1.1" xmlns="http://www.w3.org/2000/svg" xmlns:xlink="http://www.w3.org/1999/xlink">
    <!-- Generator: Sketch 49.2 (51160) - http://www.bohemiancoding.com/sketch -->
    <title>icon / file / doc-indesign_40px</title>
    <desc>Created with Sketch.</desc>
    <defs></defs>
    <g id="icon-/-file-/-doc-indesign_40px" stroke="none" stroke-width="1" fill="none" fill-rule="evenodd">
        <path d="M8.99700466,38 C7.89408944,38 7,37.1016617 7,35.9926701 L7,11 L15.6666667,2 L30.9947133,2 C32.1022026,2 33,2.88989258 33,3.99970728 L33,36.0002927 C33,37.1047006 32.1050211,38 31.0029953,38 L8.99700466,38 Z M7,11 L14.0026083,11 C15.1057373,11 16,10.1041422 16,9.0026083 L16,2" id="document" stroke="#263238" stroke-width="1.5" stroke-linecap="round" stroke-linejoin="round" transform="translate(20.000000, 20.000000) scale(-1, 1) translate(-20.000000, -20.000000) "></path>
        <path d="M14,18.55 L16.192,18.55 L16.192,28.998 L14,28.998 L14,18.55 Z M21.344,29.19 C20.351995,29.19 19.5653362,28.8220037 18.984,28.086 C18.4026638,27.3499963 18.112,26.3366731 18.112,25.046 C18.112,24.2139958 18.2666651,23.4833365 18.576,22.854 C18.8853349,22.2246635 19.2933308,21.739335 19.8,21.398 C20.3066692,21.056665 20.8426638,20.886 21.408,20.886 C21.8240021,20.886 22.1813318,20.9553326 22.48,21.094 C22.7786682,21.2326674 23.0826651,21.4459986 23.392,21.734 L23.312,20.502 L23.312,17.75 L25.504,17.75 L25.504,28.998 L23.712,28.998 L23.552,28.182 L23.504,28.182 C23.2053318,28.4806682 22.8666686,28.7233324 22.488,28.91 C22.1093314,29.0966676 21.7280019,29.19 21.344,29.19 Z M21.904,27.398 C22.1813347,27.398 22.4319989,27.3366673 22.656,27.214 C22.8800011,27.0913327 23.0986656,26.896668 23.312,26.63 L23.312,23.238 C22.9066646,22.8646648 22.437336,22.678 21.904,22.678 C21.4666645,22.678 21.0986682,22.8806646 20.8,23.286 C20.5013318,23.6913354 20.352,24.2673296 20.352,25.014 C20.352,25.8033373 20.485332,26.397998 20.752,26.798 C21.018668,27.198002 21.4026642,27.398 21.904,27.398 Z" id="Id" fill-opacity="0.88" fill="#0039CB"></path>
    </g>
</svg>