<?xml version="1.0" encoding="UTF-8"?>
<svg width="40px" height="40px" viewBox="0 0 40 40" version="1.1" xmlns="http://www.w3.org/2000/svg" xmlns:xlink="http://www.w3.org/1999/xlink">
    <!-- Generator: Sketch 49.2 (51160) - http://www.bohemiancoding.com/sketch -->
    <title>icon / file / doc-illustrator_40px</title>
    <desc>Created with Sketch.</desc>
    <defs></defs>
    <g id="icon-/-file-/-doc-illustrator_40px" stroke="none" stroke-width="1" fill="none" fill-rule="evenodd">
        <path d="M8.99700466,38 C7.89408944,38 7,37.1016617 7,35.9926701 L7,11 L15.6666667,2 L30.9947133,2 C32.1022026,2 33,2.88989258 33,3.99970728 L33,36.0002927 C33,37.1047006 32.1050211,38 31.0029953,38 L8.99700466,38 Z M7,11 L14.0026083,11 C15.1057373,11 16,10.1041422 16,9.0026083 L16,2" id="document" stroke="#263238" stroke-width="1.5" stroke-linecap="round" stroke-linejoin="round" transform="translate(20.000000, 20.000000) scale(-1, 1) translate(-20.000000, -20.000000) "></path>
        <path d="M19.974,26.38 L16.694,26.38 L15.99,28.988 L13.75,28.988 L17.078,18.54 L19.686,18.54 L22.998,28.988 L20.678,28.988 L19.974,26.38 Z M19.526,24.684 L19.238,23.612 C19.1099994,23.1426643 18.9180013,22.4066717 18.662,21.404 L18.358,20.22 L18.294,20.22 C17.9739984,21.5960069 17.6913346,22.7266622 17.446,23.612 L17.158,24.684 L19.526,24.684 Z M24.006,21.068 L26.182,21.068 L26.182,28.988 L24.006,28.988 L24.006,21.068 Z M25.094,19.836 C24.7313315,19.836 24.4353345,19.7266678 24.206,19.508 C23.9766655,19.2893322 23.862,19.009335 23.862,18.668 C23.862,18.326665 23.9766655,18.0466678 24.206,17.828 C24.4353345,17.6093322 24.7313315,17.5 25.094,17.5 C25.4566685,17.5 25.7526655,17.6093322 25.982,17.828 C26.2113345,18.0466678 26.326,18.326665 26.326,18.668 C26.326,19.009335 26.2113345,19.2893322 25.982,19.508 C25.7526655,19.7266678 25.4566685,19.836 25.094,19.836 Z" id="Ai" fill-opacity="0.88" fill="#0039CB"></path>
    </g>
</svg>