<?xml version="1.0" encoding="UTF-8"?>
<svg width="40px" height="40px" viewBox="0 0 40 40" version="1.1" xmlns="http://www.w3.org/2000/svg" xmlns:xlink="http://www.w3.org/1999/xlink">
    <!-- Generator: Sketch 49.2 (51160) - http://www.bohemiancoding.com/sketch -->
    <title>icon / file / doc-photoshop_40px</title>
    <desc>Created with Sketch.</desc>
    <defs></defs>
    <g id="icon-/-file-/-doc-photoshop_40px" stroke="none" stroke-width="1" fill="none" fill-rule="evenodd">
        <path d="M8.99700466,38 C7.89408944,38 7,37.1016617 7,35.9926701 L7,11 L15.6666667,2 L30.9947133,2 C32.1022026,2 33,2.88989258 33,3.99970728 L33,36.0002927 C33,37.1047006 32.1050211,38 31.0029953,38 L8.99700466,38 Z M7,11 L14.0026083,11 C15.1057373,11 16,10.1041422 16,9.0026083 L16,2" id="document" stroke="#263238" stroke-width="1.5" stroke-linecap="round" stroke-linejoin="round" transform="translate(20.000000, 20.000000) scale(-1, 1) translate(-20.000000, -20.000000) "></path>
        <path d="M13,18.5499992 L16.488,18.5499992 C17.746673,18.5499992 18.746663,18.8086633 19.488,19.3259992 C20.229337,19.8433352 20.6,20.68866 20.6,21.8619992 C20.6,23.014005 20.2213371,23.8833296 19.464,24.4699992 C18.7066629,25.0566688 17.7360059,25.3499992 16.552,25.3499992 L15.192,25.3499992 L15.192,28.9979992 L13,28.9979992 L13,18.5499992 Z M16.408,23.6059992 C17.7733402,23.6059992 18.456,23.0246717 18.456,21.8619992 C18.456,21.3073298 18.2826684,20.9073338 17.936,20.6619992 C17.5893316,20.4166647 17.0586702,20.2939992 16.344,20.2939992 L15.192,20.2939992 L15.192,23.6059992 L16.408,23.6059992 Z M24.084,29.1899992 C23.5719974,29.1899992 23.0413361,29.0886669 22.492,28.8859992 C21.9426639,28.6833316 21.4653354,28.4166676 21.06,28.0859992 L22.052,26.7099992 C22.4253352,26.9980007 22.7799983,27.2113319 23.116,27.3499992 C23.4520017,27.4886666 23.7959982,27.5579992 24.148,27.5579992 C24.5106685,27.5579992 24.7826658,27.4913332 24.964,27.3579992 C25.1453342,27.2246652 25.236,27.0353338 25.236,26.7899992 C25.236,26.6193317 25.1640007,26.4699999 25.02,26.3419992 C24.8759993,26.2139986 24.670668,26.0939998 24.404,25.9819992 C24.137332,25.8699987 23.870668,25.7606664 23.604,25.6539992 C22.9746635,25.4086647 22.460002,25.1073344 22.06,24.7499992 C21.659998,24.3926641 21.46,23.9206688 21.46,23.3339992 C21.46,22.6086623 21.7319973,22.0193348 22.276,21.5659992 C22.8200027,21.1126636 23.5399955,20.8859992 24.436,20.8859992 C25.4173382,20.8859992 26.3293291,21.2166626 27.172,21.8779992 L26.196,23.1899992 C25.5666635,22.741997 25.0013358,22.5179992 24.5,22.5179992 C24.1693317,22.5179992 23.9213342,22.5819986 23.756,22.7099992 C23.5906658,22.8379999 23.508,23.0086648 23.508,23.2219992 C23.508,23.4353336 23.6146656,23.6086652 23.828,23.7419992 C24.0413344,23.8753332 24.2866653,23.9899988 24.564,24.0859992 C24.8413347,24.1819997 25.0226662,24.2459991 25.108,24.2779992 C25.7800034,24.5233338 26.3106647,24.8193308 26.7,25.1659992 C27.0893353,25.5126676 27.284,26.0113293 27.284,26.6619992 C27.284,27.1420016 27.1586679,27.5713307 26.908,27.9499992 C26.6573321,28.3286678 26.2920024,28.6299981 25.812,28.8539992 C25.3319976,29.0780004 24.7560034,29.1899992 24.084,29.1899992 Z" id="Ps" fill-opacity="0.88" fill="#0039CB"></path>
    </g>
</svg>