<?xml version="1.0" encoding="UTF-8"?>
<svg width="40px" height="40px" viewBox="0 0 40 40" version="1.1" xmlns="http://www.w3.org/2000/svg" xmlns:xlink="http://www.w3.org/1999/xlink">
    <!-- Generator: Sketch 49.2 (51160) - http://www.bohemiancoding.com/sketch -->
    <title>icon / file / doc-zipped_40px</title>
    <desc>Created with Sketch.</desc>
    <defs></defs>
    <g id="icon-/-file-/-doc-zipped_40px" stroke="none" stroke-width="1" fill="none" fill-rule="evenodd" stroke-linecap="round" stroke-linejoin="round">
        <path d="M17.75,5.75 L16.688,10.583 C16.421,11.294 16.595,12.095 17.1305,12.6305 C17.8865,13.3865 19.112,13.3865 19.868,12.6305 C20.405,12.095 20.579,11.294 20.312,10.583 L19.25,5.75 L17.75,5.75 L17.75,5.75 Z M16.25,2.75 L14.75,5.75 L16.25,8.75 M20.75,2.75 L22.25,5.75 L20.75,8.75" id="Stroke-208" stroke-opacity="0.88" stroke="#0039CB" stroke-width="1.5"></path>
        <path d="M34,28.0085302 C34,26.8992496 33.1061002,26 31.9951185,26 L31.0048815,26 C29.897616,26 29,25.1029738 29,23.9950534 L29,4.00494659 C29,2.89764516 28.1103261,2 27.008845,2 L8.991155,2 C7.89147046,2 7,2.88989258 7,3.99970728 L7,36.0002927 C7,37.1047006 7.89833832,38 9.00732994,38 L31.9926701,38 C33.1012878,38 34,37.0980496 34,35.9914698 L34,28.0085302 Z M33,25.5 C33,25.5 33,24.6035444 33,23.496639 L33,6.00336101 C33,4.89693527 32.1122704,4 31,4 L29,4" id="Stroke-174" stroke="#263238" stroke-width="1.5"></path>
        <path d="M16.25,34.25 L17.75,34.25 L16.25,34.25 Z M16.25,31.25 L17.75,31.25 L16.25,31.25 Z M16.25,28.25 L17.75,28.25 L16.25,28.25 Z M16.25,25.25 L17.75,25.25 L16.25,25.25 Z M16.25,22.25 L17.75,22.25 L16.25,22.25 Z M16.25,19.25 L17.75,19.25 L16.25,19.25 Z M16.25,16.25 L17.75,16.25 L16.25,16.25 Z M19.25,32.75 L20.75,32.75 L19.25,32.75 Z M19.25,29.75 L20.75,29.75 L19.25,29.75 Z M19.25,26.75 L20.75,26.75 L19.25,26.75 Z M19.25,23.75 L20.75,23.75 L19.25,23.75 Z M19.25,20.75 L20.75,20.75 L19.25,20.75 Z M19.25,17.75 L20.75,17.75 L19.25,17.75 Z" id="Stroke-178" stroke-opacity="0.88" stroke="#0039CB" stroke-width="1.5"></path>
    </g>
</svg>