<?xml version="1.0" encoding="UTF-8"?>
<svg width="40px" height="40px" viewBox="0 0 40 40" version="1.1" xmlns="http://www.w3.org/2000/svg" xmlns:xlink="http://www.w3.org/1999/xlink">
    <!-- Generator: Sketch 49.2 (51160) - http://www.bohemiancoding.com/sketch -->
    <title>icon / file / doc-code_40px</title>
    <desc>Created with Sketch.</desc>
    <defs></defs>
    <g id="icon-/-file-/-doc-code_40px" stroke="none" stroke-width="1" fill="none" fill-rule="evenodd" stroke-linecap="round" stroke-linejoin="round">
        <path d="M8.99700466,38 C7.89408944,38 7,37.1016617 7,35.9926701 L7,11 L15.6666667,2 L30.9947133,2 C32.1022026,2 33,2.88989258 33,3.99970728 L33,36.0002927 C33,37.1047006 32.1050211,38 31.0029953,38 L8.99700466,38 Z M7,11 L14.0026083,11 C15.1057373,11 16,10.1041422 16,9.0026083 L16,2" id="document" stroke="#263238" stroke-width="1.5" transform="translate(20.000000, 20.000000) scale(-1, 1) translate(-20.000000, -20.000000) "></path>
        <path d="M16.2171352,18.0870236 L12,23.5654036 L16.1740038,29.130742 M23.8259962,18.0000652 L28,23.5654036 L23.8259962,29.130742 M21.5,16.5 L18.5,30.5" id="code" stroke-opacity="0.88" stroke="#0039CB" stroke-width="1.5"></path>
    </g>
</svg>