<?xml version="1.0" encoding="UTF-8"?>
<svg width="20px" height="20px" viewBox="0 0 20 20" version="1.1" xmlns="http://www.w3.org/2000/svg" xmlns:xlink="http://www.w3.org/1999/xlink">
    <!-- Generator: Sketch 49.2 (51160) - http://www.bohemiancoding.com/sketch -->
    <title>icon / search bar / view-classic_20px_800</title>
    <desc>Created with Sketch.</desc>
    <defs></defs>
    <g id="icon-/-search-bar-/-view-classic_20px_800" stroke="none" stroke-width="1" fill="none" fill-rule="evenodd">
        <path d="M1.25460192,1 L18.7453981,1 C19.1583486,1 19.3254599,1.04641281 19.4884229,1.13356635 C19.6513858,1.2207199 19.7792801,1.34861419 19.8664336,1.51157715 C19.9535872,1.67454011 20,1.84165137 20,2.25460192 L20,2.74539808 C20,3.15834863 19.9535872,3.32545989 19.8664336,3.48842285 C19.7792801,3.65138581 19.6513858,3.7792801 19.4884229,3.86643365 C19.3254599,3.95358719 19.1583486,4 18.7453981,4 L1.25460192,4 C0.841651367,4 0.674540111,3.95358719 0.511577148,3.86643365 C0.348614185,3.7792801 0.220719898,3.65138581 0.133566352,3.48842285 C0.0464128056,3.32545989 1.93921147e-17,3.15834863 -3.11797421e-17,2.74539808 L3.11797421e-17,2.25460192 C-1.93921147e-17,1.84165137 0.0464128056,1.67454011 0.133566352,1.51157715 C0.220719898,1.34861419 0.348614185,1.2207199 0.511577148,1.13356635 C0.674540111,1.04641281 0.841651367,1 1.25460192,1 Z M1.25460192,16 L18.7453981,16 C19.1583486,16 19.3254599,16.0464128 19.4884229,16.1335664 C19.6513858,16.2207199 19.7792801,16.3486142 19.8664336,16.5115771 C19.9535872,16.6745401 20,16.8416514 20,17.2546019 L20,17.7453981 C20,18.1583486 19.9535872,18.3254599 19.8664336,18.4884229 C19.7792801,18.6513858 19.6513858,18.7792801 19.4884229,18.8664336 C19.3254599,18.9535872 19.1583486,19 18.7453981,19 L1.25460192,19 C0.841651367,19 0.674540111,18.9535872 0.511577148,18.8664336 C0.348614185,18.7792801 0.220719898,18.6513858 0.133566352,18.4884229 C0.0464128056,18.3254599 1.93921147e-17,18.1583486 -3.11797421e-17,17.7453981 L3.11797421e-17,17.2546019 C-1.93921147e-17,16.8416514 0.0464128056,16.6745401 0.133566352,16.5115771 C0.220719898,16.3486142 0.348614185,16.2207199 0.511577148,16.1335664 C0.674540111,16.0464128 0.841651367,16 1.25460192,16 Z M1.25460192,11 L18.7453981,11 C19.1583486,11 19.3254599,11.0464128 19.4884229,11.1335664 C19.6513858,11.2207199 19.7792801,11.3486142 19.8664336,11.5115771 C19.9535872,11.6745401 20,11.8416514 20,12.2546019 L20,12.7453981 C20,13.1583486 19.9535872,13.3254599 19.8664336,13.4884229 C19.7792801,13.6513858 19.6513858,13.7792801 19.4884229,13.8664336 C19.3254599,13.9535872 19.1583486,14 18.7453981,14 L1.25460192,14 C0.841651367,14 0.674540111,13.9535872 0.511577148,13.8664336 C0.348614185,13.7792801 0.220719898,13.6513858 0.133566352,13.4884229 C0.0464128056,13.3254599 1.93921147e-17,13.1583486 -3.11797421e-17,12.7453981 L3.11797421e-17,12.2546019 C-1.93921147e-17,11.8416514 0.0464128056,11.6745401 0.133566352,11.5115771 C0.220719898,11.3486142 0.348614185,11.2207199 0.511577148,11.1335664 C0.674540111,11.0464128 0.841651367,11 1.25460192,11 Z M1.25460192,6 L18.7453981,6 C19.1583486,6 19.3254599,6.04641281 19.4884229,6.13356635 C19.6513858,6.2207199 19.7792801,6.34861419 19.8664336,6.51157715 C19.9535872,6.67454011 20,6.84165137 20,7.25460192 L20,7.74539808 C20,8.15834863 19.9535872,8.32545989 19.8664336,8.48842285 C19.7792801,8.65138581 19.6513858,8.7792801 19.4884229,8.86643365 C19.3254599,8.95358719 19.1583486,9 18.7453981,9 L1.25460192,9 C0.841651367,9 0.674540111,8.95358719 0.511577148,8.86643365 C0.348614185,8.7792801 0.220719898,8.65138581 0.133566352,8.48842285 C0.0464128056,8.32545989 1.93921147e-17,8.15834863 -3.11797421e-17,7.74539808 L3.11797421e-17,7.25460192 C-1.93921147e-17,6.84165137 0.0464128056,6.67454011 0.133566352,6.51157715 C0.220719898,6.34861419 0.348614185,6.2207199 0.511577148,6.13356635 C0.674540111,6.04641281 0.841651367,6 1.25460192,6 Z" fill="#37474F"></path>
    </g>
</svg>